M48
; DRILL file {KiCad (5.1.0)-1} date 05.06.2020 16:09:12
; FORMAT={-:-/ absolute / inch / decimal}
; #@! TF.CreationDate,2020-06-05T16:09:12+08:00
; #@! TF.GenerationSoftware,Kicad,Pcbnew,(5.1.0)-1
FMAT,2
INCH
T1C0.0157
T2C0.0236
T3C0.0315
T4C0.0354
T5C0.0394
T6C0.0433
T7C0.0472
T8C0.0512
T9C0.0630
T10C0.1280
%
G90
G05
T1
X2.6476Y-5.4176
X2.9591Y-5.0857
X2.9876Y-5.1276
X2.9899Y-5.5299
X3.0176Y-5.1676
X3.0576Y-5.1976
X3.0576Y-5.1376
X3.1376Y-4.9876
X3.1376Y-5.0376
X3.1676Y-5.3476
X3.2376Y-5.4176
X3.2638Y-5.0197
X3.2676Y-4.9376
X3.2676Y-5.2576
X3.276Y-5.0854
X3.2906Y-4.7921
X3.3329Y-4.7677
X3.3376Y-5.2376
X3.3537Y-4.7319
X3.3776Y-5.2376
X3.4232Y-4.6705
X3.4276Y-5.4476
X3.4276Y-5.0276
X3.4947Y-5.4468
X3.5076Y-5.2576
X3.5718Y-5.1994
X3.5976Y-4.9376
X3.6976Y-5.4476
X3.7476Y-5.2476
X3.7476Y-5.4476
X3.7576Y-4.8676
X3.7876Y-5.6076
X3.7976Y-4.7864
X3.7976Y-4.8276
X3.8276Y-5.3576
X3.8276Y-5.5176
X4.0331Y-5.3999
X4.0376Y-5.5076
X4.0376Y-5.5576
X4.0376Y-5.6076
X4.0378Y-5.439
X4.0532Y-5.2321
X4.1098Y-5.6669
X4.2551Y-5.972
X4.3669Y-5.972
X4.4776Y-5.6676
X4.4876Y-5.1276
X4.5276Y-4.7156
X4.5676Y-5.4876
X4.5776Y-5.5376
X4.5876Y-5.2476
X4.6276Y-4.5916
X4.6276Y-4.631
X4.6276Y-4.6704
X4.6276Y-4.7097
X4.6276Y-4.7491
X4.6276Y-4.8076
X4.678Y-4.3481
X4.6787Y-3.7614
X4.7261Y-5.2976
X4.7376Y-2.5576
X4.7476Y-3.1176
X4.7776Y-5.2476
X4.7776Y-5.5276
X4.7776Y-5.5776
X4.7973Y-4.808
X4.7976Y-5.2976
X4.7976Y-5.3476
X4.8363Y-4.6663
X4.8576Y-4.7476
X4.8954Y-4.6262
X4.9276Y-4.7076
X4.9576Y-4.5976
X5.0178Y-5.1475
X5.0676Y-2.7376
X5.0776Y-3.4476
X5.0861Y-4.4676
X5.0876Y-5.5076
X5.1076Y-2.5076
X5.1476Y-3.1976
X5.1576Y-2.7176
X5.1576Y-4.1976
X5.1676Y-2.2676
X5.1676Y-3.4376
X5.1676Y-4.4576
X5.1776Y-2.5076
X5.1776Y-5.2176
X5.1791Y-2.9776
X5.1791Y-3.2276
X5.1876Y-3.9776
X5.1876Y-4.2376
X5.1876Y-5.0076
X5.2376Y-5.2176
X5.3476Y-2.1876
X5.3734Y-4.4519
X5.3876Y-3.4576
T2
X2.4276Y-5.4576
X2.5076Y-5.7476
X2.8476Y-6.0376
X2.8676Y-4.8676
X3.8176Y-5.6676
X3.9701Y-5.0768
X3.9854Y-5.7665
X4.0583Y-5.0264
X4.078Y-6.237
X4.1783Y-5.8331
X4.3626Y-5.7
X4.4201Y-5.7421
X4.4618Y-5.9925
X4.5823Y-6.1709
X4.7146Y-5.748
X4.7276Y-2.4676
X4.7976Y-5.6976
T3
X4.1868Y-2.3597
X4.1868Y-2.4597
X4.1868Y-2.5597
X4.4868Y-2.3597
X4.4868Y-2.4597
X4.4868Y-2.5597
X3.1472Y-6.1571
X3.1472Y-6.4571
X3.2472Y-6.1571
X3.2472Y-6.4571
X3.3472Y-6.1571
X3.3472Y-6.4571
X5.2717Y-6.1638
X5.2717Y-6.4638
X4.1868Y-4.0311
X4.1868Y-4.1311
X4.1868Y-4.2311
X4.4868Y-4.0311
X4.4868Y-4.1311
X4.4868Y-4.2311
X4.3376Y-2.0634
X4.3376Y-2.1634
X4.6376Y-2.0634
X4.6376Y-2.1634
X4.1868Y-2.9188
X4.1868Y-3.0188
X4.1868Y-3.1188
X4.4868Y-2.9188
X4.4868Y-3.0188
X4.4868Y-3.1188
X4.1868Y-3.4792
X4.1868Y-3.5792
X4.1868Y-3.6792
X4.4868Y-3.4792
X4.4868Y-3.5792
X4.4868Y-3.6792
X3.124Y-5.8197
X3.124Y-6.0165
T4
X3.7598Y-6.085
X3.8098Y-5.985
X3.8598Y-6.085
X3.9098Y-5.985
X3.9598Y-6.085
X4.0098Y-5.985
X4.0598Y-6.085
X4.1098Y-5.985
X4.5441Y-6.0866
X4.5941Y-5.9866
X4.6441Y-6.0866
X4.6941Y-5.9866
X4.7441Y-6.0866
X4.7941Y-5.9866
X4.8441Y-6.0866
X4.8941Y-5.9866
T5
X3.5076Y-3.5074
X3.9013Y-3.5074
X3.5069Y-4.0595
X3.9006Y-4.0595
X2.7453Y-5.3299
X2.7453Y-5.4299
X2.7453Y-5.5299
X2.7453Y-5.6299
X2.7453Y-6.2299
X2.7453Y-6.3299
X2.7453Y-6.4299
X3.5076Y-2.941
X3.9013Y-2.941
X2.498Y-5.1189
X2.598Y-5.1189
X2.698Y-5.1189
X2.798Y-5.1189
X2.898Y-5.1189
X3.5076Y-2.3794
X3.9013Y-2.3794
T6
X2.9235Y-4.0975
X2.9235Y-4.1975
X2.9235Y-4.2975
X2.9243Y-2.4257
X2.9243Y-2.5257
X2.9243Y-2.6257
X2.9243Y-2.9832
X2.9243Y-3.0832
X2.9243Y-3.1832
X2.9243Y-3.5412
X2.9243Y-3.6412
X2.9243Y-3.7412
T7
X3.198Y-4.2992
X3.998Y-4.2992
X3.1996Y-3.7512
X3.9996Y-3.7512
X3.199Y-2.6246
X3.999Y-2.6246
X3.199Y-3.1835
X3.999Y-3.1835
T8
X2.5807Y-4.1014
X2.5807Y-4.2983
X4.9657Y-1.9791
X5.1626Y-1.9791
X5.5756Y-4.0231
X5.5756Y-4.2199
X5.5756Y-4.4168
X5.5756Y-4.6136
X5.5756Y-4.8105
X5.5756Y-5.0744
X5.5756Y-5.2713
X5.5756Y-5.4681
X5.5756Y-5.665
X5.5756Y-5.8618
X2.5807Y-2.5611
X2.5807Y-2.7579
X2.5807Y-2.0476
X2.5807Y-2.2445
X2.5807Y-3.588
X2.5807Y-3.7848
X5.5756Y-1.9205
X5.5756Y-2.1173
X5.5756Y-2.3142
X5.5756Y-2.511
X5.5756Y-2.7079
X2.5807Y-3.0745
X2.5807Y-3.2714
X5.5756Y-2.9718
X5.5756Y-3.1686
X5.5756Y-3.3655
X5.5756Y-3.5623
X5.5756Y-3.7592
T9
X3.6289Y-6.4551
X4.2407Y-6.4551
X4.4132Y-6.4567
X5.025Y-6.4567
T10
X3.7098Y-6.335
X4.1598Y-6.335
X4.4941Y-6.3366
X4.9441Y-6.3366
T0
M30
