G04 #@! TF.GenerationSoftware,KiCad,Pcbnew,(5.1.0)-1*
G04 #@! TF.CreationDate,2020-06-05T16:09:23+08:00*
G04 #@! TF.ProjectId,vibro_magnet,76696272-6f5f-46d6-9167-6e65742e6b69,rev?*
G04 #@! TF.SameCoordinates,Original*
G04 #@! TF.FileFunction,Paste,Bot*
G04 #@! TF.FilePolarity,Positive*
%FSLAX46Y46*%
G04 Gerber Fmt 4.6, Leading zero omitted, Abs format (unit mm)*
G04 Created by KiCad (PCBNEW (5.1.0)-1) date 2020-06-05 16:09:23*
%MOMM*%
%LPD*%
G04 APERTURE LIST*
%ADD10R,0.650000X1.060000*%
%ADD11C,0.100000*%
%ADD12C,1.425000*%
%ADD13C,1.150000*%
%ADD14R,0.800000X0.900000*%
%ADD15C,1.676868*%
%ADD16C,1.250000*%
%ADD17C,0.950000*%
G04 APERTURE END LIST*
D10*
X65850000Y-137450000D03*
X63950000Y-137450000D03*
X63950000Y-139650000D03*
X64900000Y-139650000D03*
X65850000Y-139650000D03*
D11*
G36*
X68279504Y-150296204D02*
G01*
X68303773Y-150299804D01*
X68327571Y-150305765D01*
X68350671Y-150314030D01*
X68372849Y-150324520D01*
X68393893Y-150337133D01*
X68413598Y-150351747D01*
X68431777Y-150368223D01*
X68448253Y-150386402D01*
X68462867Y-150406107D01*
X68475480Y-150427151D01*
X68485970Y-150449329D01*
X68494235Y-150472429D01*
X68500196Y-150496227D01*
X68503796Y-150520496D01*
X68505000Y-150545000D01*
X68505000Y-151470000D01*
X68503796Y-151494504D01*
X68500196Y-151518773D01*
X68494235Y-151542571D01*
X68485970Y-151565671D01*
X68475480Y-151587849D01*
X68462867Y-151608893D01*
X68448253Y-151628598D01*
X68431777Y-151646777D01*
X68413598Y-151663253D01*
X68393893Y-151677867D01*
X68372849Y-151690480D01*
X68350671Y-151700970D01*
X68327571Y-151709235D01*
X68303773Y-151715196D01*
X68279504Y-151718796D01*
X68255000Y-151720000D01*
X67005000Y-151720000D01*
X66980496Y-151718796D01*
X66956227Y-151715196D01*
X66932429Y-151709235D01*
X66909329Y-151700970D01*
X66887151Y-151690480D01*
X66866107Y-151677867D01*
X66846402Y-151663253D01*
X66828223Y-151646777D01*
X66811747Y-151628598D01*
X66797133Y-151608893D01*
X66784520Y-151587849D01*
X66774030Y-151565671D01*
X66765765Y-151542571D01*
X66759804Y-151518773D01*
X66756204Y-151494504D01*
X66755000Y-151470000D01*
X66755000Y-150545000D01*
X66756204Y-150520496D01*
X66759804Y-150496227D01*
X66765765Y-150472429D01*
X66774030Y-150449329D01*
X66784520Y-150427151D01*
X66797133Y-150406107D01*
X66811747Y-150386402D01*
X66828223Y-150368223D01*
X66846402Y-150351747D01*
X66866107Y-150337133D01*
X66887151Y-150324520D01*
X66909329Y-150314030D01*
X66932429Y-150305765D01*
X66956227Y-150299804D01*
X66980496Y-150296204D01*
X67005000Y-150295000D01*
X68255000Y-150295000D01*
X68279504Y-150296204D01*
X68279504Y-150296204D01*
G37*
D12*
X67630000Y-151007500D03*
D11*
G36*
X68279504Y-147321204D02*
G01*
X68303773Y-147324804D01*
X68327571Y-147330765D01*
X68350671Y-147339030D01*
X68372849Y-147349520D01*
X68393893Y-147362133D01*
X68413598Y-147376747D01*
X68431777Y-147393223D01*
X68448253Y-147411402D01*
X68462867Y-147431107D01*
X68475480Y-147452151D01*
X68485970Y-147474329D01*
X68494235Y-147497429D01*
X68500196Y-147521227D01*
X68503796Y-147545496D01*
X68505000Y-147570000D01*
X68505000Y-148495000D01*
X68503796Y-148519504D01*
X68500196Y-148543773D01*
X68494235Y-148567571D01*
X68485970Y-148590671D01*
X68475480Y-148612849D01*
X68462867Y-148633893D01*
X68448253Y-148653598D01*
X68431777Y-148671777D01*
X68413598Y-148688253D01*
X68393893Y-148702867D01*
X68372849Y-148715480D01*
X68350671Y-148725970D01*
X68327571Y-148734235D01*
X68303773Y-148740196D01*
X68279504Y-148743796D01*
X68255000Y-148745000D01*
X67005000Y-148745000D01*
X66980496Y-148743796D01*
X66956227Y-148740196D01*
X66932429Y-148734235D01*
X66909329Y-148725970D01*
X66887151Y-148715480D01*
X66866107Y-148702867D01*
X66846402Y-148688253D01*
X66828223Y-148671777D01*
X66811747Y-148653598D01*
X66797133Y-148633893D01*
X66784520Y-148612849D01*
X66774030Y-148590671D01*
X66765765Y-148567571D01*
X66759804Y-148543773D01*
X66756204Y-148519504D01*
X66755000Y-148495000D01*
X66755000Y-147570000D01*
X66756204Y-147545496D01*
X66759804Y-147521227D01*
X66765765Y-147497429D01*
X66774030Y-147474329D01*
X66784520Y-147452151D01*
X66797133Y-147431107D01*
X66811747Y-147411402D01*
X66828223Y-147393223D01*
X66846402Y-147376747D01*
X66866107Y-147362133D01*
X66887151Y-147349520D01*
X66909329Y-147339030D01*
X66932429Y-147330765D01*
X66956227Y-147324804D01*
X66980496Y-147321204D01*
X67005000Y-147320000D01*
X68255000Y-147320000D01*
X68279504Y-147321204D01*
X68279504Y-147321204D01*
G37*
D12*
X67630000Y-148032500D03*
D11*
G36*
X85994505Y-136931204D02*
G01*
X86018773Y-136934804D01*
X86042572Y-136940765D01*
X86065671Y-136949030D01*
X86087850Y-136959520D01*
X86108893Y-136972132D01*
X86128599Y-136986747D01*
X86146777Y-137003223D01*
X86163253Y-137021401D01*
X86177868Y-137041107D01*
X86190480Y-137062150D01*
X86200970Y-137084329D01*
X86209235Y-137107428D01*
X86215196Y-137131227D01*
X86218796Y-137155495D01*
X86220000Y-137179999D01*
X86220000Y-137830001D01*
X86218796Y-137854505D01*
X86215196Y-137878773D01*
X86209235Y-137902572D01*
X86200970Y-137925671D01*
X86190480Y-137947850D01*
X86177868Y-137968893D01*
X86163253Y-137988599D01*
X86146777Y-138006777D01*
X86128599Y-138023253D01*
X86108893Y-138037868D01*
X86087850Y-138050480D01*
X86065671Y-138060970D01*
X86042572Y-138069235D01*
X86018773Y-138075196D01*
X85994505Y-138078796D01*
X85970001Y-138080000D01*
X85069999Y-138080000D01*
X85045495Y-138078796D01*
X85021227Y-138075196D01*
X84997428Y-138069235D01*
X84974329Y-138060970D01*
X84952150Y-138050480D01*
X84931107Y-138037868D01*
X84911401Y-138023253D01*
X84893223Y-138006777D01*
X84876747Y-137988599D01*
X84862132Y-137968893D01*
X84849520Y-137947850D01*
X84839030Y-137925671D01*
X84830765Y-137902572D01*
X84824804Y-137878773D01*
X84821204Y-137854505D01*
X84820000Y-137830001D01*
X84820000Y-137179999D01*
X84821204Y-137155495D01*
X84824804Y-137131227D01*
X84830765Y-137107428D01*
X84839030Y-137084329D01*
X84849520Y-137062150D01*
X84862132Y-137041107D01*
X84876747Y-137021401D01*
X84893223Y-137003223D01*
X84911401Y-136986747D01*
X84931107Y-136972132D01*
X84952150Y-136959520D01*
X84974329Y-136949030D01*
X84997428Y-136940765D01*
X85021227Y-136934804D01*
X85045495Y-136931204D01*
X85069999Y-136930000D01*
X85970001Y-136930000D01*
X85994505Y-136931204D01*
X85994505Y-136931204D01*
G37*
D13*
X85520000Y-137505000D03*
D11*
G36*
X85994505Y-138981204D02*
G01*
X86018773Y-138984804D01*
X86042572Y-138990765D01*
X86065671Y-138999030D01*
X86087850Y-139009520D01*
X86108893Y-139022132D01*
X86128599Y-139036747D01*
X86146777Y-139053223D01*
X86163253Y-139071401D01*
X86177868Y-139091107D01*
X86190480Y-139112150D01*
X86200970Y-139134329D01*
X86209235Y-139157428D01*
X86215196Y-139181227D01*
X86218796Y-139205495D01*
X86220000Y-139229999D01*
X86220000Y-139880001D01*
X86218796Y-139904505D01*
X86215196Y-139928773D01*
X86209235Y-139952572D01*
X86200970Y-139975671D01*
X86190480Y-139997850D01*
X86177868Y-140018893D01*
X86163253Y-140038599D01*
X86146777Y-140056777D01*
X86128599Y-140073253D01*
X86108893Y-140087868D01*
X86087850Y-140100480D01*
X86065671Y-140110970D01*
X86042572Y-140119235D01*
X86018773Y-140125196D01*
X85994505Y-140128796D01*
X85970001Y-140130000D01*
X85069999Y-140130000D01*
X85045495Y-140128796D01*
X85021227Y-140125196D01*
X84997428Y-140119235D01*
X84974329Y-140110970D01*
X84952150Y-140100480D01*
X84931107Y-140087868D01*
X84911401Y-140073253D01*
X84893223Y-140056777D01*
X84876747Y-140038599D01*
X84862132Y-140018893D01*
X84849520Y-139997850D01*
X84839030Y-139975671D01*
X84830765Y-139952572D01*
X84824804Y-139928773D01*
X84821204Y-139904505D01*
X84820000Y-139880001D01*
X84820000Y-139229999D01*
X84821204Y-139205495D01*
X84824804Y-139181227D01*
X84830765Y-139157428D01*
X84839030Y-139134329D01*
X84849520Y-139112150D01*
X84862132Y-139091107D01*
X84876747Y-139071401D01*
X84893223Y-139053223D01*
X84911401Y-139036747D01*
X84931107Y-139022132D01*
X84952150Y-139009520D01*
X84974329Y-138999030D01*
X84997428Y-138990765D01*
X85021227Y-138984804D01*
X85045495Y-138981204D01*
X85069999Y-138980000D01*
X85970001Y-138980000D01*
X85994505Y-138981204D01*
X85994505Y-138981204D01*
G37*
D13*
X85520000Y-139555000D03*
D11*
G36*
X118504505Y-143983204D02*
G01*
X118528773Y-143986804D01*
X118552572Y-143992765D01*
X118575671Y-144001030D01*
X118597850Y-144011520D01*
X118618893Y-144024132D01*
X118638599Y-144038747D01*
X118656777Y-144055223D01*
X118673253Y-144073401D01*
X118687868Y-144093107D01*
X118700480Y-144114150D01*
X118710970Y-144136329D01*
X118719235Y-144159428D01*
X118725196Y-144183227D01*
X118728796Y-144207495D01*
X118730000Y-144231999D01*
X118730000Y-144882001D01*
X118728796Y-144906505D01*
X118725196Y-144930773D01*
X118719235Y-144954572D01*
X118710970Y-144977671D01*
X118700480Y-144999850D01*
X118687868Y-145020893D01*
X118673253Y-145040599D01*
X118656777Y-145058777D01*
X118638599Y-145075253D01*
X118618893Y-145089868D01*
X118597850Y-145102480D01*
X118575671Y-145112970D01*
X118552572Y-145121235D01*
X118528773Y-145127196D01*
X118504505Y-145130796D01*
X118480001Y-145132000D01*
X117579999Y-145132000D01*
X117555495Y-145130796D01*
X117531227Y-145127196D01*
X117507428Y-145121235D01*
X117484329Y-145112970D01*
X117462150Y-145102480D01*
X117441107Y-145089868D01*
X117421401Y-145075253D01*
X117403223Y-145058777D01*
X117386747Y-145040599D01*
X117372132Y-145020893D01*
X117359520Y-144999850D01*
X117349030Y-144977671D01*
X117340765Y-144954572D01*
X117334804Y-144930773D01*
X117331204Y-144906505D01*
X117330000Y-144882001D01*
X117330000Y-144231999D01*
X117331204Y-144207495D01*
X117334804Y-144183227D01*
X117340765Y-144159428D01*
X117349030Y-144136329D01*
X117359520Y-144114150D01*
X117372132Y-144093107D01*
X117386747Y-144073401D01*
X117403223Y-144055223D01*
X117421401Y-144038747D01*
X117441107Y-144024132D01*
X117462150Y-144011520D01*
X117484329Y-144001030D01*
X117507428Y-143992765D01*
X117531227Y-143986804D01*
X117555495Y-143983204D01*
X117579999Y-143982000D01*
X118480001Y-143982000D01*
X118504505Y-143983204D01*
X118504505Y-143983204D01*
G37*
D13*
X118030000Y-144557000D03*
D11*
G36*
X118504505Y-141933204D02*
G01*
X118528773Y-141936804D01*
X118552572Y-141942765D01*
X118575671Y-141951030D01*
X118597850Y-141961520D01*
X118618893Y-141974132D01*
X118638599Y-141988747D01*
X118656777Y-142005223D01*
X118673253Y-142023401D01*
X118687868Y-142043107D01*
X118700480Y-142064150D01*
X118710970Y-142086329D01*
X118719235Y-142109428D01*
X118725196Y-142133227D01*
X118728796Y-142157495D01*
X118730000Y-142181999D01*
X118730000Y-142832001D01*
X118728796Y-142856505D01*
X118725196Y-142880773D01*
X118719235Y-142904572D01*
X118710970Y-142927671D01*
X118700480Y-142949850D01*
X118687868Y-142970893D01*
X118673253Y-142990599D01*
X118656777Y-143008777D01*
X118638599Y-143025253D01*
X118618893Y-143039868D01*
X118597850Y-143052480D01*
X118575671Y-143062970D01*
X118552572Y-143071235D01*
X118528773Y-143077196D01*
X118504505Y-143080796D01*
X118480001Y-143082000D01*
X117579999Y-143082000D01*
X117555495Y-143080796D01*
X117531227Y-143077196D01*
X117507428Y-143071235D01*
X117484329Y-143062970D01*
X117462150Y-143052480D01*
X117441107Y-143039868D01*
X117421401Y-143025253D01*
X117403223Y-143008777D01*
X117386747Y-142990599D01*
X117372132Y-142970893D01*
X117359520Y-142949850D01*
X117349030Y-142927671D01*
X117340765Y-142904572D01*
X117334804Y-142880773D01*
X117331204Y-142856505D01*
X117330000Y-142832001D01*
X117330000Y-142181999D01*
X117331204Y-142157495D01*
X117334804Y-142133227D01*
X117340765Y-142109428D01*
X117349030Y-142086329D01*
X117359520Y-142064150D01*
X117372132Y-142043107D01*
X117386747Y-142023401D01*
X117403223Y-142005223D01*
X117421401Y-141988747D01*
X117441107Y-141974132D01*
X117462150Y-141961520D01*
X117484329Y-141951030D01*
X117507428Y-141942765D01*
X117531227Y-141936804D01*
X117555495Y-141933204D01*
X117579999Y-141932000D01*
X118480001Y-141932000D01*
X118504505Y-141933204D01*
X118504505Y-141933204D01*
G37*
D13*
X118030000Y-142507000D03*
D11*
G36*
X116494505Y-143963204D02*
G01*
X116518773Y-143966804D01*
X116542572Y-143972765D01*
X116565671Y-143981030D01*
X116587850Y-143991520D01*
X116608893Y-144004132D01*
X116628599Y-144018747D01*
X116646777Y-144035223D01*
X116663253Y-144053401D01*
X116677868Y-144073107D01*
X116690480Y-144094150D01*
X116700970Y-144116329D01*
X116709235Y-144139428D01*
X116715196Y-144163227D01*
X116718796Y-144187495D01*
X116720000Y-144211999D01*
X116720000Y-144862001D01*
X116718796Y-144886505D01*
X116715196Y-144910773D01*
X116709235Y-144934572D01*
X116700970Y-144957671D01*
X116690480Y-144979850D01*
X116677868Y-145000893D01*
X116663253Y-145020599D01*
X116646777Y-145038777D01*
X116628599Y-145055253D01*
X116608893Y-145069868D01*
X116587850Y-145082480D01*
X116565671Y-145092970D01*
X116542572Y-145101235D01*
X116518773Y-145107196D01*
X116494505Y-145110796D01*
X116470001Y-145112000D01*
X115569999Y-145112000D01*
X115545495Y-145110796D01*
X115521227Y-145107196D01*
X115497428Y-145101235D01*
X115474329Y-145092970D01*
X115452150Y-145082480D01*
X115431107Y-145069868D01*
X115411401Y-145055253D01*
X115393223Y-145038777D01*
X115376747Y-145020599D01*
X115362132Y-145000893D01*
X115349520Y-144979850D01*
X115339030Y-144957671D01*
X115330765Y-144934572D01*
X115324804Y-144910773D01*
X115321204Y-144886505D01*
X115320000Y-144862001D01*
X115320000Y-144211999D01*
X115321204Y-144187495D01*
X115324804Y-144163227D01*
X115330765Y-144139428D01*
X115339030Y-144116329D01*
X115349520Y-144094150D01*
X115362132Y-144073107D01*
X115376747Y-144053401D01*
X115393223Y-144035223D01*
X115411401Y-144018747D01*
X115431107Y-144004132D01*
X115452150Y-143991520D01*
X115474329Y-143981030D01*
X115497428Y-143972765D01*
X115521227Y-143966804D01*
X115545495Y-143963204D01*
X115569999Y-143962000D01*
X116470001Y-143962000D01*
X116494505Y-143963204D01*
X116494505Y-143963204D01*
G37*
D13*
X116020000Y-144537000D03*
D11*
G36*
X116494505Y-141913204D02*
G01*
X116518773Y-141916804D01*
X116542572Y-141922765D01*
X116565671Y-141931030D01*
X116587850Y-141941520D01*
X116608893Y-141954132D01*
X116628599Y-141968747D01*
X116646777Y-141985223D01*
X116663253Y-142003401D01*
X116677868Y-142023107D01*
X116690480Y-142044150D01*
X116700970Y-142066329D01*
X116709235Y-142089428D01*
X116715196Y-142113227D01*
X116718796Y-142137495D01*
X116720000Y-142161999D01*
X116720000Y-142812001D01*
X116718796Y-142836505D01*
X116715196Y-142860773D01*
X116709235Y-142884572D01*
X116700970Y-142907671D01*
X116690480Y-142929850D01*
X116677868Y-142950893D01*
X116663253Y-142970599D01*
X116646777Y-142988777D01*
X116628599Y-143005253D01*
X116608893Y-143019868D01*
X116587850Y-143032480D01*
X116565671Y-143042970D01*
X116542572Y-143051235D01*
X116518773Y-143057196D01*
X116494505Y-143060796D01*
X116470001Y-143062000D01*
X115569999Y-143062000D01*
X115545495Y-143060796D01*
X115521227Y-143057196D01*
X115497428Y-143051235D01*
X115474329Y-143042970D01*
X115452150Y-143032480D01*
X115431107Y-143019868D01*
X115411401Y-143005253D01*
X115393223Y-142988777D01*
X115376747Y-142970599D01*
X115362132Y-142950893D01*
X115349520Y-142929850D01*
X115339030Y-142907671D01*
X115330765Y-142884572D01*
X115324804Y-142860773D01*
X115321204Y-142836505D01*
X115320000Y-142812001D01*
X115320000Y-142161999D01*
X115321204Y-142137495D01*
X115324804Y-142113227D01*
X115330765Y-142089428D01*
X115339030Y-142066329D01*
X115349520Y-142044150D01*
X115362132Y-142023107D01*
X115376747Y-142003401D01*
X115393223Y-141985223D01*
X115411401Y-141968747D01*
X115431107Y-141954132D01*
X115452150Y-141941520D01*
X115474329Y-141931030D01*
X115497428Y-141922765D01*
X115521227Y-141916804D01*
X115545495Y-141913204D01*
X115569999Y-141912000D01*
X116470001Y-141912000D01*
X116494505Y-141913204D01*
X116494505Y-141913204D01*
G37*
D13*
X116020000Y-142487000D03*
D11*
G36*
X79274505Y-135189204D02*
G01*
X79298773Y-135192804D01*
X79322572Y-135198765D01*
X79345671Y-135207030D01*
X79367850Y-135217520D01*
X79388893Y-135230132D01*
X79408599Y-135244747D01*
X79426777Y-135261223D01*
X79443253Y-135279401D01*
X79457868Y-135299107D01*
X79470480Y-135320150D01*
X79480970Y-135342329D01*
X79489235Y-135365428D01*
X79495196Y-135389227D01*
X79498796Y-135413495D01*
X79500000Y-135437999D01*
X79500000Y-136088001D01*
X79498796Y-136112505D01*
X79495196Y-136136773D01*
X79489235Y-136160572D01*
X79480970Y-136183671D01*
X79470480Y-136205850D01*
X79457868Y-136226893D01*
X79443253Y-136246599D01*
X79426777Y-136264777D01*
X79408599Y-136281253D01*
X79388893Y-136295868D01*
X79367850Y-136308480D01*
X79345671Y-136318970D01*
X79322572Y-136327235D01*
X79298773Y-136333196D01*
X79274505Y-136336796D01*
X79250001Y-136338000D01*
X78349999Y-136338000D01*
X78325495Y-136336796D01*
X78301227Y-136333196D01*
X78277428Y-136327235D01*
X78254329Y-136318970D01*
X78232150Y-136308480D01*
X78211107Y-136295868D01*
X78191401Y-136281253D01*
X78173223Y-136264777D01*
X78156747Y-136246599D01*
X78142132Y-136226893D01*
X78129520Y-136205850D01*
X78119030Y-136183671D01*
X78110765Y-136160572D01*
X78104804Y-136136773D01*
X78101204Y-136112505D01*
X78100000Y-136088001D01*
X78100000Y-135437999D01*
X78101204Y-135413495D01*
X78104804Y-135389227D01*
X78110765Y-135365428D01*
X78119030Y-135342329D01*
X78129520Y-135320150D01*
X78142132Y-135299107D01*
X78156747Y-135279401D01*
X78173223Y-135261223D01*
X78191401Y-135244747D01*
X78211107Y-135230132D01*
X78232150Y-135217520D01*
X78254329Y-135207030D01*
X78277428Y-135198765D01*
X78301227Y-135192804D01*
X78325495Y-135189204D01*
X78349999Y-135188000D01*
X79250001Y-135188000D01*
X79274505Y-135189204D01*
X79274505Y-135189204D01*
G37*
D13*
X78800000Y-135763000D03*
D11*
G36*
X79274505Y-137239204D02*
G01*
X79298773Y-137242804D01*
X79322572Y-137248765D01*
X79345671Y-137257030D01*
X79367850Y-137267520D01*
X79388893Y-137280132D01*
X79408599Y-137294747D01*
X79426777Y-137311223D01*
X79443253Y-137329401D01*
X79457868Y-137349107D01*
X79470480Y-137370150D01*
X79480970Y-137392329D01*
X79489235Y-137415428D01*
X79495196Y-137439227D01*
X79498796Y-137463495D01*
X79500000Y-137487999D01*
X79500000Y-138138001D01*
X79498796Y-138162505D01*
X79495196Y-138186773D01*
X79489235Y-138210572D01*
X79480970Y-138233671D01*
X79470480Y-138255850D01*
X79457868Y-138276893D01*
X79443253Y-138296599D01*
X79426777Y-138314777D01*
X79408599Y-138331253D01*
X79388893Y-138345868D01*
X79367850Y-138358480D01*
X79345671Y-138368970D01*
X79322572Y-138377235D01*
X79298773Y-138383196D01*
X79274505Y-138386796D01*
X79250001Y-138388000D01*
X78349999Y-138388000D01*
X78325495Y-138386796D01*
X78301227Y-138383196D01*
X78277428Y-138377235D01*
X78254329Y-138368970D01*
X78232150Y-138358480D01*
X78211107Y-138345868D01*
X78191401Y-138331253D01*
X78173223Y-138314777D01*
X78156747Y-138296599D01*
X78142132Y-138276893D01*
X78129520Y-138255850D01*
X78119030Y-138233671D01*
X78110765Y-138210572D01*
X78104804Y-138186773D01*
X78101204Y-138162505D01*
X78100000Y-138138001D01*
X78100000Y-137487999D01*
X78101204Y-137463495D01*
X78104804Y-137439227D01*
X78110765Y-137415428D01*
X78119030Y-137392329D01*
X78129520Y-137370150D01*
X78142132Y-137349107D01*
X78156747Y-137329401D01*
X78173223Y-137311223D01*
X78191401Y-137294747D01*
X78211107Y-137280132D01*
X78232150Y-137267520D01*
X78254329Y-137257030D01*
X78277428Y-137248765D01*
X78301227Y-137242804D01*
X78325495Y-137239204D01*
X78349999Y-137238000D01*
X79250001Y-137238000D01*
X79274505Y-137239204D01*
X79274505Y-137239204D01*
G37*
D13*
X78800000Y-137813000D03*
D11*
G36*
X77274505Y-135189204D02*
G01*
X77298773Y-135192804D01*
X77322572Y-135198765D01*
X77345671Y-135207030D01*
X77367850Y-135217520D01*
X77388893Y-135230132D01*
X77408599Y-135244747D01*
X77426777Y-135261223D01*
X77443253Y-135279401D01*
X77457868Y-135299107D01*
X77470480Y-135320150D01*
X77480970Y-135342329D01*
X77489235Y-135365428D01*
X77495196Y-135389227D01*
X77498796Y-135413495D01*
X77500000Y-135437999D01*
X77500000Y-136088001D01*
X77498796Y-136112505D01*
X77495196Y-136136773D01*
X77489235Y-136160572D01*
X77480970Y-136183671D01*
X77470480Y-136205850D01*
X77457868Y-136226893D01*
X77443253Y-136246599D01*
X77426777Y-136264777D01*
X77408599Y-136281253D01*
X77388893Y-136295868D01*
X77367850Y-136308480D01*
X77345671Y-136318970D01*
X77322572Y-136327235D01*
X77298773Y-136333196D01*
X77274505Y-136336796D01*
X77250001Y-136338000D01*
X76349999Y-136338000D01*
X76325495Y-136336796D01*
X76301227Y-136333196D01*
X76277428Y-136327235D01*
X76254329Y-136318970D01*
X76232150Y-136308480D01*
X76211107Y-136295868D01*
X76191401Y-136281253D01*
X76173223Y-136264777D01*
X76156747Y-136246599D01*
X76142132Y-136226893D01*
X76129520Y-136205850D01*
X76119030Y-136183671D01*
X76110765Y-136160572D01*
X76104804Y-136136773D01*
X76101204Y-136112505D01*
X76100000Y-136088001D01*
X76100000Y-135437999D01*
X76101204Y-135413495D01*
X76104804Y-135389227D01*
X76110765Y-135365428D01*
X76119030Y-135342329D01*
X76129520Y-135320150D01*
X76142132Y-135299107D01*
X76156747Y-135279401D01*
X76173223Y-135261223D01*
X76191401Y-135244747D01*
X76211107Y-135230132D01*
X76232150Y-135217520D01*
X76254329Y-135207030D01*
X76277428Y-135198765D01*
X76301227Y-135192804D01*
X76325495Y-135189204D01*
X76349999Y-135188000D01*
X77250001Y-135188000D01*
X77274505Y-135189204D01*
X77274505Y-135189204D01*
G37*
D13*
X76800000Y-135763000D03*
D11*
G36*
X77274505Y-137239204D02*
G01*
X77298773Y-137242804D01*
X77322572Y-137248765D01*
X77345671Y-137257030D01*
X77367850Y-137267520D01*
X77388893Y-137280132D01*
X77408599Y-137294747D01*
X77426777Y-137311223D01*
X77443253Y-137329401D01*
X77457868Y-137349107D01*
X77470480Y-137370150D01*
X77480970Y-137392329D01*
X77489235Y-137415428D01*
X77495196Y-137439227D01*
X77498796Y-137463495D01*
X77500000Y-137487999D01*
X77500000Y-138138001D01*
X77498796Y-138162505D01*
X77495196Y-138186773D01*
X77489235Y-138210572D01*
X77480970Y-138233671D01*
X77470480Y-138255850D01*
X77457868Y-138276893D01*
X77443253Y-138296599D01*
X77426777Y-138314777D01*
X77408599Y-138331253D01*
X77388893Y-138345868D01*
X77367850Y-138358480D01*
X77345671Y-138368970D01*
X77322572Y-138377235D01*
X77298773Y-138383196D01*
X77274505Y-138386796D01*
X77250001Y-138388000D01*
X76349999Y-138388000D01*
X76325495Y-138386796D01*
X76301227Y-138383196D01*
X76277428Y-138377235D01*
X76254329Y-138368970D01*
X76232150Y-138358480D01*
X76211107Y-138345868D01*
X76191401Y-138331253D01*
X76173223Y-138314777D01*
X76156747Y-138296599D01*
X76142132Y-138276893D01*
X76129520Y-138255850D01*
X76119030Y-138233671D01*
X76110765Y-138210572D01*
X76104804Y-138186773D01*
X76101204Y-138162505D01*
X76100000Y-138138001D01*
X76100000Y-137487999D01*
X76101204Y-137463495D01*
X76104804Y-137439227D01*
X76110765Y-137415428D01*
X76119030Y-137392329D01*
X76129520Y-137370150D01*
X76142132Y-137349107D01*
X76156747Y-137329401D01*
X76173223Y-137311223D01*
X76191401Y-137294747D01*
X76211107Y-137280132D01*
X76232150Y-137267520D01*
X76254329Y-137257030D01*
X76277428Y-137248765D01*
X76301227Y-137242804D01*
X76325495Y-137239204D01*
X76349999Y-137238000D01*
X77250001Y-137238000D01*
X77274505Y-137239204D01*
X77274505Y-137239204D01*
G37*
D13*
X76800000Y-137813000D03*
D11*
G36*
X115494505Y-130701204D02*
G01*
X115518773Y-130704804D01*
X115542572Y-130710765D01*
X115565671Y-130719030D01*
X115587850Y-130729520D01*
X115608893Y-130742132D01*
X115628599Y-130756747D01*
X115646777Y-130773223D01*
X115663253Y-130791401D01*
X115677868Y-130811107D01*
X115690480Y-130832150D01*
X115700970Y-130854329D01*
X115709235Y-130877428D01*
X115715196Y-130901227D01*
X115718796Y-130925495D01*
X115720000Y-130949999D01*
X115720000Y-131850001D01*
X115718796Y-131874505D01*
X115715196Y-131898773D01*
X115709235Y-131922572D01*
X115700970Y-131945671D01*
X115690480Y-131967850D01*
X115677868Y-131988893D01*
X115663253Y-132008599D01*
X115646777Y-132026777D01*
X115628599Y-132043253D01*
X115608893Y-132057868D01*
X115587850Y-132070480D01*
X115565671Y-132080970D01*
X115542572Y-132089235D01*
X115518773Y-132095196D01*
X115494505Y-132098796D01*
X115470001Y-132100000D01*
X114819999Y-132100000D01*
X114795495Y-132098796D01*
X114771227Y-132095196D01*
X114747428Y-132089235D01*
X114724329Y-132080970D01*
X114702150Y-132070480D01*
X114681107Y-132057868D01*
X114661401Y-132043253D01*
X114643223Y-132026777D01*
X114626747Y-132008599D01*
X114612132Y-131988893D01*
X114599520Y-131967850D01*
X114589030Y-131945671D01*
X114580765Y-131922572D01*
X114574804Y-131898773D01*
X114571204Y-131874505D01*
X114570000Y-131850001D01*
X114570000Y-130949999D01*
X114571204Y-130925495D01*
X114574804Y-130901227D01*
X114580765Y-130877428D01*
X114589030Y-130854329D01*
X114599520Y-130832150D01*
X114612132Y-130811107D01*
X114626747Y-130791401D01*
X114643223Y-130773223D01*
X114661401Y-130756747D01*
X114681107Y-130742132D01*
X114702150Y-130729520D01*
X114724329Y-130719030D01*
X114747428Y-130710765D01*
X114771227Y-130704804D01*
X114795495Y-130701204D01*
X114819999Y-130700000D01*
X115470001Y-130700000D01*
X115494505Y-130701204D01*
X115494505Y-130701204D01*
G37*
D13*
X115145000Y-131400000D03*
D11*
G36*
X117544505Y-130701204D02*
G01*
X117568773Y-130704804D01*
X117592572Y-130710765D01*
X117615671Y-130719030D01*
X117637850Y-130729520D01*
X117658893Y-130742132D01*
X117678599Y-130756747D01*
X117696777Y-130773223D01*
X117713253Y-130791401D01*
X117727868Y-130811107D01*
X117740480Y-130832150D01*
X117750970Y-130854329D01*
X117759235Y-130877428D01*
X117765196Y-130901227D01*
X117768796Y-130925495D01*
X117770000Y-130949999D01*
X117770000Y-131850001D01*
X117768796Y-131874505D01*
X117765196Y-131898773D01*
X117759235Y-131922572D01*
X117750970Y-131945671D01*
X117740480Y-131967850D01*
X117727868Y-131988893D01*
X117713253Y-132008599D01*
X117696777Y-132026777D01*
X117678599Y-132043253D01*
X117658893Y-132057868D01*
X117637850Y-132070480D01*
X117615671Y-132080970D01*
X117592572Y-132089235D01*
X117568773Y-132095196D01*
X117544505Y-132098796D01*
X117520001Y-132100000D01*
X116869999Y-132100000D01*
X116845495Y-132098796D01*
X116821227Y-132095196D01*
X116797428Y-132089235D01*
X116774329Y-132080970D01*
X116752150Y-132070480D01*
X116731107Y-132057868D01*
X116711401Y-132043253D01*
X116693223Y-132026777D01*
X116676747Y-132008599D01*
X116662132Y-131988893D01*
X116649520Y-131967850D01*
X116639030Y-131945671D01*
X116630765Y-131922572D01*
X116624804Y-131898773D01*
X116621204Y-131874505D01*
X116620000Y-131850001D01*
X116620000Y-130949999D01*
X116621204Y-130925495D01*
X116624804Y-130901227D01*
X116630765Y-130877428D01*
X116639030Y-130854329D01*
X116649520Y-130832150D01*
X116662132Y-130811107D01*
X116676747Y-130791401D01*
X116693223Y-130773223D01*
X116711401Y-130756747D01*
X116731107Y-130742132D01*
X116752150Y-130729520D01*
X116774329Y-130719030D01*
X116797428Y-130710765D01*
X116821227Y-130704804D01*
X116845495Y-130701204D01*
X116869999Y-130700000D01*
X117520001Y-130700000D01*
X117544505Y-130701204D01*
X117544505Y-130701204D01*
G37*
D13*
X117195000Y-131400000D03*
D11*
G36*
X119774505Y-130671204D02*
G01*
X119798773Y-130674804D01*
X119822572Y-130680765D01*
X119845671Y-130689030D01*
X119867850Y-130699520D01*
X119888893Y-130712132D01*
X119908599Y-130726747D01*
X119926777Y-130743223D01*
X119943253Y-130761401D01*
X119957868Y-130781107D01*
X119970480Y-130802150D01*
X119980970Y-130824329D01*
X119989235Y-130847428D01*
X119995196Y-130871227D01*
X119998796Y-130895495D01*
X120000000Y-130919999D01*
X120000000Y-131820001D01*
X119998796Y-131844505D01*
X119995196Y-131868773D01*
X119989235Y-131892572D01*
X119980970Y-131915671D01*
X119970480Y-131937850D01*
X119957868Y-131958893D01*
X119943253Y-131978599D01*
X119926777Y-131996777D01*
X119908599Y-132013253D01*
X119888893Y-132027868D01*
X119867850Y-132040480D01*
X119845671Y-132050970D01*
X119822572Y-132059235D01*
X119798773Y-132065196D01*
X119774505Y-132068796D01*
X119750001Y-132070000D01*
X119099999Y-132070000D01*
X119075495Y-132068796D01*
X119051227Y-132065196D01*
X119027428Y-132059235D01*
X119004329Y-132050970D01*
X118982150Y-132040480D01*
X118961107Y-132027868D01*
X118941401Y-132013253D01*
X118923223Y-131996777D01*
X118906747Y-131978599D01*
X118892132Y-131958893D01*
X118879520Y-131937850D01*
X118869030Y-131915671D01*
X118860765Y-131892572D01*
X118854804Y-131868773D01*
X118851204Y-131844505D01*
X118850000Y-131820001D01*
X118850000Y-130919999D01*
X118851204Y-130895495D01*
X118854804Y-130871227D01*
X118860765Y-130847428D01*
X118869030Y-130824329D01*
X118879520Y-130802150D01*
X118892132Y-130781107D01*
X118906747Y-130761401D01*
X118923223Y-130743223D01*
X118941401Y-130726747D01*
X118961107Y-130712132D01*
X118982150Y-130699520D01*
X119004329Y-130689030D01*
X119027428Y-130680765D01*
X119051227Y-130674804D01*
X119075495Y-130671204D01*
X119099999Y-130670000D01*
X119750001Y-130670000D01*
X119774505Y-130671204D01*
X119774505Y-130671204D01*
G37*
D13*
X119425000Y-131370000D03*
D11*
G36*
X121824505Y-130671204D02*
G01*
X121848773Y-130674804D01*
X121872572Y-130680765D01*
X121895671Y-130689030D01*
X121917850Y-130699520D01*
X121938893Y-130712132D01*
X121958599Y-130726747D01*
X121976777Y-130743223D01*
X121993253Y-130761401D01*
X122007868Y-130781107D01*
X122020480Y-130802150D01*
X122030970Y-130824329D01*
X122039235Y-130847428D01*
X122045196Y-130871227D01*
X122048796Y-130895495D01*
X122050000Y-130919999D01*
X122050000Y-131820001D01*
X122048796Y-131844505D01*
X122045196Y-131868773D01*
X122039235Y-131892572D01*
X122030970Y-131915671D01*
X122020480Y-131937850D01*
X122007868Y-131958893D01*
X121993253Y-131978599D01*
X121976777Y-131996777D01*
X121958599Y-132013253D01*
X121938893Y-132027868D01*
X121917850Y-132040480D01*
X121895671Y-132050970D01*
X121872572Y-132059235D01*
X121848773Y-132065196D01*
X121824505Y-132068796D01*
X121800001Y-132070000D01*
X121149999Y-132070000D01*
X121125495Y-132068796D01*
X121101227Y-132065196D01*
X121077428Y-132059235D01*
X121054329Y-132050970D01*
X121032150Y-132040480D01*
X121011107Y-132027868D01*
X120991401Y-132013253D01*
X120973223Y-131996777D01*
X120956747Y-131978599D01*
X120942132Y-131958893D01*
X120929520Y-131937850D01*
X120919030Y-131915671D01*
X120910765Y-131892572D01*
X120904804Y-131868773D01*
X120901204Y-131844505D01*
X120900000Y-131820001D01*
X120900000Y-130919999D01*
X120901204Y-130895495D01*
X120904804Y-130871227D01*
X120910765Y-130847428D01*
X120919030Y-130824329D01*
X120929520Y-130802150D01*
X120942132Y-130781107D01*
X120956747Y-130761401D01*
X120973223Y-130743223D01*
X120991401Y-130726747D01*
X121011107Y-130712132D01*
X121032150Y-130699520D01*
X121054329Y-130689030D01*
X121077428Y-130680765D01*
X121101227Y-130674804D01*
X121125495Y-130671204D01*
X121149999Y-130670000D01*
X121800001Y-130670000D01*
X121824505Y-130671204D01*
X121824505Y-130671204D01*
G37*
D13*
X121475000Y-131370000D03*
D14*
X109922000Y-155118000D03*
X110872000Y-153118000D03*
X108972000Y-153118000D03*
D15*
X67510000Y-125650000D03*
D11*
G36*
X65710000Y-126800000D02*
G01*
X65710000Y-124500000D01*
X69310000Y-125100000D01*
X69310000Y-126200000D01*
X65710000Y-126800000D01*
X65710000Y-126800000D01*
G37*
D15*
X73310000Y-125650000D03*
D11*
G36*
X75110000Y-124500000D02*
G01*
X75110000Y-126800000D01*
X71510000Y-126200000D01*
X71510000Y-125100000D01*
X75110000Y-124500000D01*
X75110000Y-124500000D01*
G37*
G36*
X65579504Y-132006204D02*
G01*
X65603773Y-132009804D01*
X65627571Y-132015765D01*
X65650671Y-132024030D01*
X65672849Y-132034520D01*
X65693893Y-132047133D01*
X65713598Y-132061747D01*
X65731777Y-132078223D01*
X65748253Y-132096402D01*
X65762867Y-132116107D01*
X65775480Y-132137151D01*
X65785970Y-132159329D01*
X65794235Y-132182429D01*
X65800196Y-132206227D01*
X65803796Y-132230496D01*
X65805000Y-132255000D01*
X65805000Y-133505000D01*
X65803796Y-133529504D01*
X65800196Y-133553773D01*
X65794235Y-133577571D01*
X65785970Y-133600671D01*
X65775480Y-133622849D01*
X65762867Y-133643893D01*
X65748253Y-133663598D01*
X65731777Y-133681777D01*
X65713598Y-133698253D01*
X65693893Y-133712867D01*
X65672849Y-133725480D01*
X65650671Y-133735970D01*
X65627571Y-133744235D01*
X65603773Y-133750196D01*
X65579504Y-133753796D01*
X65555000Y-133755000D01*
X64805000Y-133755000D01*
X64780496Y-133753796D01*
X64756227Y-133750196D01*
X64732429Y-133744235D01*
X64709329Y-133735970D01*
X64687151Y-133725480D01*
X64666107Y-133712867D01*
X64646402Y-133698253D01*
X64628223Y-133681777D01*
X64611747Y-133663598D01*
X64597133Y-133643893D01*
X64584520Y-133622849D01*
X64574030Y-133600671D01*
X64565765Y-133577571D01*
X64559804Y-133553773D01*
X64556204Y-133529504D01*
X64555000Y-133505000D01*
X64555000Y-132255000D01*
X64556204Y-132230496D01*
X64559804Y-132206227D01*
X64565765Y-132182429D01*
X64574030Y-132159329D01*
X64584520Y-132137151D01*
X64597133Y-132116107D01*
X64611747Y-132096402D01*
X64628223Y-132078223D01*
X64646402Y-132061747D01*
X64666107Y-132047133D01*
X64687151Y-132034520D01*
X64709329Y-132024030D01*
X64732429Y-132015765D01*
X64756227Y-132009804D01*
X64780496Y-132006204D01*
X64805000Y-132005000D01*
X65555000Y-132005000D01*
X65579504Y-132006204D01*
X65579504Y-132006204D01*
G37*
D16*
X65180000Y-132880000D03*
D11*
G36*
X68379504Y-132006204D02*
G01*
X68403773Y-132009804D01*
X68427571Y-132015765D01*
X68450671Y-132024030D01*
X68472849Y-132034520D01*
X68493893Y-132047133D01*
X68513598Y-132061747D01*
X68531777Y-132078223D01*
X68548253Y-132096402D01*
X68562867Y-132116107D01*
X68575480Y-132137151D01*
X68585970Y-132159329D01*
X68594235Y-132182429D01*
X68600196Y-132206227D01*
X68603796Y-132230496D01*
X68605000Y-132255000D01*
X68605000Y-133505000D01*
X68603796Y-133529504D01*
X68600196Y-133553773D01*
X68594235Y-133577571D01*
X68585970Y-133600671D01*
X68575480Y-133622849D01*
X68562867Y-133643893D01*
X68548253Y-133663598D01*
X68531777Y-133681777D01*
X68513598Y-133698253D01*
X68493893Y-133712867D01*
X68472849Y-133725480D01*
X68450671Y-133735970D01*
X68427571Y-133744235D01*
X68403773Y-133750196D01*
X68379504Y-133753796D01*
X68355000Y-133755000D01*
X67605000Y-133755000D01*
X67580496Y-133753796D01*
X67556227Y-133750196D01*
X67532429Y-133744235D01*
X67509329Y-133735970D01*
X67487151Y-133725480D01*
X67466107Y-133712867D01*
X67446402Y-133698253D01*
X67428223Y-133681777D01*
X67411747Y-133663598D01*
X67397133Y-133643893D01*
X67384520Y-133622849D01*
X67374030Y-133600671D01*
X67365765Y-133577571D01*
X67359804Y-133553773D01*
X67356204Y-133529504D01*
X67355000Y-133505000D01*
X67355000Y-132255000D01*
X67356204Y-132230496D01*
X67359804Y-132206227D01*
X67365765Y-132182429D01*
X67374030Y-132159329D01*
X67384520Y-132137151D01*
X67397133Y-132116107D01*
X67411747Y-132096402D01*
X67428223Y-132078223D01*
X67446402Y-132061747D01*
X67466107Y-132047133D01*
X67487151Y-132034520D01*
X67509329Y-132024030D01*
X67532429Y-132015765D01*
X67556227Y-132009804D01*
X67580496Y-132006204D01*
X67605000Y-132005000D01*
X68355000Y-132005000D01*
X68379504Y-132006204D01*
X68379504Y-132006204D01*
G37*
D16*
X67980000Y-132880000D03*
D11*
G36*
X66234505Y-134761204D02*
G01*
X66258773Y-134764804D01*
X66282572Y-134770765D01*
X66305671Y-134779030D01*
X66327850Y-134789520D01*
X66348893Y-134802132D01*
X66368599Y-134816747D01*
X66386777Y-134833223D01*
X66403253Y-134851401D01*
X66417868Y-134871107D01*
X66430480Y-134892150D01*
X66440970Y-134914329D01*
X66449235Y-134937428D01*
X66455196Y-134961227D01*
X66458796Y-134985495D01*
X66460000Y-135009999D01*
X66460000Y-135910001D01*
X66458796Y-135934505D01*
X66455196Y-135958773D01*
X66449235Y-135982572D01*
X66440970Y-136005671D01*
X66430480Y-136027850D01*
X66417868Y-136048893D01*
X66403253Y-136068599D01*
X66386777Y-136086777D01*
X66368599Y-136103253D01*
X66348893Y-136117868D01*
X66327850Y-136130480D01*
X66305671Y-136140970D01*
X66282572Y-136149235D01*
X66258773Y-136155196D01*
X66234505Y-136158796D01*
X66210001Y-136160000D01*
X65559999Y-136160000D01*
X65535495Y-136158796D01*
X65511227Y-136155196D01*
X65487428Y-136149235D01*
X65464329Y-136140970D01*
X65442150Y-136130480D01*
X65421107Y-136117868D01*
X65401401Y-136103253D01*
X65383223Y-136086777D01*
X65366747Y-136068599D01*
X65352132Y-136048893D01*
X65339520Y-136027850D01*
X65329030Y-136005671D01*
X65320765Y-135982572D01*
X65314804Y-135958773D01*
X65311204Y-135934505D01*
X65310000Y-135910001D01*
X65310000Y-135009999D01*
X65311204Y-134985495D01*
X65314804Y-134961227D01*
X65320765Y-134937428D01*
X65329030Y-134914329D01*
X65339520Y-134892150D01*
X65352132Y-134871107D01*
X65366747Y-134851401D01*
X65383223Y-134833223D01*
X65401401Y-134816747D01*
X65421107Y-134802132D01*
X65442150Y-134789520D01*
X65464329Y-134779030D01*
X65487428Y-134770765D01*
X65511227Y-134764804D01*
X65535495Y-134761204D01*
X65559999Y-134760000D01*
X66210001Y-134760000D01*
X66234505Y-134761204D01*
X66234505Y-134761204D01*
G37*
D13*
X65885000Y-135460000D03*
D11*
G36*
X64184505Y-134761204D02*
G01*
X64208773Y-134764804D01*
X64232572Y-134770765D01*
X64255671Y-134779030D01*
X64277850Y-134789520D01*
X64298893Y-134802132D01*
X64318599Y-134816747D01*
X64336777Y-134833223D01*
X64353253Y-134851401D01*
X64367868Y-134871107D01*
X64380480Y-134892150D01*
X64390970Y-134914329D01*
X64399235Y-134937428D01*
X64405196Y-134961227D01*
X64408796Y-134985495D01*
X64410000Y-135009999D01*
X64410000Y-135910001D01*
X64408796Y-135934505D01*
X64405196Y-135958773D01*
X64399235Y-135982572D01*
X64390970Y-136005671D01*
X64380480Y-136027850D01*
X64367868Y-136048893D01*
X64353253Y-136068599D01*
X64336777Y-136086777D01*
X64318599Y-136103253D01*
X64298893Y-136117868D01*
X64277850Y-136130480D01*
X64255671Y-136140970D01*
X64232572Y-136149235D01*
X64208773Y-136155196D01*
X64184505Y-136158796D01*
X64160001Y-136160000D01*
X63509999Y-136160000D01*
X63485495Y-136158796D01*
X63461227Y-136155196D01*
X63437428Y-136149235D01*
X63414329Y-136140970D01*
X63392150Y-136130480D01*
X63371107Y-136117868D01*
X63351401Y-136103253D01*
X63333223Y-136086777D01*
X63316747Y-136068599D01*
X63302132Y-136048893D01*
X63289520Y-136027850D01*
X63279030Y-136005671D01*
X63270765Y-135982572D01*
X63264804Y-135958773D01*
X63261204Y-135934505D01*
X63260000Y-135910001D01*
X63260000Y-135009999D01*
X63261204Y-134985495D01*
X63264804Y-134961227D01*
X63270765Y-134937428D01*
X63279030Y-134914329D01*
X63289520Y-134892150D01*
X63302132Y-134871107D01*
X63316747Y-134851401D01*
X63333223Y-134833223D01*
X63351401Y-134816747D01*
X63371107Y-134802132D01*
X63392150Y-134789520D01*
X63414329Y-134779030D01*
X63437428Y-134770765D01*
X63461227Y-134764804D01*
X63485495Y-134761204D01*
X63509999Y-134760000D01*
X64160001Y-134760000D01*
X64184505Y-134761204D01*
X64184505Y-134761204D01*
G37*
D13*
X63835000Y-135460000D03*
D11*
G36*
X66324505Y-143541204D02*
G01*
X66348773Y-143544804D01*
X66372572Y-143550765D01*
X66395671Y-143559030D01*
X66417850Y-143569520D01*
X66438893Y-143582132D01*
X66458599Y-143596747D01*
X66476777Y-143613223D01*
X66493253Y-143631401D01*
X66507868Y-143651107D01*
X66520480Y-143672150D01*
X66530970Y-143694329D01*
X66539235Y-143717428D01*
X66545196Y-143741227D01*
X66548796Y-143765495D01*
X66550000Y-143789999D01*
X66550000Y-144690001D01*
X66548796Y-144714505D01*
X66545196Y-144738773D01*
X66539235Y-144762572D01*
X66530970Y-144785671D01*
X66520480Y-144807850D01*
X66507868Y-144828893D01*
X66493253Y-144848599D01*
X66476777Y-144866777D01*
X66458599Y-144883253D01*
X66438893Y-144897868D01*
X66417850Y-144910480D01*
X66395671Y-144920970D01*
X66372572Y-144929235D01*
X66348773Y-144935196D01*
X66324505Y-144938796D01*
X66300001Y-144940000D01*
X65649999Y-144940000D01*
X65625495Y-144938796D01*
X65601227Y-144935196D01*
X65577428Y-144929235D01*
X65554329Y-144920970D01*
X65532150Y-144910480D01*
X65511107Y-144897868D01*
X65491401Y-144883253D01*
X65473223Y-144866777D01*
X65456747Y-144848599D01*
X65442132Y-144828893D01*
X65429520Y-144807850D01*
X65419030Y-144785671D01*
X65410765Y-144762572D01*
X65404804Y-144738773D01*
X65401204Y-144714505D01*
X65400000Y-144690001D01*
X65400000Y-143789999D01*
X65401204Y-143765495D01*
X65404804Y-143741227D01*
X65410765Y-143717428D01*
X65419030Y-143694329D01*
X65429520Y-143672150D01*
X65442132Y-143651107D01*
X65456747Y-143631401D01*
X65473223Y-143613223D01*
X65491401Y-143596747D01*
X65511107Y-143582132D01*
X65532150Y-143569520D01*
X65554329Y-143559030D01*
X65577428Y-143550765D01*
X65601227Y-143544804D01*
X65625495Y-143541204D01*
X65649999Y-143540000D01*
X66300001Y-143540000D01*
X66324505Y-143541204D01*
X66324505Y-143541204D01*
G37*
D13*
X65975000Y-144240000D03*
D11*
G36*
X64274505Y-143541204D02*
G01*
X64298773Y-143544804D01*
X64322572Y-143550765D01*
X64345671Y-143559030D01*
X64367850Y-143569520D01*
X64388893Y-143582132D01*
X64408599Y-143596747D01*
X64426777Y-143613223D01*
X64443253Y-143631401D01*
X64457868Y-143651107D01*
X64470480Y-143672150D01*
X64480970Y-143694329D01*
X64489235Y-143717428D01*
X64495196Y-143741227D01*
X64498796Y-143765495D01*
X64500000Y-143789999D01*
X64500000Y-144690001D01*
X64498796Y-144714505D01*
X64495196Y-144738773D01*
X64489235Y-144762572D01*
X64480970Y-144785671D01*
X64470480Y-144807850D01*
X64457868Y-144828893D01*
X64443253Y-144848599D01*
X64426777Y-144866777D01*
X64408599Y-144883253D01*
X64388893Y-144897868D01*
X64367850Y-144910480D01*
X64345671Y-144920970D01*
X64322572Y-144929235D01*
X64298773Y-144935196D01*
X64274505Y-144938796D01*
X64250001Y-144940000D01*
X63599999Y-144940000D01*
X63575495Y-144938796D01*
X63551227Y-144935196D01*
X63527428Y-144929235D01*
X63504329Y-144920970D01*
X63482150Y-144910480D01*
X63461107Y-144897868D01*
X63441401Y-144883253D01*
X63423223Y-144866777D01*
X63406747Y-144848599D01*
X63392132Y-144828893D01*
X63379520Y-144807850D01*
X63369030Y-144785671D01*
X63360765Y-144762572D01*
X63354804Y-144738773D01*
X63351204Y-144714505D01*
X63350000Y-144690001D01*
X63350000Y-143789999D01*
X63351204Y-143765495D01*
X63354804Y-143741227D01*
X63360765Y-143717428D01*
X63369030Y-143694329D01*
X63379520Y-143672150D01*
X63392132Y-143651107D01*
X63406747Y-143631401D01*
X63423223Y-143613223D01*
X63441401Y-143596747D01*
X63461107Y-143582132D01*
X63482150Y-143569520D01*
X63504329Y-143559030D01*
X63527428Y-143550765D01*
X63551227Y-143544804D01*
X63575495Y-143541204D01*
X63599999Y-143540000D01*
X64250001Y-143540000D01*
X64274505Y-143541204D01*
X64274505Y-143541204D01*
G37*
D13*
X63925000Y-144240000D03*
D11*
G36*
X66304505Y-141451204D02*
G01*
X66328773Y-141454804D01*
X66352572Y-141460765D01*
X66375671Y-141469030D01*
X66397850Y-141479520D01*
X66418893Y-141492132D01*
X66438599Y-141506747D01*
X66456777Y-141523223D01*
X66473253Y-141541401D01*
X66487868Y-141561107D01*
X66500480Y-141582150D01*
X66510970Y-141604329D01*
X66519235Y-141627428D01*
X66525196Y-141651227D01*
X66528796Y-141675495D01*
X66530000Y-141699999D01*
X66530000Y-142600001D01*
X66528796Y-142624505D01*
X66525196Y-142648773D01*
X66519235Y-142672572D01*
X66510970Y-142695671D01*
X66500480Y-142717850D01*
X66487868Y-142738893D01*
X66473253Y-142758599D01*
X66456777Y-142776777D01*
X66438599Y-142793253D01*
X66418893Y-142807868D01*
X66397850Y-142820480D01*
X66375671Y-142830970D01*
X66352572Y-142839235D01*
X66328773Y-142845196D01*
X66304505Y-142848796D01*
X66280001Y-142850000D01*
X65629999Y-142850000D01*
X65605495Y-142848796D01*
X65581227Y-142845196D01*
X65557428Y-142839235D01*
X65534329Y-142830970D01*
X65512150Y-142820480D01*
X65491107Y-142807868D01*
X65471401Y-142793253D01*
X65453223Y-142776777D01*
X65436747Y-142758599D01*
X65422132Y-142738893D01*
X65409520Y-142717850D01*
X65399030Y-142695671D01*
X65390765Y-142672572D01*
X65384804Y-142648773D01*
X65381204Y-142624505D01*
X65380000Y-142600001D01*
X65380000Y-141699999D01*
X65381204Y-141675495D01*
X65384804Y-141651227D01*
X65390765Y-141627428D01*
X65399030Y-141604329D01*
X65409520Y-141582150D01*
X65422132Y-141561107D01*
X65436747Y-141541401D01*
X65453223Y-141523223D01*
X65471401Y-141506747D01*
X65491107Y-141492132D01*
X65512150Y-141479520D01*
X65534329Y-141469030D01*
X65557428Y-141460765D01*
X65581227Y-141454804D01*
X65605495Y-141451204D01*
X65629999Y-141450000D01*
X66280001Y-141450000D01*
X66304505Y-141451204D01*
X66304505Y-141451204D01*
G37*
D13*
X65955000Y-142150000D03*
D11*
G36*
X64254505Y-141451204D02*
G01*
X64278773Y-141454804D01*
X64302572Y-141460765D01*
X64325671Y-141469030D01*
X64347850Y-141479520D01*
X64368893Y-141492132D01*
X64388599Y-141506747D01*
X64406777Y-141523223D01*
X64423253Y-141541401D01*
X64437868Y-141561107D01*
X64450480Y-141582150D01*
X64460970Y-141604329D01*
X64469235Y-141627428D01*
X64475196Y-141651227D01*
X64478796Y-141675495D01*
X64480000Y-141699999D01*
X64480000Y-142600001D01*
X64478796Y-142624505D01*
X64475196Y-142648773D01*
X64469235Y-142672572D01*
X64460970Y-142695671D01*
X64450480Y-142717850D01*
X64437868Y-142738893D01*
X64423253Y-142758599D01*
X64406777Y-142776777D01*
X64388599Y-142793253D01*
X64368893Y-142807868D01*
X64347850Y-142820480D01*
X64325671Y-142830970D01*
X64302572Y-142839235D01*
X64278773Y-142845196D01*
X64254505Y-142848796D01*
X64230001Y-142850000D01*
X63579999Y-142850000D01*
X63555495Y-142848796D01*
X63531227Y-142845196D01*
X63507428Y-142839235D01*
X63484329Y-142830970D01*
X63462150Y-142820480D01*
X63441107Y-142807868D01*
X63421401Y-142793253D01*
X63403223Y-142776777D01*
X63386747Y-142758599D01*
X63372132Y-142738893D01*
X63359520Y-142717850D01*
X63349030Y-142695671D01*
X63340765Y-142672572D01*
X63334804Y-142648773D01*
X63331204Y-142624505D01*
X63330000Y-142600001D01*
X63330000Y-141699999D01*
X63331204Y-141675495D01*
X63334804Y-141651227D01*
X63340765Y-141627428D01*
X63349030Y-141604329D01*
X63359520Y-141582150D01*
X63372132Y-141561107D01*
X63386747Y-141541401D01*
X63403223Y-141523223D01*
X63421401Y-141506747D01*
X63441107Y-141492132D01*
X63462150Y-141479520D01*
X63484329Y-141469030D01*
X63507428Y-141460765D01*
X63531227Y-141454804D01*
X63555495Y-141451204D01*
X63579999Y-141450000D01*
X64230001Y-141450000D01*
X64254505Y-141451204D01*
X64254505Y-141451204D01*
G37*
D13*
X63905000Y-142150000D03*
D11*
G36*
X74189504Y-159791204D02*
G01*
X74213773Y-159794804D01*
X74237571Y-159800765D01*
X74260671Y-159809030D01*
X74282849Y-159819520D01*
X74303893Y-159832133D01*
X74323598Y-159846747D01*
X74341777Y-159863223D01*
X74358253Y-159881402D01*
X74372867Y-159901107D01*
X74385480Y-159922151D01*
X74395970Y-159944329D01*
X74404235Y-159967429D01*
X74410196Y-159991227D01*
X74413796Y-160015496D01*
X74415000Y-160040000D01*
X74415000Y-160965000D01*
X74413796Y-160989504D01*
X74410196Y-161013773D01*
X74404235Y-161037571D01*
X74395970Y-161060671D01*
X74385480Y-161082849D01*
X74372867Y-161103893D01*
X74358253Y-161123598D01*
X74341777Y-161141777D01*
X74323598Y-161158253D01*
X74303893Y-161172867D01*
X74282849Y-161185480D01*
X74260671Y-161195970D01*
X74237571Y-161204235D01*
X74213773Y-161210196D01*
X74189504Y-161213796D01*
X74165000Y-161215000D01*
X72915000Y-161215000D01*
X72890496Y-161213796D01*
X72866227Y-161210196D01*
X72842429Y-161204235D01*
X72819329Y-161195970D01*
X72797151Y-161185480D01*
X72776107Y-161172867D01*
X72756402Y-161158253D01*
X72738223Y-161141777D01*
X72721747Y-161123598D01*
X72707133Y-161103893D01*
X72694520Y-161082849D01*
X72684030Y-161060671D01*
X72675765Y-161037571D01*
X72669804Y-161013773D01*
X72666204Y-160989504D01*
X72665000Y-160965000D01*
X72665000Y-160040000D01*
X72666204Y-160015496D01*
X72669804Y-159991227D01*
X72675765Y-159967429D01*
X72684030Y-159944329D01*
X72694520Y-159922151D01*
X72707133Y-159901107D01*
X72721747Y-159881402D01*
X72738223Y-159863223D01*
X72756402Y-159846747D01*
X72776107Y-159832133D01*
X72797151Y-159819520D01*
X72819329Y-159809030D01*
X72842429Y-159800765D01*
X72866227Y-159794804D01*
X72890496Y-159791204D01*
X72915000Y-159790000D01*
X74165000Y-159790000D01*
X74189504Y-159791204D01*
X74189504Y-159791204D01*
G37*
D12*
X73540000Y-160502500D03*
D11*
G36*
X74189504Y-162766204D02*
G01*
X74213773Y-162769804D01*
X74237571Y-162775765D01*
X74260671Y-162784030D01*
X74282849Y-162794520D01*
X74303893Y-162807133D01*
X74323598Y-162821747D01*
X74341777Y-162838223D01*
X74358253Y-162856402D01*
X74372867Y-162876107D01*
X74385480Y-162897151D01*
X74395970Y-162919329D01*
X74404235Y-162942429D01*
X74410196Y-162966227D01*
X74413796Y-162990496D01*
X74415000Y-163015000D01*
X74415000Y-163940000D01*
X74413796Y-163964504D01*
X74410196Y-163988773D01*
X74404235Y-164012571D01*
X74395970Y-164035671D01*
X74385480Y-164057849D01*
X74372867Y-164078893D01*
X74358253Y-164098598D01*
X74341777Y-164116777D01*
X74323598Y-164133253D01*
X74303893Y-164147867D01*
X74282849Y-164160480D01*
X74260671Y-164170970D01*
X74237571Y-164179235D01*
X74213773Y-164185196D01*
X74189504Y-164188796D01*
X74165000Y-164190000D01*
X72915000Y-164190000D01*
X72890496Y-164188796D01*
X72866227Y-164185196D01*
X72842429Y-164179235D01*
X72819329Y-164170970D01*
X72797151Y-164160480D01*
X72776107Y-164147867D01*
X72756402Y-164133253D01*
X72738223Y-164116777D01*
X72721747Y-164098598D01*
X72707133Y-164078893D01*
X72694520Y-164057849D01*
X72684030Y-164035671D01*
X72675765Y-164012571D01*
X72669804Y-163988773D01*
X72666204Y-163964504D01*
X72665000Y-163940000D01*
X72665000Y-163015000D01*
X72666204Y-162990496D01*
X72669804Y-162966227D01*
X72675765Y-162942429D01*
X72684030Y-162919329D01*
X72694520Y-162897151D01*
X72707133Y-162876107D01*
X72721747Y-162856402D01*
X72738223Y-162838223D01*
X72756402Y-162821747D01*
X72776107Y-162807133D01*
X72797151Y-162794520D01*
X72819329Y-162784030D01*
X72842429Y-162775765D01*
X72866227Y-162769804D01*
X72890496Y-162766204D01*
X72915000Y-162765000D01*
X74165000Y-162765000D01*
X74189504Y-162766204D01*
X74189504Y-162766204D01*
G37*
D12*
X73540000Y-163477500D03*
D11*
G36*
X90030779Y-129961144D02*
G01*
X90053834Y-129964563D01*
X90076443Y-129970227D01*
X90098387Y-129978079D01*
X90119457Y-129988044D01*
X90139448Y-130000026D01*
X90158168Y-130013910D01*
X90175438Y-130029562D01*
X90191090Y-130046832D01*
X90204974Y-130065552D01*
X90216956Y-130085543D01*
X90226921Y-130106613D01*
X90234773Y-130128557D01*
X90240437Y-130151166D01*
X90243856Y-130174221D01*
X90245000Y-130197500D01*
X90245000Y-130772500D01*
X90243856Y-130795779D01*
X90240437Y-130818834D01*
X90234773Y-130841443D01*
X90226921Y-130863387D01*
X90216956Y-130884457D01*
X90204974Y-130904448D01*
X90191090Y-130923168D01*
X90175438Y-130940438D01*
X90158168Y-130956090D01*
X90139448Y-130969974D01*
X90119457Y-130981956D01*
X90098387Y-130991921D01*
X90076443Y-130999773D01*
X90053834Y-131005437D01*
X90030779Y-131008856D01*
X90007500Y-131010000D01*
X89532500Y-131010000D01*
X89509221Y-131008856D01*
X89486166Y-131005437D01*
X89463557Y-130999773D01*
X89441613Y-130991921D01*
X89420543Y-130981956D01*
X89400552Y-130969974D01*
X89381832Y-130956090D01*
X89364562Y-130940438D01*
X89348910Y-130923168D01*
X89335026Y-130904448D01*
X89323044Y-130884457D01*
X89313079Y-130863387D01*
X89305227Y-130841443D01*
X89299563Y-130818834D01*
X89296144Y-130795779D01*
X89295000Y-130772500D01*
X89295000Y-130197500D01*
X89296144Y-130174221D01*
X89299563Y-130151166D01*
X89305227Y-130128557D01*
X89313079Y-130106613D01*
X89323044Y-130085543D01*
X89335026Y-130065552D01*
X89348910Y-130046832D01*
X89364562Y-130029562D01*
X89381832Y-130013910D01*
X89400552Y-130000026D01*
X89420543Y-129988044D01*
X89441613Y-129978079D01*
X89463557Y-129970227D01*
X89486166Y-129964563D01*
X89509221Y-129961144D01*
X89532500Y-129960000D01*
X90007500Y-129960000D01*
X90030779Y-129961144D01*
X90030779Y-129961144D01*
G37*
D17*
X89770000Y-130485000D03*
D11*
G36*
X90030779Y-131711144D02*
G01*
X90053834Y-131714563D01*
X90076443Y-131720227D01*
X90098387Y-131728079D01*
X90119457Y-131738044D01*
X90139448Y-131750026D01*
X90158168Y-131763910D01*
X90175438Y-131779562D01*
X90191090Y-131796832D01*
X90204974Y-131815552D01*
X90216956Y-131835543D01*
X90226921Y-131856613D01*
X90234773Y-131878557D01*
X90240437Y-131901166D01*
X90243856Y-131924221D01*
X90245000Y-131947500D01*
X90245000Y-132522500D01*
X90243856Y-132545779D01*
X90240437Y-132568834D01*
X90234773Y-132591443D01*
X90226921Y-132613387D01*
X90216956Y-132634457D01*
X90204974Y-132654448D01*
X90191090Y-132673168D01*
X90175438Y-132690438D01*
X90158168Y-132706090D01*
X90139448Y-132719974D01*
X90119457Y-132731956D01*
X90098387Y-132741921D01*
X90076443Y-132749773D01*
X90053834Y-132755437D01*
X90030779Y-132758856D01*
X90007500Y-132760000D01*
X89532500Y-132760000D01*
X89509221Y-132758856D01*
X89486166Y-132755437D01*
X89463557Y-132749773D01*
X89441613Y-132741921D01*
X89420543Y-132731956D01*
X89400552Y-132719974D01*
X89381832Y-132706090D01*
X89364562Y-132690438D01*
X89348910Y-132673168D01*
X89335026Y-132654448D01*
X89323044Y-132634457D01*
X89313079Y-132613387D01*
X89305227Y-132591443D01*
X89299563Y-132568834D01*
X89296144Y-132545779D01*
X89295000Y-132522500D01*
X89295000Y-131947500D01*
X89296144Y-131924221D01*
X89299563Y-131901166D01*
X89305227Y-131878557D01*
X89313079Y-131856613D01*
X89323044Y-131835543D01*
X89335026Y-131815552D01*
X89348910Y-131796832D01*
X89364562Y-131779562D01*
X89381832Y-131763910D01*
X89400552Y-131750026D01*
X89420543Y-131738044D01*
X89441613Y-131728079D01*
X89463557Y-131720227D01*
X89486166Y-131714563D01*
X89509221Y-131711144D01*
X89532500Y-131710000D01*
X90007500Y-131710000D01*
X90030779Y-131711144D01*
X90030779Y-131711144D01*
G37*
D17*
X89770000Y-132235000D03*
D11*
G36*
X88350779Y-129961144D02*
G01*
X88373834Y-129964563D01*
X88396443Y-129970227D01*
X88418387Y-129978079D01*
X88439457Y-129988044D01*
X88459448Y-130000026D01*
X88478168Y-130013910D01*
X88495438Y-130029562D01*
X88511090Y-130046832D01*
X88524974Y-130065552D01*
X88536956Y-130085543D01*
X88546921Y-130106613D01*
X88554773Y-130128557D01*
X88560437Y-130151166D01*
X88563856Y-130174221D01*
X88565000Y-130197500D01*
X88565000Y-130772500D01*
X88563856Y-130795779D01*
X88560437Y-130818834D01*
X88554773Y-130841443D01*
X88546921Y-130863387D01*
X88536956Y-130884457D01*
X88524974Y-130904448D01*
X88511090Y-130923168D01*
X88495438Y-130940438D01*
X88478168Y-130956090D01*
X88459448Y-130969974D01*
X88439457Y-130981956D01*
X88418387Y-130991921D01*
X88396443Y-130999773D01*
X88373834Y-131005437D01*
X88350779Y-131008856D01*
X88327500Y-131010000D01*
X87852500Y-131010000D01*
X87829221Y-131008856D01*
X87806166Y-131005437D01*
X87783557Y-130999773D01*
X87761613Y-130991921D01*
X87740543Y-130981956D01*
X87720552Y-130969974D01*
X87701832Y-130956090D01*
X87684562Y-130940438D01*
X87668910Y-130923168D01*
X87655026Y-130904448D01*
X87643044Y-130884457D01*
X87633079Y-130863387D01*
X87625227Y-130841443D01*
X87619563Y-130818834D01*
X87616144Y-130795779D01*
X87615000Y-130772500D01*
X87615000Y-130197500D01*
X87616144Y-130174221D01*
X87619563Y-130151166D01*
X87625227Y-130128557D01*
X87633079Y-130106613D01*
X87643044Y-130085543D01*
X87655026Y-130065552D01*
X87668910Y-130046832D01*
X87684562Y-130029562D01*
X87701832Y-130013910D01*
X87720552Y-130000026D01*
X87740543Y-129988044D01*
X87761613Y-129978079D01*
X87783557Y-129970227D01*
X87806166Y-129964563D01*
X87829221Y-129961144D01*
X87852500Y-129960000D01*
X88327500Y-129960000D01*
X88350779Y-129961144D01*
X88350779Y-129961144D01*
G37*
D17*
X88090000Y-130485000D03*
D11*
G36*
X88350779Y-131711144D02*
G01*
X88373834Y-131714563D01*
X88396443Y-131720227D01*
X88418387Y-131728079D01*
X88439457Y-131738044D01*
X88459448Y-131750026D01*
X88478168Y-131763910D01*
X88495438Y-131779562D01*
X88511090Y-131796832D01*
X88524974Y-131815552D01*
X88536956Y-131835543D01*
X88546921Y-131856613D01*
X88554773Y-131878557D01*
X88560437Y-131901166D01*
X88563856Y-131924221D01*
X88565000Y-131947500D01*
X88565000Y-132522500D01*
X88563856Y-132545779D01*
X88560437Y-132568834D01*
X88554773Y-132591443D01*
X88546921Y-132613387D01*
X88536956Y-132634457D01*
X88524974Y-132654448D01*
X88511090Y-132673168D01*
X88495438Y-132690438D01*
X88478168Y-132706090D01*
X88459448Y-132719974D01*
X88439457Y-132731956D01*
X88418387Y-132741921D01*
X88396443Y-132749773D01*
X88373834Y-132755437D01*
X88350779Y-132758856D01*
X88327500Y-132760000D01*
X87852500Y-132760000D01*
X87829221Y-132758856D01*
X87806166Y-132755437D01*
X87783557Y-132749773D01*
X87761613Y-132741921D01*
X87740543Y-132731956D01*
X87720552Y-132719974D01*
X87701832Y-132706090D01*
X87684562Y-132690438D01*
X87668910Y-132673168D01*
X87655026Y-132654448D01*
X87643044Y-132634457D01*
X87633079Y-132613387D01*
X87625227Y-132591443D01*
X87619563Y-132568834D01*
X87616144Y-132545779D01*
X87615000Y-132522500D01*
X87615000Y-131947500D01*
X87616144Y-131924221D01*
X87619563Y-131901166D01*
X87625227Y-131878557D01*
X87633079Y-131856613D01*
X87643044Y-131835543D01*
X87655026Y-131815552D01*
X87668910Y-131796832D01*
X87684562Y-131779562D01*
X87701832Y-131763910D01*
X87720552Y-131750026D01*
X87740543Y-131738044D01*
X87761613Y-131728079D01*
X87783557Y-131720227D01*
X87806166Y-131714563D01*
X87829221Y-131711144D01*
X87852500Y-131710000D01*
X88327500Y-131710000D01*
X88350779Y-131711144D01*
X88350779Y-131711144D01*
G37*
D17*
X88090000Y-132235000D03*
D11*
G36*
X83900779Y-129991144D02*
G01*
X83923834Y-129994563D01*
X83946443Y-130000227D01*
X83968387Y-130008079D01*
X83989457Y-130018044D01*
X84009448Y-130030026D01*
X84028168Y-130043910D01*
X84045438Y-130059562D01*
X84061090Y-130076832D01*
X84074974Y-130095552D01*
X84086956Y-130115543D01*
X84096921Y-130136613D01*
X84104773Y-130158557D01*
X84110437Y-130181166D01*
X84113856Y-130204221D01*
X84115000Y-130227500D01*
X84115000Y-130802500D01*
X84113856Y-130825779D01*
X84110437Y-130848834D01*
X84104773Y-130871443D01*
X84096921Y-130893387D01*
X84086956Y-130914457D01*
X84074974Y-130934448D01*
X84061090Y-130953168D01*
X84045438Y-130970438D01*
X84028168Y-130986090D01*
X84009448Y-130999974D01*
X83989457Y-131011956D01*
X83968387Y-131021921D01*
X83946443Y-131029773D01*
X83923834Y-131035437D01*
X83900779Y-131038856D01*
X83877500Y-131040000D01*
X83402500Y-131040000D01*
X83379221Y-131038856D01*
X83356166Y-131035437D01*
X83333557Y-131029773D01*
X83311613Y-131021921D01*
X83290543Y-131011956D01*
X83270552Y-130999974D01*
X83251832Y-130986090D01*
X83234562Y-130970438D01*
X83218910Y-130953168D01*
X83205026Y-130934448D01*
X83193044Y-130914457D01*
X83183079Y-130893387D01*
X83175227Y-130871443D01*
X83169563Y-130848834D01*
X83166144Y-130825779D01*
X83165000Y-130802500D01*
X83165000Y-130227500D01*
X83166144Y-130204221D01*
X83169563Y-130181166D01*
X83175227Y-130158557D01*
X83183079Y-130136613D01*
X83193044Y-130115543D01*
X83205026Y-130095552D01*
X83218910Y-130076832D01*
X83234562Y-130059562D01*
X83251832Y-130043910D01*
X83270552Y-130030026D01*
X83290543Y-130018044D01*
X83311613Y-130008079D01*
X83333557Y-130000227D01*
X83356166Y-129994563D01*
X83379221Y-129991144D01*
X83402500Y-129990000D01*
X83877500Y-129990000D01*
X83900779Y-129991144D01*
X83900779Y-129991144D01*
G37*
D17*
X83640000Y-130515000D03*
D11*
G36*
X83900779Y-131741144D02*
G01*
X83923834Y-131744563D01*
X83946443Y-131750227D01*
X83968387Y-131758079D01*
X83989457Y-131768044D01*
X84009448Y-131780026D01*
X84028168Y-131793910D01*
X84045438Y-131809562D01*
X84061090Y-131826832D01*
X84074974Y-131845552D01*
X84086956Y-131865543D01*
X84096921Y-131886613D01*
X84104773Y-131908557D01*
X84110437Y-131931166D01*
X84113856Y-131954221D01*
X84115000Y-131977500D01*
X84115000Y-132552500D01*
X84113856Y-132575779D01*
X84110437Y-132598834D01*
X84104773Y-132621443D01*
X84096921Y-132643387D01*
X84086956Y-132664457D01*
X84074974Y-132684448D01*
X84061090Y-132703168D01*
X84045438Y-132720438D01*
X84028168Y-132736090D01*
X84009448Y-132749974D01*
X83989457Y-132761956D01*
X83968387Y-132771921D01*
X83946443Y-132779773D01*
X83923834Y-132785437D01*
X83900779Y-132788856D01*
X83877500Y-132790000D01*
X83402500Y-132790000D01*
X83379221Y-132788856D01*
X83356166Y-132785437D01*
X83333557Y-132779773D01*
X83311613Y-132771921D01*
X83290543Y-132761956D01*
X83270552Y-132749974D01*
X83251832Y-132736090D01*
X83234562Y-132720438D01*
X83218910Y-132703168D01*
X83205026Y-132684448D01*
X83193044Y-132664457D01*
X83183079Y-132643387D01*
X83175227Y-132621443D01*
X83169563Y-132598834D01*
X83166144Y-132575779D01*
X83165000Y-132552500D01*
X83165000Y-131977500D01*
X83166144Y-131954221D01*
X83169563Y-131931166D01*
X83175227Y-131908557D01*
X83183079Y-131886613D01*
X83193044Y-131865543D01*
X83205026Y-131845552D01*
X83218910Y-131826832D01*
X83234562Y-131809562D01*
X83251832Y-131793910D01*
X83270552Y-131780026D01*
X83290543Y-131768044D01*
X83311613Y-131758079D01*
X83333557Y-131750227D01*
X83356166Y-131744563D01*
X83379221Y-131741144D01*
X83402500Y-131740000D01*
X83877500Y-131740000D01*
X83900779Y-131741144D01*
X83900779Y-131741144D01*
G37*
D17*
X83640000Y-132265000D03*
D11*
G36*
X88425779Y-125846144D02*
G01*
X88448834Y-125849563D01*
X88471443Y-125855227D01*
X88493387Y-125863079D01*
X88514457Y-125873044D01*
X88534448Y-125885026D01*
X88553168Y-125898910D01*
X88570438Y-125914562D01*
X88586090Y-125931832D01*
X88599974Y-125950552D01*
X88611956Y-125970543D01*
X88621921Y-125991613D01*
X88629773Y-126013557D01*
X88635437Y-126036166D01*
X88638856Y-126059221D01*
X88640000Y-126082500D01*
X88640000Y-126557500D01*
X88638856Y-126580779D01*
X88635437Y-126603834D01*
X88629773Y-126626443D01*
X88621921Y-126648387D01*
X88611956Y-126669457D01*
X88599974Y-126689448D01*
X88586090Y-126708168D01*
X88570438Y-126725438D01*
X88553168Y-126741090D01*
X88534448Y-126754974D01*
X88514457Y-126766956D01*
X88493387Y-126776921D01*
X88471443Y-126784773D01*
X88448834Y-126790437D01*
X88425779Y-126793856D01*
X88402500Y-126795000D01*
X87827500Y-126795000D01*
X87804221Y-126793856D01*
X87781166Y-126790437D01*
X87758557Y-126784773D01*
X87736613Y-126776921D01*
X87715543Y-126766956D01*
X87695552Y-126754974D01*
X87676832Y-126741090D01*
X87659562Y-126725438D01*
X87643910Y-126708168D01*
X87630026Y-126689448D01*
X87618044Y-126669457D01*
X87608079Y-126648387D01*
X87600227Y-126626443D01*
X87594563Y-126603834D01*
X87591144Y-126580779D01*
X87590000Y-126557500D01*
X87590000Y-126082500D01*
X87591144Y-126059221D01*
X87594563Y-126036166D01*
X87600227Y-126013557D01*
X87608079Y-125991613D01*
X87618044Y-125970543D01*
X87630026Y-125950552D01*
X87643910Y-125931832D01*
X87659562Y-125914562D01*
X87676832Y-125898910D01*
X87695552Y-125885026D01*
X87715543Y-125873044D01*
X87736613Y-125863079D01*
X87758557Y-125855227D01*
X87781166Y-125849563D01*
X87804221Y-125846144D01*
X87827500Y-125845000D01*
X88402500Y-125845000D01*
X88425779Y-125846144D01*
X88425779Y-125846144D01*
G37*
D17*
X88115000Y-126320000D03*
D11*
G36*
X90175779Y-125846144D02*
G01*
X90198834Y-125849563D01*
X90221443Y-125855227D01*
X90243387Y-125863079D01*
X90264457Y-125873044D01*
X90284448Y-125885026D01*
X90303168Y-125898910D01*
X90320438Y-125914562D01*
X90336090Y-125931832D01*
X90349974Y-125950552D01*
X90361956Y-125970543D01*
X90371921Y-125991613D01*
X90379773Y-126013557D01*
X90385437Y-126036166D01*
X90388856Y-126059221D01*
X90390000Y-126082500D01*
X90390000Y-126557500D01*
X90388856Y-126580779D01*
X90385437Y-126603834D01*
X90379773Y-126626443D01*
X90371921Y-126648387D01*
X90361956Y-126669457D01*
X90349974Y-126689448D01*
X90336090Y-126708168D01*
X90320438Y-126725438D01*
X90303168Y-126741090D01*
X90284448Y-126754974D01*
X90264457Y-126766956D01*
X90243387Y-126776921D01*
X90221443Y-126784773D01*
X90198834Y-126790437D01*
X90175779Y-126793856D01*
X90152500Y-126795000D01*
X89577500Y-126795000D01*
X89554221Y-126793856D01*
X89531166Y-126790437D01*
X89508557Y-126784773D01*
X89486613Y-126776921D01*
X89465543Y-126766956D01*
X89445552Y-126754974D01*
X89426832Y-126741090D01*
X89409562Y-126725438D01*
X89393910Y-126708168D01*
X89380026Y-126689448D01*
X89368044Y-126669457D01*
X89358079Y-126648387D01*
X89350227Y-126626443D01*
X89344563Y-126603834D01*
X89341144Y-126580779D01*
X89340000Y-126557500D01*
X89340000Y-126082500D01*
X89341144Y-126059221D01*
X89344563Y-126036166D01*
X89350227Y-126013557D01*
X89358079Y-125991613D01*
X89368044Y-125970543D01*
X89380026Y-125950552D01*
X89393910Y-125931832D01*
X89409562Y-125914562D01*
X89426832Y-125898910D01*
X89445552Y-125885026D01*
X89465543Y-125873044D01*
X89486613Y-125863079D01*
X89508557Y-125855227D01*
X89531166Y-125849563D01*
X89554221Y-125846144D01*
X89577500Y-125845000D01*
X90152500Y-125845000D01*
X90175779Y-125846144D01*
X90175779Y-125846144D01*
G37*
D17*
X89865000Y-126320000D03*
D11*
G36*
X86480779Y-125816144D02*
G01*
X86503834Y-125819563D01*
X86526443Y-125825227D01*
X86548387Y-125833079D01*
X86569457Y-125843044D01*
X86589448Y-125855026D01*
X86608168Y-125868910D01*
X86625438Y-125884562D01*
X86641090Y-125901832D01*
X86654974Y-125920552D01*
X86666956Y-125940543D01*
X86676921Y-125961613D01*
X86684773Y-125983557D01*
X86690437Y-126006166D01*
X86693856Y-126029221D01*
X86695000Y-126052500D01*
X86695000Y-126527500D01*
X86693856Y-126550779D01*
X86690437Y-126573834D01*
X86684773Y-126596443D01*
X86676921Y-126618387D01*
X86666956Y-126639457D01*
X86654974Y-126659448D01*
X86641090Y-126678168D01*
X86625438Y-126695438D01*
X86608168Y-126711090D01*
X86589448Y-126724974D01*
X86569457Y-126736956D01*
X86548387Y-126746921D01*
X86526443Y-126754773D01*
X86503834Y-126760437D01*
X86480779Y-126763856D01*
X86457500Y-126765000D01*
X85882500Y-126765000D01*
X85859221Y-126763856D01*
X85836166Y-126760437D01*
X85813557Y-126754773D01*
X85791613Y-126746921D01*
X85770543Y-126736956D01*
X85750552Y-126724974D01*
X85731832Y-126711090D01*
X85714562Y-126695438D01*
X85698910Y-126678168D01*
X85685026Y-126659448D01*
X85673044Y-126639457D01*
X85663079Y-126618387D01*
X85655227Y-126596443D01*
X85649563Y-126573834D01*
X85646144Y-126550779D01*
X85645000Y-126527500D01*
X85645000Y-126052500D01*
X85646144Y-126029221D01*
X85649563Y-126006166D01*
X85655227Y-125983557D01*
X85663079Y-125961613D01*
X85673044Y-125940543D01*
X85685026Y-125920552D01*
X85698910Y-125901832D01*
X85714562Y-125884562D01*
X85731832Y-125868910D01*
X85750552Y-125855026D01*
X85770543Y-125843044D01*
X85791613Y-125833079D01*
X85813557Y-125825227D01*
X85836166Y-125819563D01*
X85859221Y-125816144D01*
X85882500Y-125815000D01*
X86457500Y-125815000D01*
X86480779Y-125816144D01*
X86480779Y-125816144D01*
G37*
D17*
X86170000Y-126290000D03*
D11*
G36*
X84730779Y-125816144D02*
G01*
X84753834Y-125819563D01*
X84776443Y-125825227D01*
X84798387Y-125833079D01*
X84819457Y-125843044D01*
X84839448Y-125855026D01*
X84858168Y-125868910D01*
X84875438Y-125884562D01*
X84891090Y-125901832D01*
X84904974Y-125920552D01*
X84916956Y-125940543D01*
X84926921Y-125961613D01*
X84934773Y-125983557D01*
X84940437Y-126006166D01*
X84943856Y-126029221D01*
X84945000Y-126052500D01*
X84945000Y-126527500D01*
X84943856Y-126550779D01*
X84940437Y-126573834D01*
X84934773Y-126596443D01*
X84926921Y-126618387D01*
X84916956Y-126639457D01*
X84904974Y-126659448D01*
X84891090Y-126678168D01*
X84875438Y-126695438D01*
X84858168Y-126711090D01*
X84839448Y-126724974D01*
X84819457Y-126736956D01*
X84798387Y-126746921D01*
X84776443Y-126754773D01*
X84753834Y-126760437D01*
X84730779Y-126763856D01*
X84707500Y-126765000D01*
X84132500Y-126765000D01*
X84109221Y-126763856D01*
X84086166Y-126760437D01*
X84063557Y-126754773D01*
X84041613Y-126746921D01*
X84020543Y-126736956D01*
X84000552Y-126724974D01*
X83981832Y-126711090D01*
X83964562Y-126695438D01*
X83948910Y-126678168D01*
X83935026Y-126659448D01*
X83923044Y-126639457D01*
X83913079Y-126618387D01*
X83905227Y-126596443D01*
X83899563Y-126573834D01*
X83896144Y-126550779D01*
X83895000Y-126527500D01*
X83895000Y-126052500D01*
X83896144Y-126029221D01*
X83899563Y-126006166D01*
X83905227Y-125983557D01*
X83913079Y-125961613D01*
X83923044Y-125940543D01*
X83935026Y-125920552D01*
X83948910Y-125901832D01*
X83964562Y-125884562D01*
X83981832Y-125868910D01*
X84000552Y-125855026D01*
X84020543Y-125843044D01*
X84041613Y-125833079D01*
X84063557Y-125825227D01*
X84086166Y-125819563D01*
X84109221Y-125816144D01*
X84132500Y-125815000D01*
X84707500Y-125815000D01*
X84730779Y-125816144D01*
X84730779Y-125816144D01*
G37*
D17*
X84420000Y-126290000D03*
D11*
G36*
X84000779Y-138691144D02*
G01*
X84023834Y-138694563D01*
X84046443Y-138700227D01*
X84068387Y-138708079D01*
X84089457Y-138718044D01*
X84109448Y-138730026D01*
X84128168Y-138743910D01*
X84145438Y-138759562D01*
X84161090Y-138776832D01*
X84174974Y-138795552D01*
X84186956Y-138815543D01*
X84196921Y-138836613D01*
X84204773Y-138858557D01*
X84210437Y-138881166D01*
X84213856Y-138904221D01*
X84215000Y-138927500D01*
X84215000Y-139502500D01*
X84213856Y-139525779D01*
X84210437Y-139548834D01*
X84204773Y-139571443D01*
X84196921Y-139593387D01*
X84186956Y-139614457D01*
X84174974Y-139634448D01*
X84161090Y-139653168D01*
X84145438Y-139670438D01*
X84128168Y-139686090D01*
X84109448Y-139699974D01*
X84089457Y-139711956D01*
X84068387Y-139721921D01*
X84046443Y-139729773D01*
X84023834Y-139735437D01*
X84000779Y-139738856D01*
X83977500Y-139740000D01*
X83502500Y-139740000D01*
X83479221Y-139738856D01*
X83456166Y-139735437D01*
X83433557Y-139729773D01*
X83411613Y-139721921D01*
X83390543Y-139711956D01*
X83370552Y-139699974D01*
X83351832Y-139686090D01*
X83334562Y-139670438D01*
X83318910Y-139653168D01*
X83305026Y-139634448D01*
X83293044Y-139614457D01*
X83283079Y-139593387D01*
X83275227Y-139571443D01*
X83269563Y-139548834D01*
X83266144Y-139525779D01*
X83265000Y-139502500D01*
X83265000Y-138927500D01*
X83266144Y-138904221D01*
X83269563Y-138881166D01*
X83275227Y-138858557D01*
X83283079Y-138836613D01*
X83293044Y-138815543D01*
X83305026Y-138795552D01*
X83318910Y-138776832D01*
X83334562Y-138759562D01*
X83351832Y-138743910D01*
X83370552Y-138730026D01*
X83390543Y-138718044D01*
X83411613Y-138708079D01*
X83433557Y-138700227D01*
X83456166Y-138694563D01*
X83479221Y-138691144D01*
X83502500Y-138690000D01*
X83977500Y-138690000D01*
X84000779Y-138691144D01*
X84000779Y-138691144D01*
G37*
D17*
X83740000Y-139215000D03*
D11*
G36*
X84000779Y-136941144D02*
G01*
X84023834Y-136944563D01*
X84046443Y-136950227D01*
X84068387Y-136958079D01*
X84089457Y-136968044D01*
X84109448Y-136980026D01*
X84128168Y-136993910D01*
X84145438Y-137009562D01*
X84161090Y-137026832D01*
X84174974Y-137045552D01*
X84186956Y-137065543D01*
X84196921Y-137086613D01*
X84204773Y-137108557D01*
X84210437Y-137131166D01*
X84213856Y-137154221D01*
X84215000Y-137177500D01*
X84215000Y-137752500D01*
X84213856Y-137775779D01*
X84210437Y-137798834D01*
X84204773Y-137821443D01*
X84196921Y-137843387D01*
X84186956Y-137864457D01*
X84174974Y-137884448D01*
X84161090Y-137903168D01*
X84145438Y-137920438D01*
X84128168Y-137936090D01*
X84109448Y-137949974D01*
X84089457Y-137961956D01*
X84068387Y-137971921D01*
X84046443Y-137979773D01*
X84023834Y-137985437D01*
X84000779Y-137988856D01*
X83977500Y-137990000D01*
X83502500Y-137990000D01*
X83479221Y-137988856D01*
X83456166Y-137985437D01*
X83433557Y-137979773D01*
X83411613Y-137971921D01*
X83390543Y-137961956D01*
X83370552Y-137949974D01*
X83351832Y-137936090D01*
X83334562Y-137920438D01*
X83318910Y-137903168D01*
X83305026Y-137884448D01*
X83293044Y-137864457D01*
X83283079Y-137843387D01*
X83275227Y-137821443D01*
X83269563Y-137798834D01*
X83266144Y-137775779D01*
X83265000Y-137752500D01*
X83265000Y-137177500D01*
X83266144Y-137154221D01*
X83269563Y-137131166D01*
X83275227Y-137108557D01*
X83283079Y-137086613D01*
X83293044Y-137065543D01*
X83305026Y-137045552D01*
X83318910Y-137026832D01*
X83334562Y-137009562D01*
X83351832Y-136993910D01*
X83370552Y-136980026D01*
X83390543Y-136968044D01*
X83411613Y-136958079D01*
X83433557Y-136950227D01*
X83456166Y-136944563D01*
X83479221Y-136941144D01*
X83502500Y-136940000D01*
X83977500Y-136940000D01*
X84000779Y-136941144D01*
X84000779Y-136941144D01*
G37*
D17*
X83740000Y-137465000D03*
D11*
G36*
X138524505Y-58851204D02*
G01*
X138548773Y-58854804D01*
X138572572Y-58860765D01*
X138595671Y-58869030D01*
X138617850Y-58879520D01*
X138638893Y-58892132D01*
X138658599Y-58906747D01*
X138676777Y-58923223D01*
X138693253Y-58941401D01*
X138707868Y-58961107D01*
X138720480Y-58982150D01*
X138730970Y-59004329D01*
X138739235Y-59027428D01*
X138745196Y-59051227D01*
X138748796Y-59075495D01*
X138750000Y-59099999D01*
X138750000Y-59750001D01*
X138748796Y-59774505D01*
X138745196Y-59798773D01*
X138739235Y-59822572D01*
X138730970Y-59845671D01*
X138720480Y-59867850D01*
X138707868Y-59888893D01*
X138693253Y-59908599D01*
X138676777Y-59926777D01*
X138658599Y-59943253D01*
X138638893Y-59957868D01*
X138617850Y-59970480D01*
X138595671Y-59980970D01*
X138572572Y-59989235D01*
X138548773Y-59995196D01*
X138524505Y-59998796D01*
X138500001Y-60000000D01*
X137599999Y-60000000D01*
X137575495Y-59998796D01*
X137551227Y-59995196D01*
X137527428Y-59989235D01*
X137504329Y-59980970D01*
X137482150Y-59970480D01*
X137461107Y-59957868D01*
X137441401Y-59943253D01*
X137423223Y-59926777D01*
X137406747Y-59908599D01*
X137392132Y-59888893D01*
X137379520Y-59867850D01*
X137369030Y-59845671D01*
X137360765Y-59822572D01*
X137354804Y-59798773D01*
X137351204Y-59774505D01*
X137350000Y-59750001D01*
X137350000Y-59099999D01*
X137351204Y-59075495D01*
X137354804Y-59051227D01*
X137360765Y-59027428D01*
X137369030Y-59004329D01*
X137379520Y-58982150D01*
X137392132Y-58961107D01*
X137406747Y-58941401D01*
X137423223Y-58923223D01*
X137441401Y-58906747D01*
X137461107Y-58892132D01*
X137482150Y-58879520D01*
X137504329Y-58869030D01*
X137527428Y-58860765D01*
X137551227Y-58854804D01*
X137575495Y-58851204D01*
X137599999Y-58850000D01*
X138500001Y-58850000D01*
X138524505Y-58851204D01*
X138524505Y-58851204D01*
G37*
D13*
X138050000Y-59425000D03*
D11*
G36*
X138524505Y-60901204D02*
G01*
X138548773Y-60904804D01*
X138572572Y-60910765D01*
X138595671Y-60919030D01*
X138617850Y-60929520D01*
X138638893Y-60942132D01*
X138658599Y-60956747D01*
X138676777Y-60973223D01*
X138693253Y-60991401D01*
X138707868Y-61011107D01*
X138720480Y-61032150D01*
X138730970Y-61054329D01*
X138739235Y-61077428D01*
X138745196Y-61101227D01*
X138748796Y-61125495D01*
X138750000Y-61149999D01*
X138750000Y-61800001D01*
X138748796Y-61824505D01*
X138745196Y-61848773D01*
X138739235Y-61872572D01*
X138730970Y-61895671D01*
X138720480Y-61917850D01*
X138707868Y-61938893D01*
X138693253Y-61958599D01*
X138676777Y-61976777D01*
X138658599Y-61993253D01*
X138638893Y-62007868D01*
X138617850Y-62020480D01*
X138595671Y-62030970D01*
X138572572Y-62039235D01*
X138548773Y-62045196D01*
X138524505Y-62048796D01*
X138500001Y-62050000D01*
X137599999Y-62050000D01*
X137575495Y-62048796D01*
X137551227Y-62045196D01*
X137527428Y-62039235D01*
X137504329Y-62030970D01*
X137482150Y-62020480D01*
X137461107Y-62007868D01*
X137441401Y-61993253D01*
X137423223Y-61976777D01*
X137406747Y-61958599D01*
X137392132Y-61938893D01*
X137379520Y-61917850D01*
X137369030Y-61895671D01*
X137360765Y-61872572D01*
X137354804Y-61848773D01*
X137351204Y-61824505D01*
X137350000Y-61800001D01*
X137350000Y-61149999D01*
X137351204Y-61125495D01*
X137354804Y-61101227D01*
X137360765Y-61077428D01*
X137369030Y-61054329D01*
X137379520Y-61032150D01*
X137392132Y-61011107D01*
X137406747Y-60991401D01*
X137423223Y-60973223D01*
X137441401Y-60956747D01*
X137461107Y-60942132D01*
X137482150Y-60929520D01*
X137504329Y-60919030D01*
X137527428Y-60910765D01*
X137551227Y-60904804D01*
X137575495Y-60901204D01*
X137599999Y-60900000D01*
X138500001Y-60900000D01*
X138524505Y-60901204D01*
X138524505Y-60901204D01*
G37*
D13*
X138050000Y-61475000D03*
D11*
G36*
X138944505Y-83691204D02*
G01*
X138968773Y-83694804D01*
X138992572Y-83700765D01*
X139015671Y-83709030D01*
X139037850Y-83719520D01*
X139058893Y-83732132D01*
X139078599Y-83746747D01*
X139096777Y-83763223D01*
X139113253Y-83781401D01*
X139127868Y-83801107D01*
X139140480Y-83822150D01*
X139150970Y-83844329D01*
X139159235Y-83867428D01*
X139165196Y-83891227D01*
X139168796Y-83915495D01*
X139170000Y-83939999D01*
X139170000Y-84590001D01*
X139168796Y-84614505D01*
X139165196Y-84638773D01*
X139159235Y-84662572D01*
X139150970Y-84685671D01*
X139140480Y-84707850D01*
X139127868Y-84728893D01*
X139113253Y-84748599D01*
X139096777Y-84766777D01*
X139078599Y-84783253D01*
X139058893Y-84797868D01*
X139037850Y-84810480D01*
X139015671Y-84820970D01*
X138992572Y-84829235D01*
X138968773Y-84835196D01*
X138944505Y-84838796D01*
X138920001Y-84840000D01*
X138019999Y-84840000D01*
X137995495Y-84838796D01*
X137971227Y-84835196D01*
X137947428Y-84829235D01*
X137924329Y-84820970D01*
X137902150Y-84810480D01*
X137881107Y-84797868D01*
X137861401Y-84783253D01*
X137843223Y-84766777D01*
X137826747Y-84748599D01*
X137812132Y-84728893D01*
X137799520Y-84707850D01*
X137789030Y-84685671D01*
X137780765Y-84662572D01*
X137774804Y-84638773D01*
X137771204Y-84614505D01*
X137770000Y-84590001D01*
X137770000Y-83939999D01*
X137771204Y-83915495D01*
X137774804Y-83891227D01*
X137780765Y-83867428D01*
X137789030Y-83844329D01*
X137799520Y-83822150D01*
X137812132Y-83801107D01*
X137826747Y-83781401D01*
X137843223Y-83763223D01*
X137861401Y-83746747D01*
X137881107Y-83732132D01*
X137902150Y-83719520D01*
X137924329Y-83709030D01*
X137947428Y-83700765D01*
X137971227Y-83694804D01*
X137995495Y-83691204D01*
X138019999Y-83690000D01*
X138920001Y-83690000D01*
X138944505Y-83691204D01*
X138944505Y-83691204D01*
G37*
D13*
X138470000Y-84265000D03*
D11*
G36*
X138944505Y-85741204D02*
G01*
X138968773Y-85744804D01*
X138992572Y-85750765D01*
X139015671Y-85759030D01*
X139037850Y-85769520D01*
X139058893Y-85782132D01*
X139078599Y-85796747D01*
X139096777Y-85813223D01*
X139113253Y-85831401D01*
X139127868Y-85851107D01*
X139140480Y-85872150D01*
X139150970Y-85894329D01*
X139159235Y-85917428D01*
X139165196Y-85941227D01*
X139168796Y-85965495D01*
X139170000Y-85989999D01*
X139170000Y-86640001D01*
X139168796Y-86664505D01*
X139165196Y-86688773D01*
X139159235Y-86712572D01*
X139150970Y-86735671D01*
X139140480Y-86757850D01*
X139127868Y-86778893D01*
X139113253Y-86798599D01*
X139096777Y-86816777D01*
X139078599Y-86833253D01*
X139058893Y-86847868D01*
X139037850Y-86860480D01*
X139015671Y-86870970D01*
X138992572Y-86879235D01*
X138968773Y-86885196D01*
X138944505Y-86888796D01*
X138920001Y-86890000D01*
X138019999Y-86890000D01*
X137995495Y-86888796D01*
X137971227Y-86885196D01*
X137947428Y-86879235D01*
X137924329Y-86870970D01*
X137902150Y-86860480D01*
X137881107Y-86847868D01*
X137861401Y-86833253D01*
X137843223Y-86816777D01*
X137826747Y-86798599D01*
X137812132Y-86778893D01*
X137799520Y-86757850D01*
X137789030Y-86735671D01*
X137780765Y-86712572D01*
X137774804Y-86688773D01*
X137771204Y-86664505D01*
X137770000Y-86640001D01*
X137770000Y-85989999D01*
X137771204Y-85965495D01*
X137774804Y-85941227D01*
X137780765Y-85917428D01*
X137789030Y-85894329D01*
X137799520Y-85872150D01*
X137812132Y-85851107D01*
X137826747Y-85831401D01*
X137843223Y-85813223D01*
X137861401Y-85796747D01*
X137881107Y-85782132D01*
X137902150Y-85769520D01*
X137924329Y-85759030D01*
X137947428Y-85750765D01*
X137971227Y-85744804D01*
X137995495Y-85741204D01*
X138019999Y-85740000D01*
X138920001Y-85740000D01*
X138944505Y-85741204D01*
X138944505Y-85741204D01*
G37*
D13*
X138470000Y-86315000D03*
D11*
G36*
X138844505Y-110355204D02*
G01*
X138868773Y-110358804D01*
X138892572Y-110364765D01*
X138915671Y-110373030D01*
X138937850Y-110383520D01*
X138958893Y-110396132D01*
X138978599Y-110410747D01*
X138996777Y-110427223D01*
X139013253Y-110445401D01*
X139027868Y-110465107D01*
X139040480Y-110486150D01*
X139050970Y-110508329D01*
X139059235Y-110531428D01*
X139065196Y-110555227D01*
X139068796Y-110579495D01*
X139070000Y-110603999D01*
X139070000Y-111254001D01*
X139068796Y-111278505D01*
X139065196Y-111302773D01*
X139059235Y-111326572D01*
X139050970Y-111349671D01*
X139040480Y-111371850D01*
X139027868Y-111392893D01*
X139013253Y-111412599D01*
X138996777Y-111430777D01*
X138978599Y-111447253D01*
X138958893Y-111461868D01*
X138937850Y-111474480D01*
X138915671Y-111484970D01*
X138892572Y-111493235D01*
X138868773Y-111499196D01*
X138844505Y-111502796D01*
X138820001Y-111504000D01*
X137919999Y-111504000D01*
X137895495Y-111502796D01*
X137871227Y-111499196D01*
X137847428Y-111493235D01*
X137824329Y-111484970D01*
X137802150Y-111474480D01*
X137781107Y-111461868D01*
X137761401Y-111447253D01*
X137743223Y-111430777D01*
X137726747Y-111412599D01*
X137712132Y-111392893D01*
X137699520Y-111371850D01*
X137689030Y-111349671D01*
X137680765Y-111326572D01*
X137674804Y-111302773D01*
X137671204Y-111278505D01*
X137670000Y-111254001D01*
X137670000Y-110603999D01*
X137671204Y-110579495D01*
X137674804Y-110555227D01*
X137680765Y-110531428D01*
X137689030Y-110508329D01*
X137699520Y-110486150D01*
X137712132Y-110465107D01*
X137726747Y-110445401D01*
X137743223Y-110427223D01*
X137761401Y-110410747D01*
X137781107Y-110396132D01*
X137802150Y-110383520D01*
X137824329Y-110373030D01*
X137847428Y-110364765D01*
X137871227Y-110358804D01*
X137895495Y-110355204D01*
X137919999Y-110354000D01*
X138820001Y-110354000D01*
X138844505Y-110355204D01*
X138844505Y-110355204D01*
G37*
D13*
X138370000Y-110929000D03*
D11*
G36*
X138844505Y-112405204D02*
G01*
X138868773Y-112408804D01*
X138892572Y-112414765D01*
X138915671Y-112423030D01*
X138937850Y-112433520D01*
X138958893Y-112446132D01*
X138978599Y-112460747D01*
X138996777Y-112477223D01*
X139013253Y-112495401D01*
X139027868Y-112515107D01*
X139040480Y-112536150D01*
X139050970Y-112558329D01*
X139059235Y-112581428D01*
X139065196Y-112605227D01*
X139068796Y-112629495D01*
X139070000Y-112653999D01*
X139070000Y-113304001D01*
X139068796Y-113328505D01*
X139065196Y-113352773D01*
X139059235Y-113376572D01*
X139050970Y-113399671D01*
X139040480Y-113421850D01*
X139027868Y-113442893D01*
X139013253Y-113462599D01*
X138996777Y-113480777D01*
X138978599Y-113497253D01*
X138958893Y-113511868D01*
X138937850Y-113524480D01*
X138915671Y-113534970D01*
X138892572Y-113543235D01*
X138868773Y-113549196D01*
X138844505Y-113552796D01*
X138820001Y-113554000D01*
X137919999Y-113554000D01*
X137895495Y-113552796D01*
X137871227Y-113549196D01*
X137847428Y-113543235D01*
X137824329Y-113534970D01*
X137802150Y-113524480D01*
X137781107Y-113511868D01*
X137761401Y-113497253D01*
X137743223Y-113480777D01*
X137726747Y-113462599D01*
X137712132Y-113442893D01*
X137699520Y-113421850D01*
X137689030Y-113399671D01*
X137680765Y-113376572D01*
X137674804Y-113352773D01*
X137671204Y-113328505D01*
X137670000Y-113304001D01*
X137670000Y-112653999D01*
X137671204Y-112629495D01*
X137674804Y-112605227D01*
X137680765Y-112581428D01*
X137689030Y-112558329D01*
X137699520Y-112536150D01*
X137712132Y-112515107D01*
X137726747Y-112495401D01*
X137743223Y-112477223D01*
X137761401Y-112460747D01*
X137781107Y-112446132D01*
X137802150Y-112433520D01*
X137824329Y-112423030D01*
X137847428Y-112414765D01*
X137871227Y-112408804D01*
X137895495Y-112405204D01*
X137919999Y-112404000D01*
X138820001Y-112404000D01*
X138844505Y-112405204D01*
X138844505Y-112405204D01*
G37*
D13*
X138370000Y-112979000D03*
D11*
G36*
X138844505Y-137025204D02*
G01*
X138868773Y-137028804D01*
X138892572Y-137034765D01*
X138915671Y-137043030D01*
X138937850Y-137053520D01*
X138958893Y-137066132D01*
X138978599Y-137080747D01*
X138996777Y-137097223D01*
X139013253Y-137115401D01*
X139027868Y-137135107D01*
X139040480Y-137156150D01*
X139050970Y-137178329D01*
X139059235Y-137201428D01*
X139065196Y-137225227D01*
X139068796Y-137249495D01*
X139070000Y-137273999D01*
X139070000Y-137924001D01*
X139068796Y-137948505D01*
X139065196Y-137972773D01*
X139059235Y-137996572D01*
X139050970Y-138019671D01*
X139040480Y-138041850D01*
X139027868Y-138062893D01*
X139013253Y-138082599D01*
X138996777Y-138100777D01*
X138978599Y-138117253D01*
X138958893Y-138131868D01*
X138937850Y-138144480D01*
X138915671Y-138154970D01*
X138892572Y-138163235D01*
X138868773Y-138169196D01*
X138844505Y-138172796D01*
X138820001Y-138174000D01*
X137919999Y-138174000D01*
X137895495Y-138172796D01*
X137871227Y-138169196D01*
X137847428Y-138163235D01*
X137824329Y-138154970D01*
X137802150Y-138144480D01*
X137781107Y-138131868D01*
X137761401Y-138117253D01*
X137743223Y-138100777D01*
X137726747Y-138082599D01*
X137712132Y-138062893D01*
X137699520Y-138041850D01*
X137689030Y-138019671D01*
X137680765Y-137996572D01*
X137674804Y-137972773D01*
X137671204Y-137948505D01*
X137670000Y-137924001D01*
X137670000Y-137273999D01*
X137671204Y-137249495D01*
X137674804Y-137225227D01*
X137680765Y-137201428D01*
X137689030Y-137178329D01*
X137699520Y-137156150D01*
X137712132Y-137135107D01*
X137726747Y-137115401D01*
X137743223Y-137097223D01*
X137761401Y-137080747D01*
X137781107Y-137066132D01*
X137802150Y-137053520D01*
X137824329Y-137043030D01*
X137847428Y-137034765D01*
X137871227Y-137028804D01*
X137895495Y-137025204D01*
X137919999Y-137024000D01*
X138820001Y-137024000D01*
X138844505Y-137025204D01*
X138844505Y-137025204D01*
G37*
D13*
X138370000Y-137599000D03*
D11*
G36*
X138844505Y-139075204D02*
G01*
X138868773Y-139078804D01*
X138892572Y-139084765D01*
X138915671Y-139093030D01*
X138937850Y-139103520D01*
X138958893Y-139116132D01*
X138978599Y-139130747D01*
X138996777Y-139147223D01*
X139013253Y-139165401D01*
X139027868Y-139185107D01*
X139040480Y-139206150D01*
X139050970Y-139228329D01*
X139059235Y-139251428D01*
X139065196Y-139275227D01*
X139068796Y-139299495D01*
X139070000Y-139323999D01*
X139070000Y-139974001D01*
X139068796Y-139998505D01*
X139065196Y-140022773D01*
X139059235Y-140046572D01*
X139050970Y-140069671D01*
X139040480Y-140091850D01*
X139027868Y-140112893D01*
X139013253Y-140132599D01*
X138996777Y-140150777D01*
X138978599Y-140167253D01*
X138958893Y-140181868D01*
X138937850Y-140194480D01*
X138915671Y-140204970D01*
X138892572Y-140213235D01*
X138868773Y-140219196D01*
X138844505Y-140222796D01*
X138820001Y-140224000D01*
X137919999Y-140224000D01*
X137895495Y-140222796D01*
X137871227Y-140219196D01*
X137847428Y-140213235D01*
X137824329Y-140204970D01*
X137802150Y-140194480D01*
X137781107Y-140181868D01*
X137761401Y-140167253D01*
X137743223Y-140150777D01*
X137726747Y-140132599D01*
X137712132Y-140112893D01*
X137699520Y-140091850D01*
X137689030Y-140069671D01*
X137680765Y-140046572D01*
X137674804Y-140022773D01*
X137671204Y-139998505D01*
X137670000Y-139974001D01*
X137670000Y-139323999D01*
X137671204Y-139299495D01*
X137674804Y-139275227D01*
X137680765Y-139251428D01*
X137689030Y-139228329D01*
X137699520Y-139206150D01*
X137712132Y-139185107D01*
X137726747Y-139165401D01*
X137743223Y-139147223D01*
X137761401Y-139130747D01*
X137781107Y-139116132D01*
X137802150Y-139103520D01*
X137824329Y-139093030D01*
X137847428Y-139084765D01*
X137871227Y-139078804D01*
X137895495Y-139075204D01*
X137919999Y-139074000D01*
X138820001Y-139074000D01*
X138844505Y-139075204D01*
X138844505Y-139075204D01*
G37*
D13*
X138370000Y-139649000D03*
D11*
G36*
X138504505Y-57071204D02*
G01*
X138528773Y-57074804D01*
X138552572Y-57080765D01*
X138575671Y-57089030D01*
X138597850Y-57099520D01*
X138618893Y-57112132D01*
X138638599Y-57126747D01*
X138656777Y-57143223D01*
X138673253Y-57161401D01*
X138687868Y-57181107D01*
X138700480Y-57202150D01*
X138710970Y-57224329D01*
X138719235Y-57247428D01*
X138725196Y-57271227D01*
X138728796Y-57295495D01*
X138730000Y-57319999D01*
X138730000Y-57970001D01*
X138728796Y-57994505D01*
X138725196Y-58018773D01*
X138719235Y-58042572D01*
X138710970Y-58065671D01*
X138700480Y-58087850D01*
X138687868Y-58108893D01*
X138673253Y-58128599D01*
X138656777Y-58146777D01*
X138638599Y-58163253D01*
X138618893Y-58177868D01*
X138597850Y-58190480D01*
X138575671Y-58200970D01*
X138552572Y-58209235D01*
X138528773Y-58215196D01*
X138504505Y-58218796D01*
X138480001Y-58220000D01*
X137579999Y-58220000D01*
X137555495Y-58218796D01*
X137531227Y-58215196D01*
X137507428Y-58209235D01*
X137484329Y-58200970D01*
X137462150Y-58190480D01*
X137441107Y-58177868D01*
X137421401Y-58163253D01*
X137403223Y-58146777D01*
X137386747Y-58128599D01*
X137372132Y-58108893D01*
X137359520Y-58087850D01*
X137349030Y-58065671D01*
X137340765Y-58042572D01*
X137334804Y-58018773D01*
X137331204Y-57994505D01*
X137330000Y-57970001D01*
X137330000Y-57319999D01*
X137331204Y-57295495D01*
X137334804Y-57271227D01*
X137340765Y-57247428D01*
X137349030Y-57224329D01*
X137359520Y-57202150D01*
X137372132Y-57181107D01*
X137386747Y-57161401D01*
X137403223Y-57143223D01*
X137421401Y-57126747D01*
X137441107Y-57112132D01*
X137462150Y-57099520D01*
X137484329Y-57089030D01*
X137507428Y-57080765D01*
X137531227Y-57074804D01*
X137555495Y-57071204D01*
X137579999Y-57070000D01*
X138480001Y-57070000D01*
X138504505Y-57071204D01*
X138504505Y-57071204D01*
G37*
D13*
X138030000Y-57645000D03*
D11*
G36*
X138504505Y-55021204D02*
G01*
X138528773Y-55024804D01*
X138552572Y-55030765D01*
X138575671Y-55039030D01*
X138597850Y-55049520D01*
X138618893Y-55062132D01*
X138638599Y-55076747D01*
X138656777Y-55093223D01*
X138673253Y-55111401D01*
X138687868Y-55131107D01*
X138700480Y-55152150D01*
X138710970Y-55174329D01*
X138719235Y-55197428D01*
X138725196Y-55221227D01*
X138728796Y-55245495D01*
X138730000Y-55269999D01*
X138730000Y-55920001D01*
X138728796Y-55944505D01*
X138725196Y-55968773D01*
X138719235Y-55992572D01*
X138710970Y-56015671D01*
X138700480Y-56037850D01*
X138687868Y-56058893D01*
X138673253Y-56078599D01*
X138656777Y-56096777D01*
X138638599Y-56113253D01*
X138618893Y-56127868D01*
X138597850Y-56140480D01*
X138575671Y-56150970D01*
X138552572Y-56159235D01*
X138528773Y-56165196D01*
X138504505Y-56168796D01*
X138480001Y-56170000D01*
X137579999Y-56170000D01*
X137555495Y-56168796D01*
X137531227Y-56165196D01*
X137507428Y-56159235D01*
X137484329Y-56150970D01*
X137462150Y-56140480D01*
X137441107Y-56127868D01*
X137421401Y-56113253D01*
X137403223Y-56096777D01*
X137386747Y-56078599D01*
X137372132Y-56058893D01*
X137359520Y-56037850D01*
X137349030Y-56015671D01*
X137340765Y-55992572D01*
X137334804Y-55968773D01*
X137331204Y-55944505D01*
X137330000Y-55920001D01*
X137330000Y-55269999D01*
X137331204Y-55245495D01*
X137334804Y-55221227D01*
X137340765Y-55197428D01*
X137349030Y-55174329D01*
X137359520Y-55152150D01*
X137372132Y-55131107D01*
X137386747Y-55111401D01*
X137403223Y-55093223D01*
X137421401Y-55076747D01*
X137441107Y-55062132D01*
X137462150Y-55049520D01*
X137484329Y-55039030D01*
X137507428Y-55030765D01*
X137531227Y-55024804D01*
X137555495Y-55021204D01*
X137579999Y-55020000D01*
X138480001Y-55020000D01*
X138504505Y-55021204D01*
X138504505Y-55021204D01*
G37*
D13*
X138030000Y-55595000D03*
D11*
G36*
X138954505Y-81911204D02*
G01*
X138978773Y-81914804D01*
X139002572Y-81920765D01*
X139025671Y-81929030D01*
X139047850Y-81939520D01*
X139068893Y-81952132D01*
X139088599Y-81966747D01*
X139106777Y-81983223D01*
X139123253Y-82001401D01*
X139137868Y-82021107D01*
X139150480Y-82042150D01*
X139160970Y-82064329D01*
X139169235Y-82087428D01*
X139175196Y-82111227D01*
X139178796Y-82135495D01*
X139180000Y-82159999D01*
X139180000Y-82810001D01*
X139178796Y-82834505D01*
X139175196Y-82858773D01*
X139169235Y-82882572D01*
X139160970Y-82905671D01*
X139150480Y-82927850D01*
X139137868Y-82948893D01*
X139123253Y-82968599D01*
X139106777Y-82986777D01*
X139088599Y-83003253D01*
X139068893Y-83017868D01*
X139047850Y-83030480D01*
X139025671Y-83040970D01*
X139002572Y-83049235D01*
X138978773Y-83055196D01*
X138954505Y-83058796D01*
X138930001Y-83060000D01*
X138029999Y-83060000D01*
X138005495Y-83058796D01*
X137981227Y-83055196D01*
X137957428Y-83049235D01*
X137934329Y-83040970D01*
X137912150Y-83030480D01*
X137891107Y-83017868D01*
X137871401Y-83003253D01*
X137853223Y-82986777D01*
X137836747Y-82968599D01*
X137822132Y-82948893D01*
X137809520Y-82927850D01*
X137799030Y-82905671D01*
X137790765Y-82882572D01*
X137784804Y-82858773D01*
X137781204Y-82834505D01*
X137780000Y-82810001D01*
X137780000Y-82159999D01*
X137781204Y-82135495D01*
X137784804Y-82111227D01*
X137790765Y-82087428D01*
X137799030Y-82064329D01*
X137809520Y-82042150D01*
X137822132Y-82021107D01*
X137836747Y-82001401D01*
X137853223Y-81983223D01*
X137871401Y-81966747D01*
X137891107Y-81952132D01*
X137912150Y-81939520D01*
X137934329Y-81929030D01*
X137957428Y-81920765D01*
X137981227Y-81914804D01*
X138005495Y-81911204D01*
X138029999Y-81910000D01*
X138930001Y-81910000D01*
X138954505Y-81911204D01*
X138954505Y-81911204D01*
G37*
D13*
X138480000Y-82485000D03*
D11*
G36*
X138954505Y-79861204D02*
G01*
X138978773Y-79864804D01*
X139002572Y-79870765D01*
X139025671Y-79879030D01*
X139047850Y-79889520D01*
X139068893Y-79902132D01*
X139088599Y-79916747D01*
X139106777Y-79933223D01*
X139123253Y-79951401D01*
X139137868Y-79971107D01*
X139150480Y-79992150D01*
X139160970Y-80014329D01*
X139169235Y-80037428D01*
X139175196Y-80061227D01*
X139178796Y-80085495D01*
X139180000Y-80109999D01*
X139180000Y-80760001D01*
X139178796Y-80784505D01*
X139175196Y-80808773D01*
X139169235Y-80832572D01*
X139160970Y-80855671D01*
X139150480Y-80877850D01*
X139137868Y-80898893D01*
X139123253Y-80918599D01*
X139106777Y-80936777D01*
X139088599Y-80953253D01*
X139068893Y-80967868D01*
X139047850Y-80980480D01*
X139025671Y-80990970D01*
X139002572Y-80999235D01*
X138978773Y-81005196D01*
X138954505Y-81008796D01*
X138930001Y-81010000D01*
X138029999Y-81010000D01*
X138005495Y-81008796D01*
X137981227Y-81005196D01*
X137957428Y-80999235D01*
X137934329Y-80990970D01*
X137912150Y-80980480D01*
X137891107Y-80967868D01*
X137871401Y-80953253D01*
X137853223Y-80936777D01*
X137836747Y-80918599D01*
X137822132Y-80898893D01*
X137809520Y-80877850D01*
X137799030Y-80855671D01*
X137790765Y-80832572D01*
X137784804Y-80808773D01*
X137781204Y-80784505D01*
X137780000Y-80760001D01*
X137780000Y-80109999D01*
X137781204Y-80085495D01*
X137784804Y-80061227D01*
X137790765Y-80037428D01*
X137799030Y-80014329D01*
X137809520Y-79992150D01*
X137822132Y-79971107D01*
X137836747Y-79951401D01*
X137853223Y-79933223D01*
X137871401Y-79916747D01*
X137891107Y-79902132D01*
X137912150Y-79889520D01*
X137934329Y-79879030D01*
X137957428Y-79870765D01*
X137981227Y-79864804D01*
X138005495Y-79861204D01*
X138029999Y-79860000D01*
X138930001Y-79860000D01*
X138954505Y-79861204D01*
X138954505Y-79861204D01*
G37*
D13*
X138480000Y-80435000D03*
D11*
G36*
X138844505Y-108595204D02*
G01*
X138868773Y-108598804D01*
X138892572Y-108604765D01*
X138915671Y-108613030D01*
X138937850Y-108623520D01*
X138958893Y-108636132D01*
X138978599Y-108650747D01*
X138996777Y-108667223D01*
X139013253Y-108685401D01*
X139027868Y-108705107D01*
X139040480Y-108726150D01*
X139050970Y-108748329D01*
X139059235Y-108771428D01*
X139065196Y-108795227D01*
X139068796Y-108819495D01*
X139070000Y-108843999D01*
X139070000Y-109494001D01*
X139068796Y-109518505D01*
X139065196Y-109542773D01*
X139059235Y-109566572D01*
X139050970Y-109589671D01*
X139040480Y-109611850D01*
X139027868Y-109632893D01*
X139013253Y-109652599D01*
X138996777Y-109670777D01*
X138978599Y-109687253D01*
X138958893Y-109701868D01*
X138937850Y-109714480D01*
X138915671Y-109724970D01*
X138892572Y-109733235D01*
X138868773Y-109739196D01*
X138844505Y-109742796D01*
X138820001Y-109744000D01*
X137919999Y-109744000D01*
X137895495Y-109742796D01*
X137871227Y-109739196D01*
X137847428Y-109733235D01*
X137824329Y-109724970D01*
X137802150Y-109714480D01*
X137781107Y-109701868D01*
X137761401Y-109687253D01*
X137743223Y-109670777D01*
X137726747Y-109652599D01*
X137712132Y-109632893D01*
X137699520Y-109611850D01*
X137689030Y-109589671D01*
X137680765Y-109566572D01*
X137674804Y-109542773D01*
X137671204Y-109518505D01*
X137670000Y-109494001D01*
X137670000Y-108843999D01*
X137671204Y-108819495D01*
X137674804Y-108795227D01*
X137680765Y-108771428D01*
X137689030Y-108748329D01*
X137699520Y-108726150D01*
X137712132Y-108705107D01*
X137726747Y-108685401D01*
X137743223Y-108667223D01*
X137761401Y-108650747D01*
X137781107Y-108636132D01*
X137802150Y-108623520D01*
X137824329Y-108613030D01*
X137847428Y-108604765D01*
X137871227Y-108598804D01*
X137895495Y-108595204D01*
X137919999Y-108594000D01*
X138820001Y-108594000D01*
X138844505Y-108595204D01*
X138844505Y-108595204D01*
G37*
D13*
X138370000Y-109169000D03*
D11*
G36*
X138844505Y-106545204D02*
G01*
X138868773Y-106548804D01*
X138892572Y-106554765D01*
X138915671Y-106563030D01*
X138937850Y-106573520D01*
X138958893Y-106586132D01*
X138978599Y-106600747D01*
X138996777Y-106617223D01*
X139013253Y-106635401D01*
X139027868Y-106655107D01*
X139040480Y-106676150D01*
X139050970Y-106698329D01*
X139059235Y-106721428D01*
X139065196Y-106745227D01*
X139068796Y-106769495D01*
X139070000Y-106793999D01*
X139070000Y-107444001D01*
X139068796Y-107468505D01*
X139065196Y-107492773D01*
X139059235Y-107516572D01*
X139050970Y-107539671D01*
X139040480Y-107561850D01*
X139027868Y-107582893D01*
X139013253Y-107602599D01*
X138996777Y-107620777D01*
X138978599Y-107637253D01*
X138958893Y-107651868D01*
X138937850Y-107664480D01*
X138915671Y-107674970D01*
X138892572Y-107683235D01*
X138868773Y-107689196D01*
X138844505Y-107692796D01*
X138820001Y-107694000D01*
X137919999Y-107694000D01*
X137895495Y-107692796D01*
X137871227Y-107689196D01*
X137847428Y-107683235D01*
X137824329Y-107674970D01*
X137802150Y-107664480D01*
X137781107Y-107651868D01*
X137761401Y-107637253D01*
X137743223Y-107620777D01*
X137726747Y-107602599D01*
X137712132Y-107582893D01*
X137699520Y-107561850D01*
X137689030Y-107539671D01*
X137680765Y-107516572D01*
X137674804Y-107492773D01*
X137671204Y-107468505D01*
X137670000Y-107444001D01*
X137670000Y-106793999D01*
X137671204Y-106769495D01*
X137674804Y-106745227D01*
X137680765Y-106721428D01*
X137689030Y-106698329D01*
X137699520Y-106676150D01*
X137712132Y-106655107D01*
X137726747Y-106635401D01*
X137743223Y-106617223D01*
X137761401Y-106600747D01*
X137781107Y-106586132D01*
X137802150Y-106573520D01*
X137824329Y-106563030D01*
X137847428Y-106554765D01*
X137871227Y-106548804D01*
X137895495Y-106545204D01*
X137919999Y-106544000D01*
X138820001Y-106544000D01*
X138844505Y-106545204D01*
X138844505Y-106545204D01*
G37*
D13*
X138370000Y-107119000D03*
D11*
G36*
X138844505Y-135265204D02*
G01*
X138868773Y-135268804D01*
X138892572Y-135274765D01*
X138915671Y-135283030D01*
X138937850Y-135293520D01*
X138958893Y-135306132D01*
X138978599Y-135320747D01*
X138996777Y-135337223D01*
X139013253Y-135355401D01*
X139027868Y-135375107D01*
X139040480Y-135396150D01*
X139050970Y-135418329D01*
X139059235Y-135441428D01*
X139065196Y-135465227D01*
X139068796Y-135489495D01*
X139070000Y-135513999D01*
X139070000Y-136164001D01*
X139068796Y-136188505D01*
X139065196Y-136212773D01*
X139059235Y-136236572D01*
X139050970Y-136259671D01*
X139040480Y-136281850D01*
X139027868Y-136302893D01*
X139013253Y-136322599D01*
X138996777Y-136340777D01*
X138978599Y-136357253D01*
X138958893Y-136371868D01*
X138937850Y-136384480D01*
X138915671Y-136394970D01*
X138892572Y-136403235D01*
X138868773Y-136409196D01*
X138844505Y-136412796D01*
X138820001Y-136414000D01*
X137919999Y-136414000D01*
X137895495Y-136412796D01*
X137871227Y-136409196D01*
X137847428Y-136403235D01*
X137824329Y-136394970D01*
X137802150Y-136384480D01*
X137781107Y-136371868D01*
X137761401Y-136357253D01*
X137743223Y-136340777D01*
X137726747Y-136322599D01*
X137712132Y-136302893D01*
X137699520Y-136281850D01*
X137689030Y-136259671D01*
X137680765Y-136236572D01*
X137674804Y-136212773D01*
X137671204Y-136188505D01*
X137670000Y-136164001D01*
X137670000Y-135513999D01*
X137671204Y-135489495D01*
X137674804Y-135465227D01*
X137680765Y-135441428D01*
X137689030Y-135418329D01*
X137699520Y-135396150D01*
X137712132Y-135375107D01*
X137726747Y-135355401D01*
X137743223Y-135337223D01*
X137761401Y-135320747D01*
X137781107Y-135306132D01*
X137802150Y-135293520D01*
X137824329Y-135283030D01*
X137847428Y-135274765D01*
X137871227Y-135268804D01*
X137895495Y-135265204D01*
X137919999Y-135264000D01*
X138820001Y-135264000D01*
X138844505Y-135265204D01*
X138844505Y-135265204D01*
G37*
D13*
X138370000Y-135839000D03*
D11*
G36*
X138844505Y-133215204D02*
G01*
X138868773Y-133218804D01*
X138892572Y-133224765D01*
X138915671Y-133233030D01*
X138937850Y-133243520D01*
X138958893Y-133256132D01*
X138978599Y-133270747D01*
X138996777Y-133287223D01*
X139013253Y-133305401D01*
X139027868Y-133325107D01*
X139040480Y-133346150D01*
X139050970Y-133368329D01*
X139059235Y-133391428D01*
X139065196Y-133415227D01*
X139068796Y-133439495D01*
X139070000Y-133463999D01*
X139070000Y-134114001D01*
X139068796Y-134138505D01*
X139065196Y-134162773D01*
X139059235Y-134186572D01*
X139050970Y-134209671D01*
X139040480Y-134231850D01*
X139027868Y-134252893D01*
X139013253Y-134272599D01*
X138996777Y-134290777D01*
X138978599Y-134307253D01*
X138958893Y-134321868D01*
X138937850Y-134334480D01*
X138915671Y-134344970D01*
X138892572Y-134353235D01*
X138868773Y-134359196D01*
X138844505Y-134362796D01*
X138820001Y-134364000D01*
X137919999Y-134364000D01*
X137895495Y-134362796D01*
X137871227Y-134359196D01*
X137847428Y-134353235D01*
X137824329Y-134344970D01*
X137802150Y-134334480D01*
X137781107Y-134321868D01*
X137761401Y-134307253D01*
X137743223Y-134290777D01*
X137726747Y-134272599D01*
X137712132Y-134252893D01*
X137699520Y-134231850D01*
X137689030Y-134209671D01*
X137680765Y-134186572D01*
X137674804Y-134162773D01*
X137671204Y-134138505D01*
X137670000Y-134114001D01*
X137670000Y-133463999D01*
X137671204Y-133439495D01*
X137674804Y-133415227D01*
X137680765Y-133391428D01*
X137689030Y-133368329D01*
X137699520Y-133346150D01*
X137712132Y-133325107D01*
X137726747Y-133305401D01*
X137743223Y-133287223D01*
X137761401Y-133270747D01*
X137781107Y-133256132D01*
X137802150Y-133243520D01*
X137824329Y-133233030D01*
X137847428Y-133224765D01*
X137871227Y-133218804D01*
X137895495Y-133215204D01*
X137919999Y-133214000D01*
X138820001Y-133214000D01*
X138844505Y-133215204D01*
X138844505Y-133215204D01*
G37*
D13*
X138370000Y-133789000D03*
D11*
G36*
X83013504Y-51644204D02*
G01*
X83037773Y-51647804D01*
X83061571Y-51653765D01*
X83084671Y-51662030D01*
X83106849Y-51672520D01*
X83127893Y-51685133D01*
X83147598Y-51699747D01*
X83165777Y-51716223D01*
X83182253Y-51734402D01*
X83196867Y-51754107D01*
X83209480Y-51775151D01*
X83219970Y-51797329D01*
X83228235Y-51820429D01*
X83234196Y-51844227D01*
X83237796Y-51868496D01*
X83239000Y-51893000D01*
X83239000Y-53143000D01*
X83237796Y-53167504D01*
X83234196Y-53191773D01*
X83228235Y-53215571D01*
X83219970Y-53238671D01*
X83209480Y-53260849D01*
X83196867Y-53281893D01*
X83182253Y-53301598D01*
X83165777Y-53319777D01*
X83147598Y-53336253D01*
X83127893Y-53350867D01*
X83106849Y-53363480D01*
X83084671Y-53373970D01*
X83061571Y-53382235D01*
X83037773Y-53388196D01*
X83013504Y-53391796D01*
X82989000Y-53393000D01*
X82239000Y-53393000D01*
X82214496Y-53391796D01*
X82190227Y-53388196D01*
X82166429Y-53382235D01*
X82143329Y-53373970D01*
X82121151Y-53363480D01*
X82100107Y-53350867D01*
X82080402Y-53336253D01*
X82062223Y-53319777D01*
X82045747Y-53301598D01*
X82031133Y-53281893D01*
X82018520Y-53260849D01*
X82008030Y-53238671D01*
X81999765Y-53215571D01*
X81993804Y-53191773D01*
X81990204Y-53167504D01*
X81989000Y-53143000D01*
X81989000Y-51893000D01*
X81990204Y-51868496D01*
X81993804Y-51844227D01*
X81999765Y-51820429D01*
X82008030Y-51797329D01*
X82018520Y-51775151D01*
X82031133Y-51754107D01*
X82045747Y-51734402D01*
X82062223Y-51716223D01*
X82080402Y-51699747D01*
X82100107Y-51685133D01*
X82121151Y-51672520D01*
X82143329Y-51662030D01*
X82166429Y-51653765D01*
X82190227Y-51647804D01*
X82214496Y-51644204D01*
X82239000Y-51643000D01*
X82989000Y-51643000D01*
X83013504Y-51644204D01*
X83013504Y-51644204D01*
G37*
D16*
X82614000Y-52518000D03*
D11*
G36*
X85813504Y-51644204D02*
G01*
X85837773Y-51647804D01*
X85861571Y-51653765D01*
X85884671Y-51662030D01*
X85906849Y-51672520D01*
X85927893Y-51685133D01*
X85947598Y-51699747D01*
X85965777Y-51716223D01*
X85982253Y-51734402D01*
X85996867Y-51754107D01*
X86009480Y-51775151D01*
X86019970Y-51797329D01*
X86028235Y-51820429D01*
X86034196Y-51844227D01*
X86037796Y-51868496D01*
X86039000Y-51893000D01*
X86039000Y-53143000D01*
X86037796Y-53167504D01*
X86034196Y-53191773D01*
X86028235Y-53215571D01*
X86019970Y-53238671D01*
X86009480Y-53260849D01*
X85996867Y-53281893D01*
X85982253Y-53301598D01*
X85965777Y-53319777D01*
X85947598Y-53336253D01*
X85927893Y-53350867D01*
X85906849Y-53363480D01*
X85884671Y-53373970D01*
X85861571Y-53382235D01*
X85837773Y-53388196D01*
X85813504Y-53391796D01*
X85789000Y-53393000D01*
X85039000Y-53393000D01*
X85014496Y-53391796D01*
X84990227Y-53388196D01*
X84966429Y-53382235D01*
X84943329Y-53373970D01*
X84921151Y-53363480D01*
X84900107Y-53350867D01*
X84880402Y-53336253D01*
X84862223Y-53319777D01*
X84845747Y-53301598D01*
X84831133Y-53281893D01*
X84818520Y-53260849D01*
X84808030Y-53238671D01*
X84799765Y-53215571D01*
X84793804Y-53191773D01*
X84790204Y-53167504D01*
X84789000Y-53143000D01*
X84789000Y-51893000D01*
X84790204Y-51868496D01*
X84793804Y-51844227D01*
X84799765Y-51820429D01*
X84808030Y-51797329D01*
X84818520Y-51775151D01*
X84831133Y-51754107D01*
X84845747Y-51734402D01*
X84862223Y-51716223D01*
X84880402Y-51699747D01*
X84900107Y-51685133D01*
X84921151Y-51672520D01*
X84943329Y-51662030D01*
X84966429Y-51653765D01*
X84990227Y-51647804D01*
X85014496Y-51644204D01*
X85039000Y-51643000D01*
X85789000Y-51643000D01*
X85813504Y-51644204D01*
X85813504Y-51644204D01*
G37*
D16*
X85414000Y-52518000D03*
D11*
G36*
X85813504Y-54692204D02*
G01*
X85837773Y-54695804D01*
X85861571Y-54701765D01*
X85884671Y-54710030D01*
X85906849Y-54720520D01*
X85927893Y-54733133D01*
X85947598Y-54747747D01*
X85965777Y-54764223D01*
X85982253Y-54782402D01*
X85996867Y-54802107D01*
X86009480Y-54823151D01*
X86019970Y-54845329D01*
X86028235Y-54868429D01*
X86034196Y-54892227D01*
X86037796Y-54916496D01*
X86039000Y-54941000D01*
X86039000Y-56191000D01*
X86037796Y-56215504D01*
X86034196Y-56239773D01*
X86028235Y-56263571D01*
X86019970Y-56286671D01*
X86009480Y-56308849D01*
X85996867Y-56329893D01*
X85982253Y-56349598D01*
X85965777Y-56367777D01*
X85947598Y-56384253D01*
X85927893Y-56398867D01*
X85906849Y-56411480D01*
X85884671Y-56421970D01*
X85861571Y-56430235D01*
X85837773Y-56436196D01*
X85813504Y-56439796D01*
X85789000Y-56441000D01*
X85039000Y-56441000D01*
X85014496Y-56439796D01*
X84990227Y-56436196D01*
X84966429Y-56430235D01*
X84943329Y-56421970D01*
X84921151Y-56411480D01*
X84900107Y-56398867D01*
X84880402Y-56384253D01*
X84862223Y-56367777D01*
X84845747Y-56349598D01*
X84831133Y-56329893D01*
X84818520Y-56308849D01*
X84808030Y-56286671D01*
X84799765Y-56263571D01*
X84793804Y-56239773D01*
X84790204Y-56215504D01*
X84789000Y-56191000D01*
X84789000Y-54941000D01*
X84790204Y-54916496D01*
X84793804Y-54892227D01*
X84799765Y-54868429D01*
X84808030Y-54845329D01*
X84818520Y-54823151D01*
X84831133Y-54802107D01*
X84845747Y-54782402D01*
X84862223Y-54764223D01*
X84880402Y-54747747D01*
X84900107Y-54733133D01*
X84921151Y-54720520D01*
X84943329Y-54710030D01*
X84966429Y-54701765D01*
X84990227Y-54695804D01*
X85014496Y-54692204D01*
X85039000Y-54691000D01*
X85789000Y-54691000D01*
X85813504Y-54692204D01*
X85813504Y-54692204D01*
G37*
D16*
X85414000Y-55566000D03*
D11*
G36*
X83013504Y-54692204D02*
G01*
X83037773Y-54695804D01*
X83061571Y-54701765D01*
X83084671Y-54710030D01*
X83106849Y-54720520D01*
X83127893Y-54733133D01*
X83147598Y-54747747D01*
X83165777Y-54764223D01*
X83182253Y-54782402D01*
X83196867Y-54802107D01*
X83209480Y-54823151D01*
X83219970Y-54845329D01*
X83228235Y-54868429D01*
X83234196Y-54892227D01*
X83237796Y-54916496D01*
X83239000Y-54941000D01*
X83239000Y-56191000D01*
X83237796Y-56215504D01*
X83234196Y-56239773D01*
X83228235Y-56263571D01*
X83219970Y-56286671D01*
X83209480Y-56308849D01*
X83196867Y-56329893D01*
X83182253Y-56349598D01*
X83165777Y-56367777D01*
X83147598Y-56384253D01*
X83127893Y-56398867D01*
X83106849Y-56411480D01*
X83084671Y-56421970D01*
X83061571Y-56430235D01*
X83037773Y-56436196D01*
X83013504Y-56439796D01*
X82989000Y-56441000D01*
X82239000Y-56441000D01*
X82214496Y-56439796D01*
X82190227Y-56436196D01*
X82166429Y-56430235D01*
X82143329Y-56421970D01*
X82121151Y-56411480D01*
X82100107Y-56398867D01*
X82080402Y-56384253D01*
X82062223Y-56367777D01*
X82045747Y-56349598D01*
X82031133Y-56329893D01*
X82018520Y-56308849D01*
X82008030Y-56286671D01*
X81999765Y-56263571D01*
X81993804Y-56239773D01*
X81990204Y-56215504D01*
X81989000Y-56191000D01*
X81989000Y-54941000D01*
X81990204Y-54916496D01*
X81993804Y-54892227D01*
X81999765Y-54868429D01*
X82008030Y-54845329D01*
X82018520Y-54823151D01*
X82031133Y-54802107D01*
X82045747Y-54782402D01*
X82062223Y-54764223D01*
X82080402Y-54747747D01*
X82100107Y-54733133D01*
X82121151Y-54720520D01*
X82143329Y-54710030D01*
X82166429Y-54701765D01*
X82190227Y-54695804D01*
X82214496Y-54692204D01*
X82239000Y-54691000D01*
X82989000Y-54691000D01*
X83013504Y-54692204D01*
X83013504Y-54692204D01*
G37*
D16*
X82614000Y-55566000D03*
D11*
G36*
X80987504Y-51644204D02*
G01*
X81011773Y-51647804D01*
X81035571Y-51653765D01*
X81058671Y-51662030D01*
X81080849Y-51672520D01*
X81101893Y-51685133D01*
X81121598Y-51699747D01*
X81139777Y-51716223D01*
X81156253Y-51734402D01*
X81170867Y-51754107D01*
X81183480Y-51775151D01*
X81193970Y-51797329D01*
X81202235Y-51820429D01*
X81208196Y-51844227D01*
X81211796Y-51868496D01*
X81213000Y-51893000D01*
X81213000Y-53143000D01*
X81211796Y-53167504D01*
X81208196Y-53191773D01*
X81202235Y-53215571D01*
X81193970Y-53238671D01*
X81183480Y-53260849D01*
X81170867Y-53281893D01*
X81156253Y-53301598D01*
X81139777Y-53319777D01*
X81121598Y-53336253D01*
X81101893Y-53350867D01*
X81080849Y-53363480D01*
X81058671Y-53373970D01*
X81035571Y-53382235D01*
X81011773Y-53388196D01*
X80987504Y-53391796D01*
X80963000Y-53393000D01*
X80213000Y-53393000D01*
X80188496Y-53391796D01*
X80164227Y-53388196D01*
X80140429Y-53382235D01*
X80117329Y-53373970D01*
X80095151Y-53363480D01*
X80074107Y-53350867D01*
X80054402Y-53336253D01*
X80036223Y-53319777D01*
X80019747Y-53301598D01*
X80005133Y-53281893D01*
X79992520Y-53260849D01*
X79982030Y-53238671D01*
X79973765Y-53215571D01*
X79967804Y-53191773D01*
X79964204Y-53167504D01*
X79963000Y-53143000D01*
X79963000Y-51893000D01*
X79964204Y-51868496D01*
X79967804Y-51844227D01*
X79973765Y-51820429D01*
X79982030Y-51797329D01*
X79992520Y-51775151D01*
X80005133Y-51754107D01*
X80019747Y-51734402D01*
X80036223Y-51716223D01*
X80054402Y-51699747D01*
X80074107Y-51685133D01*
X80095151Y-51672520D01*
X80117329Y-51662030D01*
X80140429Y-51653765D01*
X80164227Y-51647804D01*
X80188496Y-51644204D01*
X80213000Y-51643000D01*
X80963000Y-51643000D01*
X80987504Y-51644204D01*
X80987504Y-51644204D01*
G37*
D16*
X80588000Y-52518000D03*
D11*
G36*
X78187504Y-51644204D02*
G01*
X78211773Y-51647804D01*
X78235571Y-51653765D01*
X78258671Y-51662030D01*
X78280849Y-51672520D01*
X78301893Y-51685133D01*
X78321598Y-51699747D01*
X78339777Y-51716223D01*
X78356253Y-51734402D01*
X78370867Y-51754107D01*
X78383480Y-51775151D01*
X78393970Y-51797329D01*
X78402235Y-51820429D01*
X78408196Y-51844227D01*
X78411796Y-51868496D01*
X78413000Y-51893000D01*
X78413000Y-53143000D01*
X78411796Y-53167504D01*
X78408196Y-53191773D01*
X78402235Y-53215571D01*
X78393970Y-53238671D01*
X78383480Y-53260849D01*
X78370867Y-53281893D01*
X78356253Y-53301598D01*
X78339777Y-53319777D01*
X78321598Y-53336253D01*
X78301893Y-53350867D01*
X78280849Y-53363480D01*
X78258671Y-53373970D01*
X78235571Y-53382235D01*
X78211773Y-53388196D01*
X78187504Y-53391796D01*
X78163000Y-53393000D01*
X77413000Y-53393000D01*
X77388496Y-53391796D01*
X77364227Y-53388196D01*
X77340429Y-53382235D01*
X77317329Y-53373970D01*
X77295151Y-53363480D01*
X77274107Y-53350867D01*
X77254402Y-53336253D01*
X77236223Y-53319777D01*
X77219747Y-53301598D01*
X77205133Y-53281893D01*
X77192520Y-53260849D01*
X77182030Y-53238671D01*
X77173765Y-53215571D01*
X77167804Y-53191773D01*
X77164204Y-53167504D01*
X77163000Y-53143000D01*
X77163000Y-51893000D01*
X77164204Y-51868496D01*
X77167804Y-51844227D01*
X77173765Y-51820429D01*
X77182030Y-51797329D01*
X77192520Y-51775151D01*
X77205133Y-51754107D01*
X77219747Y-51734402D01*
X77236223Y-51716223D01*
X77254402Y-51699747D01*
X77274107Y-51685133D01*
X77295151Y-51672520D01*
X77317329Y-51662030D01*
X77340429Y-51653765D01*
X77364227Y-51647804D01*
X77388496Y-51644204D01*
X77413000Y-51643000D01*
X78163000Y-51643000D01*
X78187504Y-51644204D01*
X78187504Y-51644204D01*
G37*
D16*
X77788000Y-52518000D03*
D11*
G36*
X78187504Y-54692204D02*
G01*
X78211773Y-54695804D01*
X78235571Y-54701765D01*
X78258671Y-54710030D01*
X78280849Y-54720520D01*
X78301893Y-54733133D01*
X78321598Y-54747747D01*
X78339777Y-54764223D01*
X78356253Y-54782402D01*
X78370867Y-54802107D01*
X78383480Y-54823151D01*
X78393970Y-54845329D01*
X78402235Y-54868429D01*
X78408196Y-54892227D01*
X78411796Y-54916496D01*
X78413000Y-54941000D01*
X78413000Y-56191000D01*
X78411796Y-56215504D01*
X78408196Y-56239773D01*
X78402235Y-56263571D01*
X78393970Y-56286671D01*
X78383480Y-56308849D01*
X78370867Y-56329893D01*
X78356253Y-56349598D01*
X78339777Y-56367777D01*
X78321598Y-56384253D01*
X78301893Y-56398867D01*
X78280849Y-56411480D01*
X78258671Y-56421970D01*
X78235571Y-56430235D01*
X78211773Y-56436196D01*
X78187504Y-56439796D01*
X78163000Y-56441000D01*
X77413000Y-56441000D01*
X77388496Y-56439796D01*
X77364227Y-56436196D01*
X77340429Y-56430235D01*
X77317329Y-56421970D01*
X77295151Y-56411480D01*
X77274107Y-56398867D01*
X77254402Y-56384253D01*
X77236223Y-56367777D01*
X77219747Y-56349598D01*
X77205133Y-56329893D01*
X77192520Y-56308849D01*
X77182030Y-56286671D01*
X77173765Y-56263571D01*
X77167804Y-56239773D01*
X77164204Y-56215504D01*
X77163000Y-56191000D01*
X77163000Y-54941000D01*
X77164204Y-54916496D01*
X77167804Y-54892227D01*
X77173765Y-54868429D01*
X77182030Y-54845329D01*
X77192520Y-54823151D01*
X77205133Y-54802107D01*
X77219747Y-54782402D01*
X77236223Y-54764223D01*
X77254402Y-54747747D01*
X77274107Y-54733133D01*
X77295151Y-54720520D01*
X77317329Y-54710030D01*
X77340429Y-54701765D01*
X77364227Y-54695804D01*
X77388496Y-54692204D01*
X77413000Y-54691000D01*
X78163000Y-54691000D01*
X78187504Y-54692204D01*
X78187504Y-54692204D01*
G37*
D16*
X77788000Y-55566000D03*
D11*
G36*
X80987504Y-54692204D02*
G01*
X81011773Y-54695804D01*
X81035571Y-54701765D01*
X81058671Y-54710030D01*
X81080849Y-54720520D01*
X81101893Y-54733133D01*
X81121598Y-54747747D01*
X81139777Y-54764223D01*
X81156253Y-54782402D01*
X81170867Y-54802107D01*
X81183480Y-54823151D01*
X81193970Y-54845329D01*
X81202235Y-54868429D01*
X81208196Y-54892227D01*
X81211796Y-54916496D01*
X81213000Y-54941000D01*
X81213000Y-56191000D01*
X81211796Y-56215504D01*
X81208196Y-56239773D01*
X81202235Y-56263571D01*
X81193970Y-56286671D01*
X81183480Y-56308849D01*
X81170867Y-56329893D01*
X81156253Y-56349598D01*
X81139777Y-56367777D01*
X81121598Y-56384253D01*
X81101893Y-56398867D01*
X81080849Y-56411480D01*
X81058671Y-56421970D01*
X81035571Y-56430235D01*
X81011773Y-56436196D01*
X80987504Y-56439796D01*
X80963000Y-56441000D01*
X80213000Y-56441000D01*
X80188496Y-56439796D01*
X80164227Y-56436196D01*
X80140429Y-56430235D01*
X80117329Y-56421970D01*
X80095151Y-56411480D01*
X80074107Y-56398867D01*
X80054402Y-56384253D01*
X80036223Y-56367777D01*
X80019747Y-56349598D01*
X80005133Y-56329893D01*
X79992520Y-56308849D01*
X79982030Y-56286671D01*
X79973765Y-56263571D01*
X79967804Y-56239773D01*
X79964204Y-56215504D01*
X79963000Y-56191000D01*
X79963000Y-54941000D01*
X79964204Y-54916496D01*
X79967804Y-54892227D01*
X79973765Y-54868429D01*
X79982030Y-54845329D01*
X79992520Y-54823151D01*
X80005133Y-54802107D01*
X80019747Y-54782402D01*
X80036223Y-54764223D01*
X80054402Y-54747747D01*
X80074107Y-54733133D01*
X80095151Y-54720520D01*
X80117329Y-54710030D01*
X80140429Y-54701765D01*
X80164227Y-54695804D01*
X80188496Y-54692204D01*
X80213000Y-54691000D01*
X80963000Y-54691000D01*
X80987504Y-54692204D01*
X80987504Y-54692204D01*
G37*
D16*
X80588000Y-55566000D03*
D11*
G36*
X73361504Y-51644204D02*
G01*
X73385773Y-51647804D01*
X73409571Y-51653765D01*
X73432671Y-51662030D01*
X73454849Y-51672520D01*
X73475893Y-51685133D01*
X73495598Y-51699747D01*
X73513777Y-51716223D01*
X73530253Y-51734402D01*
X73544867Y-51754107D01*
X73557480Y-51775151D01*
X73567970Y-51797329D01*
X73576235Y-51820429D01*
X73582196Y-51844227D01*
X73585796Y-51868496D01*
X73587000Y-51893000D01*
X73587000Y-53143000D01*
X73585796Y-53167504D01*
X73582196Y-53191773D01*
X73576235Y-53215571D01*
X73567970Y-53238671D01*
X73557480Y-53260849D01*
X73544867Y-53281893D01*
X73530253Y-53301598D01*
X73513777Y-53319777D01*
X73495598Y-53336253D01*
X73475893Y-53350867D01*
X73454849Y-53363480D01*
X73432671Y-53373970D01*
X73409571Y-53382235D01*
X73385773Y-53388196D01*
X73361504Y-53391796D01*
X73337000Y-53393000D01*
X72587000Y-53393000D01*
X72562496Y-53391796D01*
X72538227Y-53388196D01*
X72514429Y-53382235D01*
X72491329Y-53373970D01*
X72469151Y-53363480D01*
X72448107Y-53350867D01*
X72428402Y-53336253D01*
X72410223Y-53319777D01*
X72393747Y-53301598D01*
X72379133Y-53281893D01*
X72366520Y-53260849D01*
X72356030Y-53238671D01*
X72347765Y-53215571D01*
X72341804Y-53191773D01*
X72338204Y-53167504D01*
X72337000Y-53143000D01*
X72337000Y-51893000D01*
X72338204Y-51868496D01*
X72341804Y-51844227D01*
X72347765Y-51820429D01*
X72356030Y-51797329D01*
X72366520Y-51775151D01*
X72379133Y-51754107D01*
X72393747Y-51734402D01*
X72410223Y-51716223D01*
X72428402Y-51699747D01*
X72448107Y-51685133D01*
X72469151Y-51672520D01*
X72491329Y-51662030D01*
X72514429Y-51653765D01*
X72538227Y-51647804D01*
X72562496Y-51644204D01*
X72587000Y-51643000D01*
X73337000Y-51643000D01*
X73361504Y-51644204D01*
X73361504Y-51644204D01*
G37*
D16*
X72962000Y-52518000D03*
D11*
G36*
X76161504Y-51644204D02*
G01*
X76185773Y-51647804D01*
X76209571Y-51653765D01*
X76232671Y-51662030D01*
X76254849Y-51672520D01*
X76275893Y-51685133D01*
X76295598Y-51699747D01*
X76313777Y-51716223D01*
X76330253Y-51734402D01*
X76344867Y-51754107D01*
X76357480Y-51775151D01*
X76367970Y-51797329D01*
X76376235Y-51820429D01*
X76382196Y-51844227D01*
X76385796Y-51868496D01*
X76387000Y-51893000D01*
X76387000Y-53143000D01*
X76385796Y-53167504D01*
X76382196Y-53191773D01*
X76376235Y-53215571D01*
X76367970Y-53238671D01*
X76357480Y-53260849D01*
X76344867Y-53281893D01*
X76330253Y-53301598D01*
X76313777Y-53319777D01*
X76295598Y-53336253D01*
X76275893Y-53350867D01*
X76254849Y-53363480D01*
X76232671Y-53373970D01*
X76209571Y-53382235D01*
X76185773Y-53388196D01*
X76161504Y-53391796D01*
X76137000Y-53393000D01*
X75387000Y-53393000D01*
X75362496Y-53391796D01*
X75338227Y-53388196D01*
X75314429Y-53382235D01*
X75291329Y-53373970D01*
X75269151Y-53363480D01*
X75248107Y-53350867D01*
X75228402Y-53336253D01*
X75210223Y-53319777D01*
X75193747Y-53301598D01*
X75179133Y-53281893D01*
X75166520Y-53260849D01*
X75156030Y-53238671D01*
X75147765Y-53215571D01*
X75141804Y-53191773D01*
X75138204Y-53167504D01*
X75137000Y-53143000D01*
X75137000Y-51893000D01*
X75138204Y-51868496D01*
X75141804Y-51844227D01*
X75147765Y-51820429D01*
X75156030Y-51797329D01*
X75166520Y-51775151D01*
X75179133Y-51754107D01*
X75193747Y-51734402D01*
X75210223Y-51716223D01*
X75228402Y-51699747D01*
X75248107Y-51685133D01*
X75269151Y-51672520D01*
X75291329Y-51662030D01*
X75314429Y-51653765D01*
X75338227Y-51647804D01*
X75362496Y-51644204D01*
X75387000Y-51643000D01*
X76137000Y-51643000D01*
X76161504Y-51644204D01*
X76161504Y-51644204D01*
G37*
D16*
X75762000Y-52518000D03*
D11*
G36*
X76161504Y-54692204D02*
G01*
X76185773Y-54695804D01*
X76209571Y-54701765D01*
X76232671Y-54710030D01*
X76254849Y-54720520D01*
X76275893Y-54733133D01*
X76295598Y-54747747D01*
X76313777Y-54764223D01*
X76330253Y-54782402D01*
X76344867Y-54802107D01*
X76357480Y-54823151D01*
X76367970Y-54845329D01*
X76376235Y-54868429D01*
X76382196Y-54892227D01*
X76385796Y-54916496D01*
X76387000Y-54941000D01*
X76387000Y-56191000D01*
X76385796Y-56215504D01*
X76382196Y-56239773D01*
X76376235Y-56263571D01*
X76367970Y-56286671D01*
X76357480Y-56308849D01*
X76344867Y-56329893D01*
X76330253Y-56349598D01*
X76313777Y-56367777D01*
X76295598Y-56384253D01*
X76275893Y-56398867D01*
X76254849Y-56411480D01*
X76232671Y-56421970D01*
X76209571Y-56430235D01*
X76185773Y-56436196D01*
X76161504Y-56439796D01*
X76137000Y-56441000D01*
X75387000Y-56441000D01*
X75362496Y-56439796D01*
X75338227Y-56436196D01*
X75314429Y-56430235D01*
X75291329Y-56421970D01*
X75269151Y-56411480D01*
X75248107Y-56398867D01*
X75228402Y-56384253D01*
X75210223Y-56367777D01*
X75193747Y-56349598D01*
X75179133Y-56329893D01*
X75166520Y-56308849D01*
X75156030Y-56286671D01*
X75147765Y-56263571D01*
X75141804Y-56239773D01*
X75138204Y-56215504D01*
X75137000Y-56191000D01*
X75137000Y-54941000D01*
X75138204Y-54916496D01*
X75141804Y-54892227D01*
X75147765Y-54868429D01*
X75156030Y-54845329D01*
X75166520Y-54823151D01*
X75179133Y-54802107D01*
X75193747Y-54782402D01*
X75210223Y-54764223D01*
X75228402Y-54747747D01*
X75248107Y-54733133D01*
X75269151Y-54720520D01*
X75291329Y-54710030D01*
X75314429Y-54701765D01*
X75338227Y-54695804D01*
X75362496Y-54692204D01*
X75387000Y-54691000D01*
X76137000Y-54691000D01*
X76161504Y-54692204D01*
X76161504Y-54692204D01*
G37*
D16*
X75762000Y-55566000D03*
D11*
G36*
X73361504Y-54692204D02*
G01*
X73385773Y-54695804D01*
X73409571Y-54701765D01*
X73432671Y-54710030D01*
X73454849Y-54720520D01*
X73475893Y-54733133D01*
X73495598Y-54747747D01*
X73513777Y-54764223D01*
X73530253Y-54782402D01*
X73544867Y-54802107D01*
X73557480Y-54823151D01*
X73567970Y-54845329D01*
X73576235Y-54868429D01*
X73582196Y-54892227D01*
X73585796Y-54916496D01*
X73587000Y-54941000D01*
X73587000Y-56191000D01*
X73585796Y-56215504D01*
X73582196Y-56239773D01*
X73576235Y-56263571D01*
X73567970Y-56286671D01*
X73557480Y-56308849D01*
X73544867Y-56329893D01*
X73530253Y-56349598D01*
X73513777Y-56367777D01*
X73495598Y-56384253D01*
X73475893Y-56398867D01*
X73454849Y-56411480D01*
X73432671Y-56421970D01*
X73409571Y-56430235D01*
X73385773Y-56436196D01*
X73361504Y-56439796D01*
X73337000Y-56441000D01*
X72587000Y-56441000D01*
X72562496Y-56439796D01*
X72538227Y-56436196D01*
X72514429Y-56430235D01*
X72491329Y-56421970D01*
X72469151Y-56411480D01*
X72448107Y-56398867D01*
X72428402Y-56384253D01*
X72410223Y-56367777D01*
X72393747Y-56349598D01*
X72379133Y-56329893D01*
X72366520Y-56308849D01*
X72356030Y-56286671D01*
X72347765Y-56263571D01*
X72341804Y-56239773D01*
X72338204Y-56215504D01*
X72337000Y-56191000D01*
X72337000Y-54941000D01*
X72338204Y-54916496D01*
X72341804Y-54892227D01*
X72347765Y-54868429D01*
X72356030Y-54845329D01*
X72366520Y-54823151D01*
X72379133Y-54802107D01*
X72393747Y-54782402D01*
X72410223Y-54764223D01*
X72428402Y-54747747D01*
X72448107Y-54733133D01*
X72469151Y-54720520D01*
X72491329Y-54710030D01*
X72514429Y-54701765D01*
X72538227Y-54695804D01*
X72562496Y-54692204D01*
X72587000Y-54691000D01*
X73337000Y-54691000D01*
X73361504Y-54692204D01*
X73361504Y-54692204D01*
G37*
D16*
X72962000Y-55566000D03*
M02*
