G04 #@! TF.GenerationSoftware,KiCad,Pcbnew,(5.1.0)-1*
G04 #@! TF.CreationDate,2020-06-05T16:09:23+08:00*
G04 #@! TF.ProjectId,vibro_magnet,76696272-6f5f-46d6-9167-6e65742e6b69,rev?*
G04 #@! TF.SameCoordinates,Original*
G04 #@! TF.FileFunction,Legend,Bot*
G04 #@! TF.FilePolarity,Positive*
%FSLAX46Y46*%
G04 Gerber Fmt 4.6, Leading zero omitted, Abs format (unit mm)*
G04 Created by KiCad (PCBNEW (5.1.0)-1) date 2020-06-05 16:09:23*
%MOMM*%
%LPD*%
G04 APERTURE LIST*
%ADD10C,0.120000*%
%ADD11C,0.150000*%
G04 APERTURE END LIST*
D10*
X66510000Y-137650000D02*
X66510000Y-140100000D01*
X63290000Y-139450000D02*
X63290000Y-137650000D01*
X68540000Y-148917936D02*
X68540000Y-150122064D01*
X66720000Y-148917936D02*
X66720000Y-150122064D01*
X84810000Y-138791252D02*
X84810000Y-138268748D01*
X86230000Y-138791252D02*
X86230000Y-138268748D01*
X118740000Y-143270748D02*
X118740000Y-143793252D01*
X117320000Y-143270748D02*
X117320000Y-143793252D01*
X116730000Y-143250748D02*
X116730000Y-143773252D01*
X115310000Y-143250748D02*
X115310000Y-143773252D01*
X78090000Y-137049252D02*
X78090000Y-136526748D01*
X79510000Y-137049252D02*
X79510000Y-136526748D01*
X76090000Y-137049252D02*
X76090000Y-136526748D01*
X77510000Y-137049252D02*
X77510000Y-136526748D01*
X116431252Y-132110000D02*
X115908748Y-132110000D01*
X116431252Y-130690000D02*
X115908748Y-130690000D01*
X120711252Y-132080000D02*
X120188748Y-132080000D01*
X120711252Y-130660000D02*
X120188748Y-130660000D01*
X111502000Y-154878000D02*
X111502000Y-153418000D01*
X108342000Y-154878000D02*
X108342000Y-152718000D01*
X108342000Y-154878000D02*
X109272000Y-154878000D01*
X111502000Y-154878000D02*
X110572000Y-154878000D01*
X75260000Y-123500000D02*
X67710000Y-123500000D01*
X75260000Y-127800000D02*
X67710000Y-127800000D01*
X75260000Y-123500000D02*
X75260000Y-127800000D01*
X67182064Y-133790000D02*
X65977936Y-133790000D01*
X67182064Y-131970000D02*
X65977936Y-131970000D01*
X64598748Y-134750000D02*
X65121252Y-134750000D01*
X64598748Y-136170000D02*
X65121252Y-136170000D01*
X64688748Y-143530000D02*
X65211252Y-143530000D01*
X64688748Y-144950000D02*
X65211252Y-144950000D01*
X64668748Y-141440000D02*
X65191252Y-141440000D01*
X64668748Y-142860000D02*
X65191252Y-142860000D01*
X72630000Y-162592064D02*
X72630000Y-161387936D01*
X74450000Y-162592064D02*
X74450000Y-161387936D01*
X89260000Y-131531267D02*
X89260000Y-131188733D01*
X90280000Y-131531267D02*
X90280000Y-131188733D01*
X87580000Y-131531267D02*
X87580000Y-131188733D01*
X88600000Y-131531267D02*
X88600000Y-131188733D01*
X83130000Y-131561267D02*
X83130000Y-131218733D01*
X84150000Y-131561267D02*
X84150000Y-131218733D01*
X89161267Y-126830000D02*
X88818733Y-126830000D01*
X89161267Y-125810000D02*
X88818733Y-125810000D01*
X85123733Y-125780000D02*
X85466267Y-125780000D01*
X85123733Y-126800000D02*
X85466267Y-126800000D01*
X84250000Y-138168733D02*
X84250000Y-138511267D01*
X83230000Y-138168733D02*
X83230000Y-138511267D01*
X137340000Y-60711252D02*
X137340000Y-60188748D01*
X138760000Y-60711252D02*
X138760000Y-60188748D01*
X137760000Y-85551252D02*
X137760000Y-85028748D01*
X139180000Y-85551252D02*
X139180000Y-85028748D01*
X137660000Y-112215252D02*
X137660000Y-111692748D01*
X139080000Y-112215252D02*
X139080000Y-111692748D01*
X137660000Y-138885252D02*
X137660000Y-138362748D01*
X139080000Y-138885252D02*
X139080000Y-138362748D01*
X138740000Y-56358748D02*
X138740000Y-56881252D01*
X137320000Y-56358748D02*
X137320000Y-56881252D01*
X139190000Y-81198748D02*
X139190000Y-81721252D01*
X137770000Y-81198748D02*
X137770000Y-81721252D01*
X139080000Y-107882748D02*
X139080000Y-108405252D01*
X137660000Y-107882748D02*
X137660000Y-108405252D01*
X139080000Y-134552748D02*
X139080000Y-135075252D01*
X137660000Y-134552748D02*
X137660000Y-135075252D01*
X83411936Y-53428000D02*
X84616064Y-53428000D01*
X83411936Y-51608000D02*
X84616064Y-51608000D01*
X83411936Y-54656000D02*
X84616064Y-54656000D01*
X83411936Y-56476000D02*
X84616064Y-56476000D01*
X78585936Y-51608000D02*
X79790064Y-51608000D01*
X78585936Y-53428000D02*
X79790064Y-53428000D01*
X78585936Y-56476000D02*
X79790064Y-56476000D01*
X78585936Y-54656000D02*
X79790064Y-54656000D01*
X73759936Y-53428000D02*
X74964064Y-53428000D01*
X73759936Y-51608000D02*
X74964064Y-51608000D01*
X73759936Y-54656000D02*
X74964064Y-54656000D01*
X73759936Y-56476000D02*
X74964064Y-56476000D01*
D11*
X67052380Y-138338095D02*
X67861904Y-138338095D01*
X67957142Y-138385714D01*
X68004761Y-138433333D01*
X68052380Y-138528571D01*
X68052380Y-138719047D01*
X68004761Y-138814285D01*
X67957142Y-138861904D01*
X67861904Y-138909523D01*
X67052380Y-138909523D01*
X67052380Y-139861904D02*
X67052380Y-139385714D01*
X67528571Y-139338095D01*
X67480952Y-139385714D01*
X67433333Y-139480952D01*
X67433333Y-139719047D01*
X67480952Y-139814285D01*
X67528571Y-139861904D01*
X67623809Y-139909523D01*
X67861904Y-139909523D01*
X67957142Y-139861904D01*
X68004761Y-139814285D01*
X68052380Y-139719047D01*
X68052380Y-139480952D01*
X68004761Y-139385714D01*
X67957142Y-139338095D01*
X66262380Y-148877142D02*
X65786190Y-148543809D01*
X66262380Y-148305714D02*
X65262380Y-148305714D01*
X65262380Y-148686666D01*
X65310000Y-148781904D01*
X65357619Y-148829523D01*
X65452857Y-148877142D01*
X65595714Y-148877142D01*
X65690952Y-148829523D01*
X65738571Y-148781904D01*
X65786190Y-148686666D01*
X65786190Y-148305714D01*
X66262380Y-149829523D02*
X66262380Y-149258095D01*
X66262380Y-149543809D02*
X65262380Y-149543809D01*
X65405238Y-149448571D01*
X65500476Y-149353333D01*
X65548095Y-149258095D01*
X65262380Y-150162857D02*
X65262380Y-150829523D01*
X66262380Y-150400952D01*
X86142380Y-141177142D02*
X85666190Y-140843809D01*
X86142380Y-140605714D02*
X85142380Y-140605714D01*
X85142380Y-140986666D01*
X85190000Y-141081904D01*
X85237619Y-141129523D01*
X85332857Y-141177142D01*
X85475714Y-141177142D01*
X85570952Y-141129523D01*
X85618571Y-141081904D01*
X85666190Y-140986666D01*
X85666190Y-140605714D01*
X86142380Y-142129523D02*
X86142380Y-141558095D01*
X86142380Y-141843809D02*
X85142380Y-141843809D01*
X85285238Y-141748571D01*
X85380476Y-141653333D01*
X85428095Y-141558095D01*
X86142380Y-143081904D02*
X86142380Y-142510476D01*
X86142380Y-142796190D02*
X85142380Y-142796190D01*
X85285238Y-142700952D01*
X85380476Y-142605714D01*
X85428095Y-142510476D01*
X120212380Y-143707142D02*
X119736190Y-143373809D01*
X120212380Y-143135714D02*
X119212380Y-143135714D01*
X119212380Y-143516666D01*
X119260000Y-143611904D01*
X119307619Y-143659523D01*
X119402857Y-143707142D01*
X119545714Y-143707142D01*
X119640952Y-143659523D01*
X119688571Y-143611904D01*
X119736190Y-143516666D01*
X119736190Y-143135714D01*
X120212380Y-144659523D02*
X120212380Y-144088095D01*
X120212380Y-144373809D02*
X119212380Y-144373809D01*
X119355238Y-144278571D01*
X119450476Y-144183333D01*
X119498095Y-144088095D01*
X119212380Y-145278571D02*
X119212380Y-145373809D01*
X119260000Y-145469047D01*
X119307619Y-145516666D01*
X119402857Y-145564285D01*
X119593333Y-145611904D01*
X119831428Y-145611904D01*
X120021904Y-145564285D01*
X120117142Y-145516666D01*
X120164761Y-145469047D01*
X120212380Y-145373809D01*
X120212380Y-145278571D01*
X120164761Y-145183333D01*
X120117142Y-145135714D01*
X120021904Y-145088095D01*
X119831428Y-145040476D01*
X119593333Y-145040476D01*
X119402857Y-145088095D01*
X119307619Y-145135714D01*
X119260000Y-145183333D01*
X119212380Y-145278571D01*
X115642380Y-146233333D02*
X115166190Y-145900000D01*
X115642380Y-145661904D02*
X114642380Y-145661904D01*
X114642380Y-146042857D01*
X114690000Y-146138095D01*
X114737619Y-146185714D01*
X114832857Y-146233333D01*
X114975714Y-146233333D01*
X115070952Y-146185714D01*
X115118571Y-146138095D01*
X115166190Y-146042857D01*
X115166190Y-145661904D01*
X115642380Y-146709523D02*
X115642380Y-146900000D01*
X115594761Y-146995238D01*
X115547142Y-147042857D01*
X115404285Y-147138095D01*
X115213809Y-147185714D01*
X114832857Y-147185714D01*
X114737619Y-147138095D01*
X114690000Y-147090476D01*
X114642380Y-146995238D01*
X114642380Y-146804761D01*
X114690000Y-146709523D01*
X114737619Y-146661904D01*
X114832857Y-146614285D01*
X115070952Y-146614285D01*
X115166190Y-146661904D01*
X115213809Y-146709523D01*
X115261428Y-146804761D01*
X115261428Y-146995238D01*
X115213809Y-147090476D01*
X115166190Y-147138095D01*
X115070952Y-147185714D01*
X80912380Y-137243333D02*
X80436190Y-136910000D01*
X80912380Y-136671904D02*
X79912380Y-136671904D01*
X79912380Y-137052857D01*
X79960000Y-137148095D01*
X80007619Y-137195714D01*
X80102857Y-137243333D01*
X80245714Y-137243333D01*
X80340952Y-137195714D01*
X80388571Y-137148095D01*
X80436190Y-137052857D01*
X80436190Y-136671904D01*
X80340952Y-137814761D02*
X80293333Y-137719523D01*
X80245714Y-137671904D01*
X80150476Y-137624285D01*
X80102857Y-137624285D01*
X80007619Y-137671904D01*
X79960000Y-137719523D01*
X79912380Y-137814761D01*
X79912380Y-138005238D01*
X79960000Y-138100476D01*
X80007619Y-138148095D01*
X80102857Y-138195714D01*
X80150476Y-138195714D01*
X80245714Y-138148095D01*
X80293333Y-138100476D01*
X80340952Y-138005238D01*
X80340952Y-137814761D01*
X80388571Y-137719523D01*
X80436190Y-137671904D01*
X80531428Y-137624285D01*
X80721904Y-137624285D01*
X80817142Y-137671904D01*
X80864761Y-137719523D01*
X80912380Y-137814761D01*
X80912380Y-138005238D01*
X80864761Y-138100476D01*
X80817142Y-138148095D01*
X80721904Y-138195714D01*
X80531428Y-138195714D01*
X80436190Y-138148095D01*
X80388571Y-138100476D01*
X80340952Y-138005238D01*
X75402380Y-136603333D02*
X74926190Y-136270000D01*
X75402380Y-136031904D02*
X74402380Y-136031904D01*
X74402380Y-136412857D01*
X74450000Y-136508095D01*
X74497619Y-136555714D01*
X74592857Y-136603333D01*
X74735714Y-136603333D01*
X74830952Y-136555714D01*
X74878571Y-136508095D01*
X74926190Y-136412857D01*
X74926190Y-136031904D01*
X74402380Y-136936666D02*
X74402380Y-137603333D01*
X75402380Y-137174761D01*
X116336666Y-130202380D02*
X116670000Y-129726190D01*
X116908095Y-130202380D02*
X116908095Y-129202380D01*
X116527142Y-129202380D01*
X116431904Y-129250000D01*
X116384285Y-129297619D01*
X116336666Y-129392857D01*
X116336666Y-129535714D01*
X116384285Y-129630952D01*
X116431904Y-129678571D01*
X116527142Y-129726190D01*
X116908095Y-129726190D01*
X115479523Y-129202380D02*
X115670000Y-129202380D01*
X115765238Y-129250000D01*
X115812857Y-129297619D01*
X115908095Y-129440476D01*
X115955714Y-129630952D01*
X115955714Y-130011904D01*
X115908095Y-130107142D01*
X115860476Y-130154761D01*
X115765238Y-130202380D01*
X115574761Y-130202380D01*
X115479523Y-130154761D01*
X115431904Y-130107142D01*
X115384285Y-130011904D01*
X115384285Y-129773809D01*
X115431904Y-129678571D01*
X115479523Y-129630952D01*
X115574761Y-129583333D01*
X115765238Y-129583333D01*
X115860476Y-129630952D01*
X115908095Y-129678571D01*
X115955714Y-129773809D01*
X120616666Y-130172380D02*
X120950000Y-129696190D01*
X121188095Y-130172380D02*
X121188095Y-129172380D01*
X120807142Y-129172380D01*
X120711904Y-129220000D01*
X120664285Y-129267619D01*
X120616666Y-129362857D01*
X120616666Y-129505714D01*
X120664285Y-129600952D01*
X120711904Y-129648571D01*
X120807142Y-129696190D01*
X121188095Y-129696190D01*
X119759523Y-129505714D02*
X119759523Y-130172380D01*
X119997619Y-129124761D02*
X120235714Y-129839047D01*
X119616666Y-129839047D01*
X107874380Y-153379904D02*
X106874380Y-153379904D01*
X106874380Y-153618000D01*
X106922000Y-153760857D01*
X107017238Y-153856095D01*
X107112476Y-153903714D01*
X107302952Y-153951333D01*
X107445809Y-153951333D01*
X107636285Y-153903714D01*
X107731523Y-153856095D01*
X107826761Y-153760857D01*
X107874380Y-153618000D01*
X107874380Y-153379904D01*
X106874380Y-154284666D02*
X106874380Y-154903714D01*
X107255333Y-154570380D01*
X107255333Y-154713238D01*
X107302952Y-154808476D01*
X107350571Y-154856095D01*
X107445809Y-154903714D01*
X107683904Y-154903714D01*
X107779142Y-154856095D01*
X107826761Y-154808476D01*
X107874380Y-154713238D01*
X107874380Y-154427523D01*
X107826761Y-154332285D01*
X107779142Y-154284666D01*
X71148095Y-123102380D02*
X71148095Y-122102380D01*
X70910000Y-122102380D01*
X70767142Y-122150000D01*
X70671904Y-122245238D01*
X70624285Y-122340476D01*
X70576666Y-122530952D01*
X70576666Y-122673809D01*
X70624285Y-122864285D01*
X70671904Y-122959523D01*
X70767142Y-123054761D01*
X70910000Y-123102380D01*
X71148095Y-123102380D01*
X70195714Y-122197619D02*
X70148095Y-122150000D01*
X70052857Y-122102380D01*
X69814761Y-122102380D01*
X69719523Y-122150000D01*
X69671904Y-122197619D01*
X69624285Y-122292857D01*
X69624285Y-122388095D01*
X69671904Y-122530952D01*
X70243333Y-123102380D01*
X69624285Y-123102380D01*
X63442857Y-133267142D02*
X63490476Y-133314761D01*
X63633333Y-133362380D01*
X63728571Y-133362380D01*
X63871428Y-133314761D01*
X63966666Y-133219523D01*
X64014285Y-133124285D01*
X64061904Y-132933809D01*
X64061904Y-132790952D01*
X64014285Y-132600476D01*
X63966666Y-132505238D01*
X63871428Y-132410000D01*
X63728571Y-132362380D01*
X63633333Y-132362380D01*
X63490476Y-132410000D01*
X63442857Y-132457619D01*
X62490476Y-133362380D02*
X63061904Y-133362380D01*
X62776190Y-133362380D02*
X62776190Y-132362380D01*
X62871428Y-132505238D01*
X62966666Y-132600476D01*
X63061904Y-132648095D01*
X61919047Y-132790952D02*
X62014285Y-132743333D01*
X62061904Y-132695714D01*
X62109523Y-132600476D01*
X62109523Y-132552857D01*
X62061904Y-132457619D01*
X62014285Y-132410000D01*
X61919047Y-132362380D01*
X61728571Y-132362380D01*
X61633333Y-132410000D01*
X61585714Y-132457619D01*
X61538095Y-132552857D01*
X61538095Y-132600476D01*
X61585714Y-132695714D01*
X61633333Y-132743333D01*
X61728571Y-132790952D01*
X61919047Y-132790952D01*
X62014285Y-132838571D01*
X62061904Y-132886190D01*
X62109523Y-132981428D01*
X62109523Y-133171904D01*
X62061904Y-133267142D01*
X62014285Y-133314761D01*
X61919047Y-133362380D01*
X61728571Y-133362380D01*
X61633333Y-133314761D01*
X61585714Y-133267142D01*
X61538095Y-133171904D01*
X61538095Y-132981428D01*
X61585714Y-132886190D01*
X61633333Y-132838571D01*
X61728571Y-132790952D01*
X62192857Y-135847142D02*
X62240476Y-135894761D01*
X62383333Y-135942380D01*
X62478571Y-135942380D01*
X62621428Y-135894761D01*
X62716666Y-135799523D01*
X62764285Y-135704285D01*
X62811904Y-135513809D01*
X62811904Y-135370952D01*
X62764285Y-135180476D01*
X62716666Y-135085238D01*
X62621428Y-134990000D01*
X62478571Y-134942380D01*
X62383333Y-134942380D01*
X62240476Y-134990000D01*
X62192857Y-135037619D01*
X61240476Y-135942380D02*
X61811904Y-135942380D01*
X61526190Y-135942380D02*
X61526190Y-134942380D01*
X61621428Y-135085238D01*
X61716666Y-135180476D01*
X61811904Y-135228095D01*
X60907142Y-134942380D02*
X60240476Y-134942380D01*
X60669047Y-135942380D01*
X61802857Y-144707142D02*
X61850476Y-144754761D01*
X61993333Y-144802380D01*
X62088571Y-144802380D01*
X62231428Y-144754761D01*
X62326666Y-144659523D01*
X62374285Y-144564285D01*
X62421904Y-144373809D01*
X62421904Y-144230952D01*
X62374285Y-144040476D01*
X62326666Y-143945238D01*
X62231428Y-143850000D01*
X62088571Y-143802380D01*
X61993333Y-143802380D01*
X61850476Y-143850000D01*
X61802857Y-143897619D01*
X60850476Y-144802380D02*
X61421904Y-144802380D01*
X61136190Y-144802380D02*
X61136190Y-143802380D01*
X61231428Y-143945238D01*
X61326666Y-144040476D01*
X61421904Y-144088095D01*
X59993333Y-143802380D02*
X60183809Y-143802380D01*
X60279047Y-143850000D01*
X60326666Y-143897619D01*
X60421904Y-144040476D01*
X60469523Y-144230952D01*
X60469523Y-144611904D01*
X60421904Y-144707142D01*
X60374285Y-144754761D01*
X60279047Y-144802380D01*
X60088571Y-144802380D01*
X59993333Y-144754761D01*
X59945714Y-144707142D01*
X59898095Y-144611904D01*
X59898095Y-144373809D01*
X59945714Y-144278571D01*
X59993333Y-144230952D01*
X60088571Y-144183333D01*
X60279047Y-144183333D01*
X60374285Y-144230952D01*
X60421904Y-144278571D01*
X60469523Y-144373809D01*
X61772857Y-142467142D02*
X61820476Y-142514761D01*
X61963333Y-142562380D01*
X62058571Y-142562380D01*
X62201428Y-142514761D01*
X62296666Y-142419523D01*
X62344285Y-142324285D01*
X62391904Y-142133809D01*
X62391904Y-141990952D01*
X62344285Y-141800476D01*
X62296666Y-141705238D01*
X62201428Y-141610000D01*
X62058571Y-141562380D01*
X61963333Y-141562380D01*
X61820476Y-141610000D01*
X61772857Y-141657619D01*
X60820476Y-142562380D02*
X61391904Y-142562380D01*
X61106190Y-142562380D02*
X61106190Y-141562380D01*
X61201428Y-141705238D01*
X61296666Y-141800476D01*
X61391904Y-141848095D01*
X59915714Y-141562380D02*
X60391904Y-141562380D01*
X60439523Y-142038571D01*
X60391904Y-141990952D01*
X60296666Y-141943333D01*
X60058571Y-141943333D01*
X59963333Y-141990952D01*
X59915714Y-142038571D01*
X59868095Y-142133809D01*
X59868095Y-142371904D01*
X59915714Y-142467142D01*
X59963333Y-142514761D01*
X60058571Y-142562380D01*
X60296666Y-142562380D01*
X60391904Y-142514761D01*
X60439523Y-142467142D01*
X75717142Y-161347142D02*
X75764761Y-161299523D01*
X75812380Y-161156666D01*
X75812380Y-161061428D01*
X75764761Y-160918571D01*
X75669523Y-160823333D01*
X75574285Y-160775714D01*
X75383809Y-160728095D01*
X75240952Y-160728095D01*
X75050476Y-160775714D01*
X74955238Y-160823333D01*
X74860000Y-160918571D01*
X74812380Y-161061428D01*
X74812380Y-161156666D01*
X74860000Y-161299523D01*
X74907619Y-161347142D01*
X75812380Y-162299523D02*
X75812380Y-161728095D01*
X75812380Y-162013809D02*
X74812380Y-162013809D01*
X74955238Y-161918571D01*
X75050476Y-161823333D01*
X75098095Y-161728095D01*
X74812380Y-162632857D02*
X74812380Y-163251904D01*
X75193333Y-162918571D01*
X75193333Y-163061428D01*
X75240952Y-163156666D01*
X75288571Y-163204285D01*
X75383809Y-163251904D01*
X75621904Y-163251904D01*
X75717142Y-163204285D01*
X75764761Y-163156666D01*
X75812380Y-163061428D01*
X75812380Y-162775714D01*
X75764761Y-162680476D01*
X75717142Y-162632857D01*
X91617142Y-128337142D02*
X91664761Y-128289523D01*
X91712380Y-128146666D01*
X91712380Y-128051428D01*
X91664761Y-127908571D01*
X91569523Y-127813333D01*
X91474285Y-127765714D01*
X91283809Y-127718095D01*
X91140952Y-127718095D01*
X90950476Y-127765714D01*
X90855238Y-127813333D01*
X90760000Y-127908571D01*
X90712380Y-128051428D01*
X90712380Y-128146666D01*
X90760000Y-128289523D01*
X90807619Y-128337142D01*
X91712380Y-129289523D02*
X91712380Y-128718095D01*
X91712380Y-129003809D02*
X90712380Y-129003809D01*
X90855238Y-128908571D01*
X90950476Y-128813333D01*
X90998095Y-128718095D01*
X90807619Y-129670476D02*
X90760000Y-129718095D01*
X90712380Y-129813333D01*
X90712380Y-130051428D01*
X90760000Y-130146666D01*
X90807619Y-130194285D01*
X90902857Y-130241904D01*
X90998095Y-130241904D01*
X91140952Y-130194285D01*
X91712380Y-129622857D01*
X91712380Y-130241904D01*
X86977142Y-129207142D02*
X87024761Y-129159523D01*
X87072380Y-129016666D01*
X87072380Y-128921428D01*
X87024761Y-128778571D01*
X86929523Y-128683333D01*
X86834285Y-128635714D01*
X86643809Y-128588095D01*
X86500952Y-128588095D01*
X86310476Y-128635714D01*
X86215238Y-128683333D01*
X86120000Y-128778571D01*
X86072380Y-128921428D01*
X86072380Y-129016666D01*
X86120000Y-129159523D01*
X86167619Y-129207142D01*
X87072380Y-130159523D02*
X87072380Y-129588095D01*
X87072380Y-129873809D02*
X86072380Y-129873809D01*
X86215238Y-129778571D01*
X86310476Y-129683333D01*
X86358095Y-129588095D01*
X87072380Y-131111904D02*
X87072380Y-130540476D01*
X87072380Y-130826190D02*
X86072380Y-130826190D01*
X86215238Y-130730952D01*
X86310476Y-130635714D01*
X86358095Y-130540476D01*
X82537142Y-130667142D02*
X82584761Y-130619523D01*
X82632380Y-130476666D01*
X82632380Y-130381428D01*
X82584761Y-130238571D01*
X82489523Y-130143333D01*
X82394285Y-130095714D01*
X82203809Y-130048095D01*
X82060952Y-130048095D01*
X81870476Y-130095714D01*
X81775238Y-130143333D01*
X81680000Y-130238571D01*
X81632380Y-130381428D01*
X81632380Y-130476666D01*
X81680000Y-130619523D01*
X81727619Y-130667142D01*
X82632380Y-131619523D02*
X82632380Y-131048095D01*
X82632380Y-131333809D02*
X81632380Y-131333809D01*
X81775238Y-131238571D01*
X81870476Y-131143333D01*
X81918095Y-131048095D01*
X81632380Y-132238571D02*
X81632380Y-132333809D01*
X81680000Y-132429047D01*
X81727619Y-132476666D01*
X81822857Y-132524285D01*
X82013333Y-132571904D01*
X82251428Y-132571904D01*
X82441904Y-132524285D01*
X82537142Y-132476666D01*
X82584761Y-132429047D01*
X82632380Y-132333809D01*
X82632380Y-132238571D01*
X82584761Y-132143333D01*
X82537142Y-132095714D01*
X82441904Y-132048095D01*
X82251428Y-132000476D01*
X82013333Y-132000476D01*
X81822857Y-132048095D01*
X81727619Y-132095714D01*
X81680000Y-132143333D01*
X81632380Y-132238571D01*
X89156666Y-125247142D02*
X89204285Y-125294761D01*
X89347142Y-125342380D01*
X89442380Y-125342380D01*
X89585238Y-125294761D01*
X89680476Y-125199523D01*
X89728095Y-125104285D01*
X89775714Y-124913809D01*
X89775714Y-124770952D01*
X89728095Y-124580476D01*
X89680476Y-124485238D01*
X89585238Y-124390000D01*
X89442380Y-124342380D01*
X89347142Y-124342380D01*
X89204285Y-124390000D01*
X89156666Y-124437619D01*
X88680476Y-125342380D02*
X88490000Y-125342380D01*
X88394761Y-125294761D01*
X88347142Y-125247142D01*
X88251904Y-125104285D01*
X88204285Y-124913809D01*
X88204285Y-124532857D01*
X88251904Y-124437619D01*
X88299523Y-124390000D01*
X88394761Y-124342380D01*
X88585238Y-124342380D01*
X88680476Y-124390000D01*
X88728095Y-124437619D01*
X88775714Y-124532857D01*
X88775714Y-124770952D01*
X88728095Y-124866190D01*
X88680476Y-124913809D01*
X88585238Y-124961428D01*
X88394761Y-124961428D01*
X88299523Y-124913809D01*
X88251904Y-124866190D01*
X88204285Y-124770952D01*
X85461666Y-128077142D02*
X85509285Y-128124761D01*
X85652142Y-128172380D01*
X85747380Y-128172380D01*
X85890238Y-128124761D01*
X85985476Y-128029523D01*
X86033095Y-127934285D01*
X86080714Y-127743809D01*
X86080714Y-127600952D01*
X86033095Y-127410476D01*
X85985476Y-127315238D01*
X85890238Y-127220000D01*
X85747380Y-127172380D01*
X85652142Y-127172380D01*
X85509285Y-127220000D01*
X85461666Y-127267619D01*
X84890238Y-127600952D02*
X84985476Y-127553333D01*
X85033095Y-127505714D01*
X85080714Y-127410476D01*
X85080714Y-127362857D01*
X85033095Y-127267619D01*
X84985476Y-127220000D01*
X84890238Y-127172380D01*
X84699761Y-127172380D01*
X84604523Y-127220000D01*
X84556904Y-127267619D01*
X84509285Y-127362857D01*
X84509285Y-127410476D01*
X84556904Y-127505714D01*
X84604523Y-127553333D01*
X84699761Y-127600952D01*
X84890238Y-127600952D01*
X84985476Y-127648571D01*
X85033095Y-127696190D01*
X85080714Y-127791428D01*
X85080714Y-127981904D01*
X85033095Y-128077142D01*
X84985476Y-128124761D01*
X84890238Y-128172380D01*
X84699761Y-128172380D01*
X84604523Y-128124761D01*
X84556904Y-128077142D01*
X84509285Y-127981904D01*
X84509285Y-127791428D01*
X84556904Y-127696190D01*
X84604523Y-127648571D01*
X84699761Y-127600952D01*
X82687142Y-138893333D02*
X82734761Y-138845714D01*
X82782380Y-138702857D01*
X82782380Y-138607619D01*
X82734761Y-138464761D01*
X82639523Y-138369523D01*
X82544285Y-138321904D01*
X82353809Y-138274285D01*
X82210952Y-138274285D01*
X82020476Y-138321904D01*
X81925238Y-138369523D01*
X81830000Y-138464761D01*
X81782380Y-138607619D01*
X81782380Y-138702857D01*
X81830000Y-138845714D01*
X81877619Y-138893333D01*
X81782380Y-139226666D02*
X81782380Y-139893333D01*
X82782380Y-139464761D01*
X138652380Y-63367142D02*
X138176190Y-63033809D01*
X138652380Y-62795714D02*
X137652380Y-62795714D01*
X137652380Y-63176666D01*
X137700000Y-63271904D01*
X137747619Y-63319523D01*
X137842857Y-63367142D01*
X137985714Y-63367142D01*
X138080952Y-63319523D01*
X138128571Y-63271904D01*
X138176190Y-63176666D01*
X138176190Y-62795714D01*
X137652380Y-64271904D02*
X137652380Y-63795714D01*
X138128571Y-63748095D01*
X138080952Y-63795714D01*
X138033333Y-63890952D01*
X138033333Y-64129047D01*
X138080952Y-64224285D01*
X138128571Y-64271904D01*
X138223809Y-64319523D01*
X138461904Y-64319523D01*
X138557142Y-64271904D01*
X138604761Y-64224285D01*
X138652380Y-64129047D01*
X138652380Y-63890952D01*
X138604761Y-63795714D01*
X138557142Y-63748095D01*
X137652380Y-64938571D02*
X137652380Y-65033809D01*
X137700000Y-65129047D01*
X137747619Y-65176666D01*
X137842857Y-65224285D01*
X138033333Y-65271904D01*
X138271428Y-65271904D01*
X138461904Y-65224285D01*
X138557142Y-65176666D01*
X138604761Y-65129047D01*
X138652380Y-65033809D01*
X138652380Y-64938571D01*
X138604761Y-64843333D01*
X138557142Y-64795714D01*
X138461904Y-64748095D01*
X138271428Y-64700476D01*
X138033333Y-64700476D01*
X137842857Y-64748095D01*
X137747619Y-64795714D01*
X137700000Y-64843333D01*
X137652380Y-64938571D01*
X139022380Y-88157142D02*
X138546190Y-87823809D01*
X139022380Y-87585714D02*
X138022380Y-87585714D01*
X138022380Y-87966666D01*
X138070000Y-88061904D01*
X138117619Y-88109523D01*
X138212857Y-88157142D01*
X138355714Y-88157142D01*
X138450952Y-88109523D01*
X138498571Y-88061904D01*
X138546190Y-87966666D01*
X138546190Y-87585714D01*
X138022380Y-89061904D02*
X138022380Y-88585714D01*
X138498571Y-88538095D01*
X138450952Y-88585714D01*
X138403333Y-88680952D01*
X138403333Y-88919047D01*
X138450952Y-89014285D01*
X138498571Y-89061904D01*
X138593809Y-89109523D01*
X138831904Y-89109523D01*
X138927142Y-89061904D01*
X138974761Y-89014285D01*
X139022380Y-88919047D01*
X139022380Y-88680952D01*
X138974761Y-88585714D01*
X138927142Y-88538095D01*
X139022380Y-90061904D02*
X139022380Y-89490476D01*
X139022380Y-89776190D02*
X138022380Y-89776190D01*
X138165238Y-89680952D01*
X138260476Y-89585714D01*
X138308095Y-89490476D01*
X138762380Y-114687142D02*
X138286190Y-114353809D01*
X138762380Y-114115714D02*
X137762380Y-114115714D01*
X137762380Y-114496666D01*
X137810000Y-114591904D01*
X137857619Y-114639523D01*
X137952857Y-114687142D01*
X138095714Y-114687142D01*
X138190952Y-114639523D01*
X138238571Y-114591904D01*
X138286190Y-114496666D01*
X138286190Y-114115714D01*
X137762380Y-115591904D02*
X137762380Y-115115714D01*
X138238571Y-115068095D01*
X138190952Y-115115714D01*
X138143333Y-115210952D01*
X138143333Y-115449047D01*
X138190952Y-115544285D01*
X138238571Y-115591904D01*
X138333809Y-115639523D01*
X138571904Y-115639523D01*
X138667142Y-115591904D01*
X138714761Y-115544285D01*
X138762380Y-115449047D01*
X138762380Y-115210952D01*
X138714761Y-115115714D01*
X138667142Y-115068095D01*
X137857619Y-116020476D02*
X137810000Y-116068095D01*
X137762380Y-116163333D01*
X137762380Y-116401428D01*
X137810000Y-116496666D01*
X137857619Y-116544285D01*
X137952857Y-116591904D01*
X138048095Y-116591904D01*
X138190952Y-116544285D01*
X138762380Y-115972857D01*
X138762380Y-116591904D01*
X138872380Y-141547142D02*
X138396190Y-141213809D01*
X138872380Y-140975714D02*
X137872380Y-140975714D01*
X137872380Y-141356666D01*
X137920000Y-141451904D01*
X137967619Y-141499523D01*
X138062857Y-141547142D01*
X138205714Y-141547142D01*
X138300952Y-141499523D01*
X138348571Y-141451904D01*
X138396190Y-141356666D01*
X138396190Y-140975714D01*
X137872380Y-142451904D02*
X137872380Y-141975714D01*
X138348571Y-141928095D01*
X138300952Y-141975714D01*
X138253333Y-142070952D01*
X138253333Y-142309047D01*
X138300952Y-142404285D01*
X138348571Y-142451904D01*
X138443809Y-142499523D01*
X138681904Y-142499523D01*
X138777142Y-142451904D01*
X138824761Y-142404285D01*
X138872380Y-142309047D01*
X138872380Y-142070952D01*
X138824761Y-141975714D01*
X138777142Y-141928095D01*
X137872380Y-142832857D02*
X137872380Y-143451904D01*
X138253333Y-143118571D01*
X138253333Y-143261428D01*
X138300952Y-143356666D01*
X138348571Y-143404285D01*
X138443809Y-143451904D01*
X138681904Y-143451904D01*
X138777142Y-143404285D01*
X138824761Y-143356666D01*
X138872380Y-143261428D01*
X138872380Y-142975714D01*
X138824761Y-142880476D01*
X138777142Y-142832857D01*
X138492380Y-52397142D02*
X138016190Y-52063809D01*
X138492380Y-51825714D02*
X137492380Y-51825714D01*
X137492380Y-52206666D01*
X137540000Y-52301904D01*
X137587619Y-52349523D01*
X137682857Y-52397142D01*
X137825714Y-52397142D01*
X137920952Y-52349523D01*
X137968571Y-52301904D01*
X138016190Y-52206666D01*
X138016190Y-51825714D01*
X137492380Y-53301904D02*
X137492380Y-52825714D01*
X137968571Y-52778095D01*
X137920952Y-52825714D01*
X137873333Y-52920952D01*
X137873333Y-53159047D01*
X137920952Y-53254285D01*
X137968571Y-53301904D01*
X138063809Y-53349523D01*
X138301904Y-53349523D01*
X138397142Y-53301904D01*
X138444761Y-53254285D01*
X138492380Y-53159047D01*
X138492380Y-52920952D01*
X138444761Y-52825714D01*
X138397142Y-52778095D01*
X137825714Y-54206666D02*
X138492380Y-54206666D01*
X137444761Y-53968571D02*
X138159047Y-53730476D01*
X138159047Y-54349523D01*
X138932380Y-77437142D02*
X138456190Y-77103809D01*
X138932380Y-76865714D02*
X137932380Y-76865714D01*
X137932380Y-77246666D01*
X137980000Y-77341904D01*
X138027619Y-77389523D01*
X138122857Y-77437142D01*
X138265714Y-77437142D01*
X138360952Y-77389523D01*
X138408571Y-77341904D01*
X138456190Y-77246666D01*
X138456190Y-76865714D01*
X137932380Y-78341904D02*
X137932380Y-77865714D01*
X138408571Y-77818095D01*
X138360952Y-77865714D01*
X138313333Y-77960952D01*
X138313333Y-78199047D01*
X138360952Y-78294285D01*
X138408571Y-78341904D01*
X138503809Y-78389523D01*
X138741904Y-78389523D01*
X138837142Y-78341904D01*
X138884761Y-78294285D01*
X138932380Y-78199047D01*
X138932380Y-77960952D01*
X138884761Y-77865714D01*
X138837142Y-77818095D01*
X137932380Y-79294285D02*
X137932380Y-78818095D01*
X138408571Y-78770476D01*
X138360952Y-78818095D01*
X138313333Y-78913333D01*
X138313333Y-79151428D01*
X138360952Y-79246666D01*
X138408571Y-79294285D01*
X138503809Y-79341904D01*
X138741904Y-79341904D01*
X138837142Y-79294285D01*
X138884761Y-79246666D01*
X138932380Y-79151428D01*
X138932380Y-78913333D01*
X138884761Y-78818095D01*
X138837142Y-78770476D01*
X138812380Y-103987142D02*
X138336190Y-103653809D01*
X138812380Y-103415714D02*
X137812380Y-103415714D01*
X137812380Y-103796666D01*
X137860000Y-103891904D01*
X137907619Y-103939523D01*
X138002857Y-103987142D01*
X138145714Y-103987142D01*
X138240952Y-103939523D01*
X138288571Y-103891904D01*
X138336190Y-103796666D01*
X138336190Y-103415714D01*
X137812380Y-104891904D02*
X137812380Y-104415714D01*
X138288571Y-104368095D01*
X138240952Y-104415714D01*
X138193333Y-104510952D01*
X138193333Y-104749047D01*
X138240952Y-104844285D01*
X138288571Y-104891904D01*
X138383809Y-104939523D01*
X138621904Y-104939523D01*
X138717142Y-104891904D01*
X138764761Y-104844285D01*
X138812380Y-104749047D01*
X138812380Y-104510952D01*
X138764761Y-104415714D01*
X138717142Y-104368095D01*
X137812380Y-105796666D02*
X137812380Y-105606190D01*
X137860000Y-105510952D01*
X137907619Y-105463333D01*
X138050476Y-105368095D01*
X138240952Y-105320476D01*
X138621904Y-105320476D01*
X138717142Y-105368095D01*
X138764761Y-105415714D01*
X138812380Y-105510952D01*
X138812380Y-105701428D01*
X138764761Y-105796666D01*
X138717142Y-105844285D01*
X138621904Y-105891904D01*
X138383809Y-105891904D01*
X138288571Y-105844285D01*
X138240952Y-105796666D01*
X138193333Y-105701428D01*
X138193333Y-105510952D01*
X138240952Y-105415714D01*
X138288571Y-105368095D01*
X138383809Y-105320476D01*
X138842380Y-130827142D02*
X138366190Y-130493809D01*
X138842380Y-130255714D02*
X137842380Y-130255714D01*
X137842380Y-130636666D01*
X137890000Y-130731904D01*
X137937619Y-130779523D01*
X138032857Y-130827142D01*
X138175714Y-130827142D01*
X138270952Y-130779523D01*
X138318571Y-130731904D01*
X138366190Y-130636666D01*
X138366190Y-130255714D01*
X137842380Y-131731904D02*
X137842380Y-131255714D01*
X138318571Y-131208095D01*
X138270952Y-131255714D01*
X138223333Y-131350952D01*
X138223333Y-131589047D01*
X138270952Y-131684285D01*
X138318571Y-131731904D01*
X138413809Y-131779523D01*
X138651904Y-131779523D01*
X138747142Y-131731904D01*
X138794761Y-131684285D01*
X138842380Y-131589047D01*
X138842380Y-131350952D01*
X138794761Y-131255714D01*
X138747142Y-131208095D01*
X137842380Y-132112857D02*
X137842380Y-132779523D01*
X138842380Y-132350952D01*
X84322857Y-51232380D02*
X84656190Y-50756190D01*
X84894285Y-51232380D02*
X84894285Y-50232380D01*
X84513333Y-50232380D01*
X84418095Y-50280000D01*
X84370476Y-50327619D01*
X84322857Y-50422857D01*
X84322857Y-50565714D01*
X84370476Y-50660952D01*
X84418095Y-50708571D01*
X84513333Y-50756190D01*
X84894285Y-50756190D01*
X83989523Y-50232380D02*
X83322857Y-50232380D01*
X83751428Y-51232380D01*
X82751428Y-50232380D02*
X82656190Y-50232380D01*
X82560952Y-50280000D01*
X82513333Y-50327619D01*
X82465714Y-50422857D01*
X82418095Y-50613333D01*
X82418095Y-50851428D01*
X82465714Y-51041904D01*
X82513333Y-51137142D01*
X82560952Y-51184761D01*
X82656190Y-51232380D01*
X82751428Y-51232380D01*
X82846666Y-51184761D01*
X82894285Y-51137142D01*
X82941904Y-51041904D01*
X82989523Y-50851428D01*
X82989523Y-50613333D01*
X82941904Y-50422857D01*
X82894285Y-50327619D01*
X82846666Y-50280000D01*
X82751428Y-50232380D01*
X84656857Y-57838380D02*
X84990190Y-57362190D01*
X85228285Y-57838380D02*
X85228285Y-56838380D01*
X84847333Y-56838380D01*
X84752095Y-56886000D01*
X84704476Y-56933619D01*
X84656857Y-57028857D01*
X84656857Y-57171714D01*
X84704476Y-57266952D01*
X84752095Y-57314571D01*
X84847333Y-57362190D01*
X85228285Y-57362190D01*
X84323523Y-56838380D02*
X83656857Y-56838380D01*
X84085428Y-57838380D01*
X83371142Y-56838380D02*
X82752095Y-56838380D01*
X83085428Y-57219333D01*
X82942571Y-57219333D01*
X82847333Y-57266952D01*
X82799714Y-57314571D01*
X82752095Y-57409809D01*
X82752095Y-57647904D01*
X82799714Y-57743142D01*
X82847333Y-57790761D01*
X82942571Y-57838380D01*
X83228285Y-57838380D01*
X83323523Y-57790761D01*
X83371142Y-57743142D01*
X79782857Y-51212380D02*
X80116190Y-50736190D01*
X80354285Y-51212380D02*
X80354285Y-50212380D01*
X79973333Y-50212380D01*
X79878095Y-50260000D01*
X79830476Y-50307619D01*
X79782857Y-50402857D01*
X79782857Y-50545714D01*
X79830476Y-50640952D01*
X79878095Y-50688571D01*
X79973333Y-50736190D01*
X80354285Y-50736190D01*
X79449523Y-50212380D02*
X78782857Y-50212380D01*
X79211428Y-51212380D01*
X77973333Y-50545714D02*
X77973333Y-51212380D01*
X78211428Y-50164761D02*
X78449523Y-50879047D01*
X77830476Y-50879047D01*
X79830857Y-57838380D02*
X80164190Y-57362190D01*
X80402285Y-57838380D02*
X80402285Y-56838380D01*
X80021333Y-56838380D01*
X79926095Y-56886000D01*
X79878476Y-56933619D01*
X79830857Y-57028857D01*
X79830857Y-57171714D01*
X79878476Y-57266952D01*
X79926095Y-57314571D01*
X80021333Y-57362190D01*
X80402285Y-57362190D01*
X79497523Y-56838380D02*
X78830857Y-56838380D01*
X79259428Y-57838380D01*
X78545142Y-56838380D02*
X77878476Y-56838380D01*
X78307047Y-57838380D01*
X74662857Y-51272380D02*
X74996190Y-50796190D01*
X75234285Y-51272380D02*
X75234285Y-50272380D01*
X74853333Y-50272380D01*
X74758095Y-50320000D01*
X74710476Y-50367619D01*
X74662857Y-50462857D01*
X74662857Y-50605714D01*
X74710476Y-50700952D01*
X74758095Y-50748571D01*
X74853333Y-50796190D01*
X75234285Y-50796190D01*
X74329523Y-50272380D02*
X73662857Y-50272380D01*
X74091428Y-51272380D01*
X73139047Y-50700952D02*
X73234285Y-50653333D01*
X73281904Y-50605714D01*
X73329523Y-50510476D01*
X73329523Y-50462857D01*
X73281904Y-50367619D01*
X73234285Y-50320000D01*
X73139047Y-50272380D01*
X72948571Y-50272380D01*
X72853333Y-50320000D01*
X72805714Y-50367619D01*
X72758095Y-50462857D01*
X72758095Y-50510476D01*
X72805714Y-50605714D01*
X72853333Y-50653333D01*
X72948571Y-50700952D01*
X73139047Y-50700952D01*
X73234285Y-50748571D01*
X73281904Y-50796190D01*
X73329523Y-50891428D01*
X73329523Y-51081904D01*
X73281904Y-51177142D01*
X73234285Y-51224761D01*
X73139047Y-51272380D01*
X72948571Y-51272380D01*
X72853333Y-51224761D01*
X72805714Y-51177142D01*
X72758095Y-51081904D01*
X72758095Y-50891428D01*
X72805714Y-50796190D01*
X72853333Y-50748571D01*
X72948571Y-50700952D01*
X75004857Y-57838380D02*
X75338190Y-57362190D01*
X75576285Y-57838380D02*
X75576285Y-56838380D01*
X75195333Y-56838380D01*
X75100095Y-56886000D01*
X75052476Y-56933619D01*
X75004857Y-57028857D01*
X75004857Y-57171714D01*
X75052476Y-57266952D01*
X75100095Y-57314571D01*
X75195333Y-57362190D01*
X75576285Y-57362190D01*
X74671523Y-56838380D02*
X74004857Y-56838380D01*
X74433428Y-57838380D01*
X73576285Y-57838380D02*
X73385809Y-57838380D01*
X73290571Y-57790761D01*
X73242952Y-57743142D01*
X73147714Y-57600285D01*
X73100095Y-57409809D01*
X73100095Y-57028857D01*
X73147714Y-56933619D01*
X73195333Y-56886000D01*
X73290571Y-56838380D01*
X73481047Y-56838380D01*
X73576285Y-56886000D01*
X73623904Y-56933619D01*
X73671523Y-57028857D01*
X73671523Y-57266952D01*
X73623904Y-57362190D01*
X73576285Y-57409809D01*
X73481047Y-57457428D01*
X73290571Y-57457428D01*
X73195333Y-57409809D01*
X73147714Y-57362190D01*
X73100095Y-57266952D01*
M02*
